<svg width="392" height="189" viewBox="0 0 392 189" fill="none" xmlns="http://www.w3.org/2000/svg">
<g filter="url(#filter0_d_8_515)">
<rect x="50" y="46" width="282" height="89" rx="10" fill="white" shape-rendering="crispEdges"/>
<g clip-path="url(#clip0_8_515)">
<path d="M78 78.5C71.3676 78.5 66 83.867 66 90.5C66 97.1324 71.367 102.5 78 102.5C84.6324 102.5 90 97.133 90 90.5C90 83.8676 84.633 78.5 78 78.5ZM84.3522 87.2218L76.6645 94.9095C76.3522 95.2218 75.8455 95.2219 75.5331 94.9095L71.6478 91.0242C71.3354 90.7118 71.3354 90.2052 71.6478 89.8928C71.9602 89.5804 72.4667 89.5804 72.7792 89.8928L76.0988 93.2125L83.2209 86.0904C83.5333 85.778 84.0399 85.778 84.3523 86.0904C84.6646 86.4029 84.6646 86.9094 84.3522 87.2218Z" fill="#008DE0"/>
</g>
<path d="M101.409 65.3636H103.091L107.045 75.0227H107.182L111.136 65.3636H112.818V77H111.5V68.1591H111.386L107.75 77H106.477L102.841 68.1591H102.727V77H101.409V65.3636ZM118.03 77.2045C117.477 77.2045 116.975 77.1004 116.524 76.892C116.073 76.6799 115.715 76.375 115.45 75.9773C115.185 75.5758 115.053 75.0909 115.053 74.5227C115.053 74.0227 115.151 73.6174 115.348 73.3068C115.545 72.9924 115.808 72.7462 116.138 72.5682C116.467 72.3902 116.831 72.2576 117.229 72.1705C117.63 72.0795 118.034 72.0076 118.439 71.9545C118.969 71.8864 119.399 71.8352 119.729 71.8011C120.062 71.7633 120.304 71.7008 120.456 71.6136C120.611 71.5265 120.689 71.375 120.689 71.1591V71.1136C120.689 70.553 120.536 70.1174 120.229 69.8068C119.926 69.4962 119.465 69.3409 118.848 69.3409C118.208 69.3409 117.706 69.4811 117.342 69.7614C116.979 70.0417 116.723 70.3409 116.575 70.6591L115.303 70.2045C115.53 69.6742 115.833 69.2614 116.212 68.9659C116.594 68.6667 117.011 68.4583 117.462 68.3409C117.916 68.2197 118.363 68.1591 118.803 68.1591C119.083 68.1591 119.405 68.1932 119.768 68.2614C120.136 68.3258 120.49 68.4602 120.831 68.6648C121.176 68.8693 121.462 69.178 121.689 69.5909C121.916 70.0038 122.03 70.5568 122.03 71.25V77H120.689V75.8182H120.621C120.53 76.0076 120.378 76.2102 120.166 76.4261C119.954 76.642 119.672 76.8258 119.32 76.9773C118.967 77.1288 118.537 77.2045 118.03 77.2045ZM118.234 76C118.765 76 119.212 75.8958 119.575 75.6875C119.943 75.4792 120.219 75.2102 120.405 74.8807C120.594 74.5511 120.689 74.2045 120.689 73.8409V72.6136C120.632 72.6818 120.507 72.7443 120.314 72.8011C120.125 72.8542 119.905 72.9015 119.655 72.9432C119.409 72.9811 119.168 73.0152 118.933 73.0455C118.702 73.072 118.515 73.0947 118.371 73.1136C118.022 73.1591 117.696 73.233 117.393 73.3352C117.094 73.4337 116.852 73.5833 116.666 73.7841C116.484 73.9811 116.393 74.25 116.393 74.5909C116.393 75.0568 116.566 75.4091 116.911 75.6477C117.259 75.8826 117.7 76 118.234 76ZM125.818 71.75V77H124.477V68.2727H125.773V69.6364H125.886C126.091 69.1932 126.402 68.8371 126.818 68.5682C127.235 68.2955 127.773 68.1591 128.432 68.1591C129.023 68.1591 129.54 68.2803 129.983 68.5227C130.426 68.7614 130.771 69.125 131.017 69.6136C131.263 70.0985 131.386 70.7121 131.386 71.4545V77H130.045V71.5455C130.045 70.8598 129.867 70.3258 129.511 69.9432C129.155 69.5568 128.667 69.3636 128.045 69.3636C127.617 69.3636 127.235 69.4564 126.898 69.642C126.564 69.8277 126.301 70.0985 126.108 70.4545C125.915 70.8106 125.818 71.2424 125.818 71.75ZM139.337 73.4318V68.2727H140.678V77H139.337V75.5227H139.246C139.041 75.9659 138.723 76.3428 138.291 76.6534C137.859 76.9602 137.314 77.1136 136.655 77.1136C136.109 77.1136 135.625 76.9943 135.2 76.7557C134.776 76.5133 134.443 76.1496 134.2 75.6648C133.958 75.1761 133.837 74.5606 133.837 73.8182V68.2727H135.178V73.7273C135.178 74.3636 135.356 74.8712 135.712 75.25C136.071 75.6288 136.53 75.8182 137.087 75.8182C137.42 75.8182 137.759 75.733 138.104 75.5625C138.452 75.392 138.744 75.1307 138.979 74.7784C139.217 74.4261 139.337 73.9773 139.337 73.4318ZM147.02 68.2727V69.4091H142.315V68.2727H147.02ZM143.724 77V67.0682C143.724 66.5682 143.842 66.1515 144.077 65.8182C144.312 65.4848 144.616 65.2348 144.991 65.0682C145.366 64.9015 145.762 64.8182 146.179 64.8182C146.509 64.8182 146.777 64.8447 146.986 64.8977C147.194 64.9508 147.349 65 147.452 65.0455L147.065 66.2045C146.997 66.1818 146.902 66.1534 146.781 66.1193C146.664 66.0852 146.509 66.0682 146.315 66.0682C145.872 66.0682 145.552 66.1799 145.355 66.4034C145.162 66.6269 145.065 66.9545 145.065 67.3864V77H143.724ZM151.217 77.2045C150.664 77.2045 150.162 77.1004 149.712 76.892C149.261 76.6799 148.903 76.375 148.638 75.9773C148.373 75.5758 148.24 75.0909 148.24 74.5227C148.24 74.0227 148.339 73.6174 148.536 73.3068C148.732 72.9924 148.996 72.7462 149.325 72.5682C149.655 72.3902 150.018 72.2576 150.416 72.1705C150.818 72.0795 151.221 72.0076 151.626 71.9545C152.157 71.8864 152.587 71.8352 152.916 71.8011C153.25 71.7633 153.492 71.7008 153.643 71.6136C153.799 71.5265 153.876 71.375 153.876 71.1591V71.1136C153.876 70.553 153.723 70.1174 153.416 69.8068C153.113 69.4962 152.653 69.3409 152.036 69.3409C151.395 69.3409 150.893 69.4811 150.53 69.7614C150.166 70.0417 149.911 70.3409 149.763 70.6591L148.49 70.2045C148.717 69.6742 149.02 69.2614 149.399 68.9659C149.782 68.6667 150.198 68.4583 150.649 68.3409C151.104 68.2197 151.551 68.1591 151.99 68.1591C152.27 68.1591 152.592 68.1932 152.956 68.2614C153.323 68.3258 153.678 68.4602 154.018 68.6648C154.363 68.8693 154.649 69.178 154.876 69.5909C155.104 70.0038 155.217 70.5568 155.217 71.25V77H153.876V75.8182H153.808C153.717 76.0076 153.566 76.2102 153.354 76.4261C153.142 76.642 152.859 76.8258 152.507 76.9773C152.155 77.1288 151.725 77.2045 151.217 77.2045ZM151.422 76C151.952 76 152.399 75.8958 152.763 75.6875C153.13 75.4792 153.407 75.2102 153.592 74.8807C153.782 74.5511 153.876 74.2045 153.876 73.8409V72.6136C153.82 72.6818 153.695 72.7443 153.501 72.8011C153.312 72.8542 153.092 72.9015 152.842 72.9432C152.596 72.9811 152.356 73.0152 152.121 73.0455C151.89 73.072 151.702 73.0947 151.558 73.1136C151.21 73.1591 150.884 73.233 150.581 73.3352C150.282 73.4337 150.039 73.5833 149.854 73.7841C149.672 73.9811 149.581 74.25 149.581 74.5909C149.581 75.0568 149.753 75.4091 150.098 75.6477C150.446 75.8826 150.888 76 151.422 76ZM161.21 77.1818C160.392 77.1818 159.688 76.9886 159.097 76.6023C158.506 76.2159 158.051 75.6837 157.733 75.0057C157.415 74.3277 157.256 73.553 157.256 72.6818C157.256 71.7955 157.419 71.0133 157.744 70.3352C158.074 69.6534 158.532 69.1212 159.119 68.7386C159.71 68.3523 160.4 68.1591 161.188 68.1591C161.801 68.1591 162.354 68.2727 162.847 68.5C163.339 68.7273 163.742 69.0455 164.057 69.4545C164.371 69.8636 164.566 70.3409 164.642 70.8864H163.301C163.199 70.4886 162.972 70.1364 162.619 69.8295C162.271 69.5189 161.801 69.3636 161.21 69.3636C160.688 69.3636 160.229 69.5 159.835 69.7727C159.445 70.0417 159.14 70.4223 158.92 70.9148C158.705 71.4034 158.597 71.9773 158.597 72.6364C158.597 73.3106 158.703 73.8977 158.915 74.3977C159.131 74.8977 159.434 75.286 159.824 75.5625C160.218 75.839 160.68 75.9773 161.21 75.9773C161.559 75.9773 161.875 75.9167 162.159 75.7955C162.443 75.6742 162.684 75.5 162.881 75.2727C163.078 75.0455 163.218 74.7727 163.301 74.4545H164.642C164.566 74.9697 164.379 75.4337 164.08 75.8466C163.784 76.2557 163.392 76.5814 162.903 76.8239C162.419 77.0625 161.854 77.1818 161.21 77.1818ZM170.398 68.2727V69.4091H165.875V68.2727H170.398ZM167.193 66.1818H168.534V74.5C168.534 74.8788 168.589 75.1629 168.699 75.3523C168.813 75.5379 168.956 75.6629 169.131 75.7273C169.309 75.7879 169.496 75.8182 169.693 75.8182C169.841 75.8182 169.962 75.8106 170.057 75.7955C170.152 75.7765 170.227 75.7614 170.284 75.75L170.557 76.9545C170.466 76.9886 170.339 77.0227 170.176 77.0568C170.013 77.0947 169.807 77.1136 169.557 77.1136C169.178 77.1136 168.807 77.0322 168.443 76.8693C168.083 76.7064 167.784 76.4583 167.545 76.125C167.311 75.7917 167.193 75.3712 167.193 74.8636V66.1818ZM177.915 73.4318V68.2727H179.256V77H177.915V75.5227H177.824C177.619 75.9659 177.301 76.3428 176.869 76.6534C176.438 76.9602 175.892 77.1136 175.233 77.1136C174.688 77.1136 174.203 76.9943 173.778 76.7557C173.354 76.5133 173.021 76.1496 172.778 75.6648C172.536 75.1761 172.415 74.5606 172.415 73.8182V68.2727H173.756V73.7273C173.756 74.3636 173.934 74.8712 174.29 75.25C174.65 75.6288 175.108 75.8182 175.665 75.8182C175.998 75.8182 176.337 75.733 176.682 75.5625C177.03 75.392 177.322 75.1307 177.557 74.7784C177.795 74.4261 177.915 73.9773 177.915 73.4318ZM181.712 77V68.2727H183.007V69.5909H183.098C183.257 69.1591 183.545 68.8087 183.962 68.5398C184.378 68.2708 184.848 68.1364 185.371 68.1364C185.469 68.1364 185.592 68.1383 185.74 68.142C185.888 68.1458 186 68.1515 186.075 68.1591V69.5227C186.03 69.5114 185.926 69.4943 185.763 69.4716C185.604 69.4451 185.435 69.4318 185.257 69.4318C184.833 69.4318 184.454 69.5208 184.121 69.6989C183.791 69.8731 183.53 70.1155 183.337 70.4261C183.147 70.733 183.053 71.0833 183.053 71.4773V77H181.712ZM191.058 77.1818C190.217 77.1818 189.492 76.9962 188.882 76.625C188.276 76.25 187.808 75.7273 187.479 75.0568C187.153 74.3826 186.99 73.5985 186.99 72.7045C186.99 71.8106 187.153 71.0227 187.479 70.3409C187.808 69.6553 188.267 69.1212 188.854 68.7386C189.445 68.3523 190.134 68.1591 190.922 68.1591C191.376 68.1591 191.825 68.2348 192.268 68.3864C192.712 68.5379 193.115 68.7841 193.479 69.125C193.842 69.4621 194.132 69.9091 194.348 70.4659C194.564 71.0227 194.672 71.7083 194.672 72.5227V73.0909H187.945V71.9318H193.308C193.308 71.4394 193.21 71 193.013 70.6136C192.82 70.2273 192.543 69.9223 192.183 69.6989C191.827 69.4754 191.407 69.3636 190.922 69.3636C190.388 69.3636 189.926 69.4962 189.536 69.7614C189.149 70.0227 188.852 70.3636 188.643 70.7841C188.435 71.2045 188.331 71.6553 188.331 72.1364V72.9091C188.331 73.5682 188.445 74.1269 188.672 74.5852C188.903 75.0398 189.223 75.3864 189.632 75.625C190.041 75.8598 190.517 75.9773 191.058 75.9773C191.411 75.9773 191.729 75.928 192.013 75.8295C192.301 75.7273 192.549 75.5758 192.757 75.375C192.965 75.1705 193.126 74.9167 193.24 74.6136L194.536 74.9773C194.399 75.4167 194.17 75.803 193.848 76.1364C193.526 76.4659 193.128 76.7235 192.655 76.9091C192.181 77.0909 191.649 77.1818 191.058 77.1818ZM203.78 77.2045C203.227 77.2045 202.725 77.1004 202.274 76.892C201.823 76.6799 201.465 76.375 201.2 75.9773C200.935 75.5758 200.803 75.0909 200.803 74.5227C200.803 74.0227 200.901 73.6174 201.098 73.3068C201.295 72.9924 201.558 72.7462 201.888 72.5682C202.217 72.3902 202.581 72.2576 202.979 72.1705C203.38 72.0795 203.784 72.0076 204.189 71.9545C204.719 71.8864 205.149 71.8352 205.479 71.8011C205.812 71.7633 206.054 71.7008 206.206 71.6136C206.361 71.5265 206.439 71.375 206.439 71.1591V71.1136C206.439 70.553 206.286 70.1174 205.979 69.8068C205.676 69.4962 205.215 69.3409 204.598 69.3409C203.958 69.3409 203.456 69.4811 203.092 69.7614C202.729 70.0417 202.473 70.3409 202.325 70.6591L201.053 70.2045C201.28 69.6742 201.583 69.2614 201.962 68.9659C202.344 68.6667 202.761 68.4583 203.212 68.3409C203.666 68.2197 204.113 68.1591 204.553 68.1591C204.833 68.1591 205.155 68.1932 205.518 68.2614C205.886 68.3258 206.24 68.4602 206.581 68.6648C206.926 68.8693 207.212 69.178 207.439 69.5909C207.666 70.0038 207.78 70.5568 207.78 71.25V77H206.439V75.8182H206.371C206.28 76.0076 206.128 76.2102 205.916 76.4261C205.704 76.642 205.422 76.8258 205.07 76.9773C204.717 77.1288 204.287 77.2045 203.78 77.2045ZM203.984 76C204.515 76 204.962 75.8958 205.325 75.6875C205.693 75.4792 205.969 75.2102 206.155 74.8807C206.344 74.5511 206.439 74.2045 206.439 73.8409V72.6136C206.382 72.6818 206.257 72.7443 206.064 72.8011C205.875 72.8542 205.655 72.9015 205.405 72.9432C205.159 72.9811 204.918 73.0152 204.683 73.0455C204.452 73.072 204.265 73.0947 204.121 73.1136C203.772 73.1591 203.446 73.233 203.143 73.3352C202.844 73.4337 202.602 73.5833 202.416 73.7841C202.234 73.9811 202.143 74.25 202.143 74.5909C202.143 75.0568 202.316 75.4091 202.661 75.6477C203.009 75.8826 203.45 76 203.984 76ZM211.568 71.75V77H210.227V68.2727H211.523V69.6364H211.636C211.841 69.1932 212.152 68.8371 212.568 68.5682C212.985 68.2955 213.523 68.1591 214.182 68.1591C214.773 68.1591 215.29 68.2803 215.733 68.5227C216.176 68.7614 216.521 69.125 216.767 69.6136C217.013 70.0985 217.136 70.7121 217.136 71.4545V77H215.795V71.5455C215.795 70.8598 215.617 70.3258 215.261 69.9432C214.905 69.5568 214.417 69.3636 213.795 69.3636C213.367 69.3636 212.985 69.4564 212.648 69.642C212.314 69.8277 212.051 70.0985 211.858 70.4545C211.665 70.8106 211.568 71.2424 211.568 71.75ZM222.882 77.1818C222.155 77.1818 221.513 76.9981 220.956 76.6307C220.399 76.2595 219.964 75.7367 219.649 75.0625C219.335 74.3845 219.178 73.5833 219.178 72.6591C219.178 71.7424 219.335 70.947 219.649 70.2727C219.964 69.5985 220.401 69.0777 220.962 68.7102C221.522 68.3428 222.17 68.1591 222.905 68.1591C223.473 68.1591 223.922 68.2538 224.251 68.4432C224.585 68.6288 224.839 68.8409 225.013 69.0795C225.191 69.3144 225.329 69.5076 225.428 69.6591H225.541V65.3636H226.882V77H225.587V75.6591H225.428C225.329 75.8182 225.189 76.0189 225.007 76.2614C224.825 76.5 224.566 76.714 224.229 76.9034C223.892 77.089 223.443 77.1818 222.882 77.1818ZM223.064 75.9773C223.602 75.9773 224.056 75.8371 224.428 75.5568C224.799 75.2727 225.081 74.8807 225.274 74.3807C225.467 73.8769 225.564 73.2955 225.564 72.6364C225.564 71.9848 225.469 71.4148 225.28 70.9261C225.09 70.4337 224.81 70.0511 224.439 69.7784C224.068 69.5019 223.609 69.3636 223.064 69.3636C222.496 69.3636 222.022 69.5095 221.643 69.8011C221.268 70.089 220.986 70.4811 220.797 70.9773C220.611 71.4697 220.518 72.0227 220.518 72.6364C220.518 73.2576 220.613 73.822 220.803 74.3295C220.996 74.8333 221.28 75.2348 221.655 75.5341C222.034 75.8295 222.503 75.9773 223.064 75.9773ZM240.206 70.2273L239.001 70.5682C238.926 70.3674 238.814 70.1723 238.666 69.983C238.522 69.7898 238.325 69.6307 238.075 69.5057C237.825 69.3807 237.505 69.3182 237.115 69.3182C236.581 69.3182 236.136 69.4413 235.78 69.6875C235.428 69.9299 235.251 70.2386 235.251 70.6136C235.251 70.947 235.373 71.2102 235.615 71.4034C235.857 71.5966 236.236 71.7576 236.751 71.8864L238.047 72.2045C238.827 72.3939 239.409 72.6837 239.791 73.0739C240.174 73.4602 240.365 73.9583 240.365 74.5682C240.365 75.0682 240.221 75.5152 239.933 75.9091C239.649 76.303 239.251 76.6136 238.74 76.8409C238.229 77.0682 237.634 77.1818 236.956 77.1818C236.066 77.1818 235.329 76.9886 234.746 76.6023C234.162 76.2159 233.793 75.6515 233.638 74.9091L234.911 74.5909C235.032 75.0606 235.261 75.4129 235.598 75.6477C235.939 75.8826 236.384 76 236.933 76C237.558 76 238.054 75.8674 238.422 75.6023C238.793 75.3333 238.979 75.0114 238.979 74.6364C238.979 74.3333 238.873 74.0795 238.661 73.875C238.448 73.6667 238.123 73.5114 237.683 73.4091L236.229 73.0682C235.429 72.8788 234.842 72.5852 234.467 72.1875C234.096 71.786 233.911 71.2841 233.911 70.6818C233.911 70.1894 234.049 69.7538 234.325 69.375C234.606 68.9962 234.986 68.6989 235.467 68.483C235.952 68.267 236.501 68.1591 237.115 68.1591C237.979 68.1591 238.657 68.3485 239.149 68.7273C239.645 69.1061 239.998 69.6061 240.206 70.2273ZM246.043 77.1818C245.202 77.1818 244.476 76.9962 243.866 76.625C243.26 76.25 242.793 75.7273 242.463 75.0568C242.137 74.3826 241.974 73.5985 241.974 72.7045C241.974 71.8106 242.137 71.0227 242.463 70.3409C242.793 69.6553 243.251 69.1212 243.838 68.7386C244.429 68.3523 245.118 68.1591 245.906 68.1591C246.361 68.1591 246.81 68.2348 247.253 68.3864C247.696 68.5379 248.099 68.7841 248.463 69.125C248.827 69.4621 249.116 69.9091 249.332 70.4659C249.548 71.0227 249.656 71.7083 249.656 72.5227V73.0909H242.929V71.9318H248.293C248.293 71.4394 248.194 71 247.997 70.6136C247.804 70.2273 247.527 69.9223 247.168 69.6989C246.812 69.4754 246.391 69.3636 245.906 69.3636C245.372 69.3636 244.91 69.4962 244.52 69.7614C244.134 70.0227 243.836 70.3636 243.628 70.7841C243.42 71.2045 243.315 71.6553 243.315 72.1364V72.9091C243.315 73.5682 243.429 74.1269 243.656 74.5852C243.887 75.0398 244.207 75.3864 244.616 75.625C245.026 75.8598 245.501 75.9773 246.043 75.9773C246.395 75.9773 246.713 75.928 246.997 75.8295C247.285 75.7273 247.533 75.5758 247.741 75.375C247.95 75.1705 248.111 74.9167 248.224 74.6136L249.52 74.9773C249.384 75.4167 249.154 75.803 248.832 76.1364C248.51 76.4659 248.113 76.7235 247.639 76.9091C247.166 77.0909 246.634 77.1818 246.043 77.1818ZM253.037 65.3636V77H251.696V65.3636H253.037ZM256.834 65.3636V77H255.493V65.3636H256.834ZM104.523 96.1818C103.795 96.1818 103.153 95.9981 102.597 95.6307C102.04 95.2595 101.604 94.7367 101.29 94.0625C100.975 93.3845 100.818 92.5833 100.818 91.6591C100.818 90.7424 100.975 89.947 101.29 89.2727C101.604 88.5985 102.042 88.0777 102.602 87.7102C103.163 87.3428 103.811 87.1591 104.545 87.1591C105.114 87.1591 105.563 87.2538 105.892 87.4432C106.225 87.6288 106.479 87.8409 106.653 88.0795C106.831 88.3144 106.97 88.5076 107.068 88.6591H107.182V84.3636H108.523V96H107.227V94.6591H107.068C106.97 94.8182 106.83 95.0189 106.648 95.2614C106.466 95.5 106.206 95.714 105.869 95.9034C105.532 96.089 105.083 96.1818 104.523 96.1818ZM104.705 94.9773C105.242 94.9773 105.697 94.8371 106.068 94.5568C106.439 94.2727 106.722 93.8807 106.915 93.3807C107.108 92.8769 107.205 92.2955 107.205 91.6364C107.205 90.9848 107.11 90.4148 106.92 89.9261C106.731 89.4337 106.451 89.0511 106.08 88.7784C105.708 88.5019 105.25 88.3636 104.705 88.3636C104.136 88.3636 103.663 88.5095 103.284 88.8011C102.909 89.089 102.627 89.4811 102.438 89.9773C102.252 90.4697 102.159 91.0227 102.159 91.6364C102.159 92.2576 102.254 92.822 102.443 93.3295C102.636 93.8333 102.92 94.2348 103.295 94.5341C103.674 94.8295 104.144 94.9773 104.705 94.9773ZM111.165 96V87.2727H112.506V96H111.165ZM111.847 85.8182C111.585 85.8182 111.36 85.7292 111.17 85.5511C110.985 85.3731 110.892 85.1591 110.892 84.9091C110.892 84.6591 110.985 84.4451 111.17 84.267C111.36 84.089 111.585 84 111.847 84C112.108 84 112.331 84.089 112.517 84.267C112.706 84.4451 112.801 84.6591 112.801 84.9091C112.801 85.1591 112.706 85.3731 112.517 85.5511C112.331 85.7292 112.108 85.8182 111.847 85.8182ZM118.848 87.2727V88.4091H114.143V87.2727H118.848ZM115.553 96V86.0682C115.553 85.5682 115.67 85.1515 115.905 84.8182C116.14 84.4848 116.445 84.2348 116.82 84.0682C117.195 83.9015 117.59 83.8182 118.007 83.8182C118.337 83.8182 118.606 83.8447 118.814 83.8977C119.022 83.9508 119.178 84 119.28 84.0455L118.893 85.2045C118.825 85.1818 118.731 85.1534 118.609 85.1193C118.492 85.0852 118.337 85.0682 118.143 85.0682C117.7 85.0682 117.38 85.1799 117.183 85.4034C116.99 85.6269 116.893 85.9545 116.893 86.3864V96H115.553ZM124.614 87.2727V88.4091H119.909V87.2727H124.614ZM121.318 96V86.0682C121.318 85.5682 121.436 85.1515 121.67 84.8182C121.905 84.4848 122.21 84.2348 122.585 84.0682C122.96 83.9015 123.356 83.8182 123.773 83.8182C124.102 83.8182 124.371 83.8447 124.58 83.8977C124.788 83.9508 124.943 84 125.045 84.0455L124.659 85.2045C124.591 85.1818 124.496 85.1534 124.375 85.1193C124.258 85.0852 124.102 85.0682 123.909 85.0682C123.466 85.0682 123.146 85.1799 122.949 85.4034C122.756 85.6269 122.659 85.9545 122.659 86.3864V96H121.318ZM129.793 96.1818C128.952 96.1818 128.226 95.9962 127.616 95.625C127.01 95.25 126.543 94.7273 126.213 94.0568C125.887 93.3826 125.724 92.5985 125.724 91.7045C125.724 90.8106 125.887 90.0227 126.213 89.3409C126.543 88.6553 127.001 88.1212 127.588 87.7386C128.179 87.3523 128.868 87.1591 129.656 87.1591C130.111 87.1591 130.56 87.2348 131.003 87.3864C131.446 87.5379 131.849 87.7841 132.213 88.125C132.577 88.4621 132.866 88.9091 133.082 89.4659C133.298 90.0227 133.406 90.7083 133.406 91.5227V92.0909H126.679V90.9318H132.043C132.043 90.4394 131.944 90 131.747 89.6136C131.554 89.2273 131.277 88.9223 130.918 88.6989C130.562 88.4754 130.141 88.3636 129.656 88.3636C129.122 88.3636 128.66 88.4962 128.27 88.7614C127.884 89.0227 127.586 89.3636 127.378 89.7841C127.17 90.2045 127.065 90.6553 127.065 91.1364V91.9091C127.065 92.5682 127.179 93.1269 127.406 93.5852C127.637 94.0398 127.957 94.3864 128.366 94.625C128.776 94.8598 129.251 94.9773 129.793 94.9773C130.145 94.9773 130.463 94.928 130.747 94.8295C131.035 94.7273 131.283 94.5758 131.491 94.375C131.7 94.1705 131.861 93.9167 131.974 93.6136L133.27 93.9773C133.134 94.4167 132.904 94.803 132.582 95.1364C132.26 95.4659 131.863 95.7235 131.389 95.9091C130.916 96.0909 130.384 96.1818 129.793 96.1818ZM135.446 96V87.2727H136.741V88.5909H136.832C136.991 88.1591 137.279 87.8087 137.696 87.5398C138.113 87.2708 138.582 87.1364 139.105 87.1364C139.204 87.1364 139.327 87.1383 139.474 87.142C139.622 87.1458 139.734 87.1515 139.81 87.1591V88.5227C139.764 88.5114 139.66 88.4943 139.497 88.4716C139.338 88.4451 139.17 88.4318 138.991 88.4318C138.567 88.4318 138.188 88.5208 137.855 88.6989C137.526 88.8731 137.264 89.1155 137.071 89.4261C136.882 89.733 136.787 90.0833 136.787 90.4773V96H135.446ZM144.793 96.1818C143.952 96.1818 143.226 95.9962 142.616 95.625C142.01 95.25 141.543 94.7273 141.213 94.0568C140.887 93.3826 140.724 92.5985 140.724 91.7045C140.724 90.8106 140.887 90.0227 141.213 89.3409C141.543 88.6553 142.001 88.1212 142.588 87.7386C143.179 87.3523 143.868 87.1591 144.656 87.1591C145.111 87.1591 145.56 87.2348 146.003 87.3864C146.446 87.5379 146.849 87.7841 147.213 88.125C147.577 88.4621 147.866 88.9091 148.082 89.4659C148.298 90.0227 148.406 90.7083 148.406 91.5227V92.0909H141.679V90.9318H147.043C147.043 90.4394 146.944 90 146.747 89.6136C146.554 89.2273 146.277 88.9223 145.918 88.6989C145.562 88.4754 145.141 88.3636 144.656 88.3636C144.122 88.3636 143.66 88.4962 143.27 88.7614C142.884 89.0227 142.586 89.3636 142.378 89.7841C142.17 90.2045 142.065 90.6553 142.065 91.1364V91.9091C142.065 92.5682 142.179 93.1269 142.406 93.5852C142.637 94.0398 142.957 94.3864 143.366 94.625C143.776 94.8598 144.251 94.9773 144.793 94.9773C145.145 94.9773 145.463 94.928 145.747 94.8295C146.035 94.7273 146.283 94.5758 146.491 94.375C146.7 94.1705 146.861 93.9167 146.974 93.6136L148.27 93.9773C148.134 94.4167 147.904 94.803 147.582 95.1364C147.26 95.4659 146.863 95.7235 146.389 95.9091C145.916 96.0909 145.384 96.1818 144.793 96.1818ZM151.787 90.75V96H150.446V87.2727H151.741V88.6364H151.855C152.06 88.1932 152.37 87.8371 152.787 87.5682C153.204 87.2955 153.741 87.1591 154.401 87.1591C154.991 87.1591 155.509 87.2803 155.952 87.5227C156.395 87.7614 156.74 88.125 156.986 88.6136C157.232 89.0985 157.355 89.7121 157.355 90.4545V96H156.014V90.5455C156.014 89.8598 155.836 89.3258 155.48 88.9432C155.124 88.5568 154.635 88.3636 154.014 88.3636C153.586 88.3636 153.204 88.4564 152.866 88.642C152.533 88.8277 152.27 89.0985 152.077 89.4545C151.884 89.8106 151.787 90.2424 151.787 90.75ZM163.601 87.2727V88.4091H159.078V87.2727H163.601ZM160.396 85.1818H161.737V93.5C161.737 93.8788 161.792 94.1629 161.902 94.3523C162.016 94.5379 162.16 94.6629 162.334 94.7273C162.512 94.7879 162.699 94.8182 162.896 94.8182C163.044 94.8182 163.165 94.8106 163.26 94.7955C163.355 94.7765 163.43 94.7614 163.487 94.75L163.76 95.9545C163.669 95.9886 163.542 96.0227 163.379 96.0568C163.216 96.0947 163.01 96.1136 162.76 96.1136C162.381 96.1136 162.01 96.0322 161.646 95.8693C161.286 95.7064 160.987 95.4583 160.749 95.125C160.514 94.7917 160.396 94.3712 160.396 93.8636V85.1818ZM173.913 87.2727V88.4091H169.391V87.2727H173.913ZM170.709 85.1818H172.05V93.5C172.05 93.8788 172.105 94.1629 172.214 94.3523C172.328 94.5379 172.472 94.6629 172.646 94.7273C172.824 94.7879 173.012 94.8182 173.209 94.8182C173.357 94.8182 173.478 94.8106 173.572 94.7955C173.667 94.7765 173.743 94.7614 173.8 94.75L174.072 95.9545C173.982 95.9886 173.855 96.0227 173.692 96.0568C173.529 96.0947 173.322 96.1136 173.072 96.1136C172.694 96.1136 172.322 96.0322 171.959 95.8693C171.599 95.7064 171.3 95.4583 171.061 95.125C170.826 94.7917 170.709 94.3712 170.709 93.8636V85.1818ZM176.794 99.2727C176.567 99.2727 176.364 99.2538 176.186 99.2159C176.008 99.1818 175.885 99.1477 175.817 99.1136L176.158 97.9318C176.483 98.0152 176.771 98.0455 177.021 98.0227C177.271 98 177.493 97.8883 177.686 97.6875C177.883 97.4905 178.063 97.1705 178.226 96.7273L178.476 96.0455L175.249 87.2727H176.703L179.112 94.2273H179.203L181.612 87.2727H183.067L179.362 97.2727C179.196 97.7235 178.989 98.0966 178.743 98.392C178.497 98.6913 178.211 98.9129 177.885 99.0568C177.563 99.2008 177.199 99.2727 176.794 99.2727ZM184.837 99.2727V87.2727H186.132V88.6591H186.291C186.39 88.5076 186.526 88.3144 186.7 88.0795C186.878 87.8409 187.132 87.6288 187.462 87.4432C187.795 87.2538 188.246 87.1591 188.814 87.1591C189.549 87.1591 190.196 87.3428 190.757 87.7102C191.318 88.0777 191.755 88.5985 192.07 89.2727C192.384 89.947 192.541 90.7424 192.541 91.6591C192.541 92.5833 192.384 93.3845 192.07 94.0625C191.755 94.7367 191.32 95.2595 190.763 95.6307C190.206 95.9981 189.564 96.1818 188.837 96.1818C188.276 96.1818 187.827 96.089 187.49 95.9034C187.153 95.714 186.893 95.5 186.712 95.2614C186.53 95.0189 186.39 94.8182 186.291 94.6591H186.178V99.2727H184.837ZM186.155 91.6364C186.155 92.2955 186.251 92.8769 186.445 93.3807C186.638 93.8807 186.92 94.2727 187.291 94.5568C187.662 94.8371 188.117 94.9773 188.655 94.9773C189.215 94.9773 189.683 94.8295 190.058 94.5341C190.437 94.2348 190.721 93.8333 190.911 93.3295C191.104 92.822 191.2 92.2576 191.2 91.6364C191.2 91.0227 191.106 90.4697 190.916 89.9773C190.731 89.4811 190.448 89.089 190.07 88.8011C189.695 88.5095 189.223 88.3636 188.655 88.3636C188.109 88.3636 187.651 88.5019 187.28 88.7784C186.909 89.0511 186.628 89.4337 186.439 89.9261C186.25 90.4148 186.155 90.9848 186.155 91.6364ZM198.246 96.1818C197.405 96.1818 196.679 95.9962 196.07 95.625C195.464 95.25 194.996 94.7273 194.666 94.0568C194.34 93.3826 194.178 92.5985 194.178 91.7045C194.178 90.8106 194.34 90.0227 194.666 89.3409C194.996 88.6553 195.454 88.1212 196.041 87.7386C196.632 87.3523 197.321 87.1591 198.109 87.1591C198.564 87.1591 199.013 87.2348 199.456 87.3864C199.899 87.5379 200.303 87.7841 200.666 88.125C201.03 88.4621 201.32 88.9091 201.536 89.4659C201.751 90.0227 201.859 90.7083 201.859 91.5227V92.0909H195.132V90.9318H200.496C200.496 90.4394 200.397 90 200.2 89.6136C200.007 89.2273 199.731 88.9223 199.371 88.6989C199.015 88.4754 198.594 88.3636 198.109 88.3636C197.575 88.3636 197.113 88.4962 196.723 88.7614C196.337 89.0227 196.039 89.3636 195.831 89.7841C195.623 90.2045 195.518 90.6553 195.518 91.1364V91.9091C195.518 92.5682 195.632 93.1269 195.859 93.5852C196.09 94.0398 196.411 94.3864 196.82 94.625C197.229 94.8598 197.704 94.9773 198.246 94.9773C198.598 94.9773 198.916 94.928 199.2 94.8295C199.488 94.7273 199.736 94.5758 199.945 94.375C200.153 94.1705 200.314 93.9167 200.428 93.6136L201.723 93.9773C201.587 94.4167 201.357 94.803 201.036 95.1364C200.714 95.4659 200.316 95.7235 199.842 95.9091C199.369 96.0909 198.837 96.1818 198.246 96.1818ZM211.945 96.1818C211.157 96.1818 210.465 95.9943 209.871 95.6193C209.28 95.2443 208.818 94.7197 208.484 94.0455C208.155 93.3712 207.99 92.5833 207.99 91.6818C207.99 90.7727 208.155 89.9792 208.484 89.3011C208.818 88.6231 209.28 88.0966 209.871 87.7216C210.465 87.3466 211.157 87.1591 211.945 87.1591C212.732 87.1591 213.422 87.3466 214.013 87.7216C214.607 88.0966 215.07 88.6231 215.399 89.3011C215.732 89.9792 215.899 90.7727 215.899 91.6818C215.899 92.5833 215.732 93.3712 215.399 94.0455C215.07 94.7197 214.607 95.2443 214.013 95.6193C213.422 95.9943 212.732 96.1818 211.945 96.1818ZM211.945 94.9773C212.543 94.9773 213.036 94.8239 213.422 94.517C213.808 94.2102 214.094 93.8068 214.28 93.3068C214.465 92.8068 214.558 92.2652 214.558 91.6818C214.558 91.0985 214.465 90.5549 214.28 90.0511C214.094 89.5473 213.808 89.1402 213.422 88.8295C213.036 88.5189 212.543 88.3636 211.945 88.3636C211.346 88.3636 210.854 88.5189 210.467 88.8295C210.081 89.1402 209.795 89.5473 209.609 90.0511C209.424 90.5549 209.331 91.0985 209.331 91.6818C209.331 92.2652 209.424 92.8068 209.609 93.3068C209.795 93.8068 210.081 94.2102 210.467 94.517C210.854 94.8239 211.346 94.9773 211.945 94.9773ZM221.832 87.2727V88.4091H217.128V87.2727H221.832ZM218.537 96V86.0682C218.537 85.5682 218.654 85.1515 218.889 84.8182C219.124 84.4848 219.429 84.2348 219.804 84.0682C220.179 83.9015 220.575 83.8182 220.991 83.8182C221.321 83.8182 221.59 83.8447 221.798 83.8977C222.007 83.9508 222.162 84 222.264 84.0455L221.878 85.2045C221.81 85.1818 221.715 85.1534 221.594 85.1193C221.476 85.0852 221.321 85.0682 221.128 85.0682C220.685 85.0682 220.365 85.1799 220.168 85.4034C219.974 85.6269 219.878 85.9545 219.878 86.3864V96H218.537ZM231.757 96.1818C230.939 96.1818 230.234 95.9886 229.643 95.6023C229.053 95.2159 228.598 94.6837 228.28 94.0057C227.962 93.3277 227.803 92.553 227.803 91.6818C227.803 90.7955 227.965 90.0133 228.291 89.3352C228.621 88.6534 229.079 88.1212 229.666 87.7386C230.257 87.3523 230.946 87.1591 231.734 87.1591C232.348 87.1591 232.901 87.2727 233.393 87.5C233.886 87.7273 234.289 88.0455 234.604 88.4545C234.918 88.8636 235.113 89.3409 235.189 89.8864H233.848C233.746 89.4886 233.518 89.1364 233.166 88.8295C232.818 88.5189 232.348 88.3636 231.757 88.3636C231.234 88.3636 230.776 88.5 230.382 88.7727C229.992 89.0417 229.687 89.4223 229.467 89.9148C229.251 90.4034 229.143 90.9773 229.143 91.6364C229.143 92.3106 229.25 92.8977 229.462 93.3977C229.678 93.8977 229.981 94.286 230.371 94.5625C230.765 94.839 231.227 94.9773 231.757 94.9773C232.106 94.9773 232.422 94.9167 232.706 94.7955C232.99 94.6742 233.231 94.5 233.428 94.2727C233.625 94.0455 233.765 93.7727 233.848 93.4545H235.189C235.113 93.9697 234.926 94.4337 234.626 94.8466C234.331 95.2557 233.939 95.5814 233.45 95.8239C232.965 96.0625 232.401 96.1818 231.757 96.1818ZM238.49 84.3636V96H237.149V84.3636H238.49ZM244.491 96.1818C243.704 96.1818 243.012 95.9943 242.418 95.6193C241.827 95.2443 241.365 94.7197 241.031 94.0455C240.702 93.3712 240.537 92.5833 240.537 91.6818C240.537 90.7727 240.702 89.9792 241.031 89.3011C241.365 88.6231 241.827 88.0966 242.418 87.7216C243.012 87.3466 243.704 87.1591 244.491 87.1591C245.279 87.1591 245.969 87.3466 246.56 87.7216C247.154 88.0966 247.616 88.6231 247.946 89.3011C248.279 89.9792 248.446 90.7727 248.446 91.6818C248.446 92.5833 248.279 93.3712 247.946 94.0455C247.616 94.7197 247.154 95.2443 246.56 95.6193C245.969 95.9943 245.279 96.1818 244.491 96.1818ZM244.491 94.9773C245.09 94.9773 245.582 94.8239 245.969 94.517C246.355 94.2102 246.641 93.8068 246.827 93.3068C247.012 92.8068 247.105 92.2652 247.105 91.6818C247.105 91.0985 247.012 90.5549 246.827 90.0511C246.641 89.5473 246.355 89.1402 245.969 88.8295C245.582 88.5189 245.09 88.3636 244.491 88.3636C243.893 88.3636 243.401 88.5189 243.014 88.8295C242.628 89.1402 242.342 89.5473 242.156 90.0511C241.971 90.5549 241.878 91.0985 241.878 91.6818C241.878 92.2652 241.971 92.8068 242.156 93.3068C242.342 93.8068 242.628 94.2102 243.014 94.517C243.401 94.8239 243.893 94.9773 244.491 94.9773ZM254.288 87.2727V88.4091H249.766V87.2727H254.288ZM251.084 85.1818H252.425V93.5C252.425 93.8788 252.48 94.1629 252.589 94.3523C252.703 94.5379 252.847 94.6629 253.021 94.7273C253.199 94.7879 253.387 94.8182 253.584 94.8182C253.732 94.8182 253.853 94.8106 253.947 94.7955C254.042 94.7765 254.118 94.7614 254.175 94.75L254.447 95.9545C254.357 95.9886 254.23 96.0227 254.067 96.0568C253.904 96.0947 253.697 96.1136 253.447 96.1136C253.069 96.1136 252.697 96.0322 252.334 95.8693C251.974 95.7064 251.675 95.4583 251.436 95.125C251.201 94.7917 251.084 94.3712 251.084 93.8636V85.1818ZM257.834 90.75V96H256.493V84.3636H257.834V88.6364H257.947C258.152 88.1856 258.459 87.8277 258.868 87.5625C259.281 87.2936 259.83 87.1591 260.516 87.1591C261.11 87.1591 261.631 87.2784 262.078 87.517C262.525 87.7519 262.872 88.1136 263.118 88.6023C263.368 89.0871 263.493 89.7045 263.493 90.4545V96H262.152V90.5455C262.152 89.8523 261.972 89.3163 261.612 88.9375C261.256 88.5549 260.762 88.3636 260.129 88.3636C259.69 88.3636 259.296 88.4564 258.947 88.642C258.603 88.8277 258.33 89.0985 258.129 89.4545C257.932 89.8106 257.834 90.2424 257.834 90.75ZM265.946 96V87.2727H267.287V96H265.946ZM266.628 85.8182C266.366 85.8182 266.141 85.7292 265.952 85.5511C265.766 85.3731 265.673 85.1591 265.673 84.9091C265.673 84.6591 265.766 84.4451 265.952 84.267C266.141 84.089 266.366 84 266.628 84C266.889 84 267.113 84.089 267.298 84.267C267.488 84.4451 267.582 84.6591 267.582 84.9091C267.582 85.1591 267.488 85.3731 267.298 85.5511C267.113 85.7292 266.889 85.8182 266.628 85.8182ZM271.084 90.75V96H269.743V87.2727H271.038V88.6364H271.152C271.357 88.1932 271.667 87.8371 272.084 87.5682C272.5 87.2955 273.038 87.1591 273.697 87.1591C274.288 87.1591 274.805 87.2803 275.249 87.5227C275.692 87.7614 276.036 88.125 276.283 88.6136C276.529 89.0985 276.652 89.7121 276.652 90.4545V96H275.311V90.5455C275.311 89.8598 275.133 89.3258 274.777 88.9432C274.421 88.5568 273.932 88.3636 273.311 88.3636C272.883 88.3636 272.5 88.4564 272.163 88.642C271.83 88.8277 271.567 89.0985 271.374 89.4545C271.18 89.8106 271.084 90.2424 271.084 90.75ZM282.625 99.4545C281.977 99.4545 281.42 99.3712 280.955 99.2045C280.489 99.0417 280.1 98.8258 279.79 98.5568C279.483 98.2917 279.239 98.0076 279.057 97.7045L280.125 96.9545C280.246 97.1136 280.4 97.2955 280.585 97.5C280.771 97.7083 281.025 97.8883 281.347 98.0398C281.672 98.1951 282.098 98.2727 282.625 98.2727C283.33 98.2727 283.911 98.1023 284.369 97.7614C284.828 97.4205 285.057 96.8864 285.057 96.1591V94.3864H284.943C284.845 94.5455 284.705 94.7424 284.523 94.9773C284.345 95.2083 284.087 95.4148 283.75 95.5966C283.417 95.7746 282.966 95.8636 282.398 95.8636C281.693 95.8636 281.061 95.697 280.5 95.3636C279.943 95.0303 279.502 94.5455 279.176 93.9091C278.854 93.2727 278.693 92.5 278.693 91.5909C278.693 90.697 278.85 89.9186 279.165 89.2557C279.479 88.589 279.917 88.0739 280.477 87.7102C281.038 87.3428 281.686 87.1591 282.42 87.1591C282.989 87.1591 283.439 87.2538 283.773 87.4432C284.11 87.6288 284.367 87.8409 284.545 88.0795C284.727 88.3144 284.867 88.5076 284.966 88.6591H285.102V87.2727H286.398V96.25C286.398 97 286.227 97.6098 285.886 98.0795C285.549 98.553 285.095 98.8996 284.523 99.1193C283.955 99.3428 283.322 99.4545 282.625 99.4545ZM282.58 94.6591C283.117 94.6591 283.572 94.536 283.943 94.2898C284.314 94.0436 284.597 93.6894 284.79 93.2273C284.983 92.7652 285.08 92.2121 285.08 91.5682C285.08 90.9394 284.985 90.3845 284.795 89.9034C284.606 89.4223 284.326 89.0455 283.955 88.7727C283.583 88.5 283.125 88.3636 282.58 88.3636C282.011 88.3636 281.538 88.5076 281.159 88.7955C280.784 89.0833 280.502 89.4697 280.312 89.9545C280.127 90.4394 280.034 90.9773 280.034 91.5682C280.034 92.1742 280.129 92.7102 280.318 93.1761C280.511 93.6383 280.795 94.0019 281.17 94.267C281.549 94.5284 282.019 94.6591 282.58 94.6591ZM103.795 115.205C103.242 115.205 102.741 115.1 102.29 114.892C101.839 114.68 101.481 114.375 101.216 113.977C100.951 113.576 100.818 113.091 100.818 112.523C100.818 112.023 100.917 111.617 101.114 111.307C101.311 110.992 101.574 110.746 101.903 110.568C102.233 110.39 102.597 110.258 102.994 110.17C103.396 110.08 103.799 110.008 104.205 109.955C104.735 109.886 105.165 109.835 105.494 109.801C105.828 109.763 106.07 109.701 106.222 109.614C106.377 109.527 106.455 109.375 106.455 109.159V109.114C106.455 108.553 106.301 108.117 105.994 107.807C105.691 107.496 105.231 107.341 104.614 107.341C103.973 107.341 103.472 107.481 103.108 107.761C102.744 108.042 102.489 108.341 102.341 108.659L101.068 108.205C101.295 107.674 101.598 107.261 101.977 106.966C102.36 106.667 102.777 106.458 103.227 106.341C103.682 106.22 104.129 106.159 104.568 106.159C104.848 106.159 105.17 106.193 105.534 106.261C105.902 106.326 106.256 106.46 106.597 106.665C106.941 106.869 107.227 107.178 107.455 107.591C107.682 108.004 107.795 108.557 107.795 109.25V115H106.455V113.818H106.386C106.295 114.008 106.144 114.21 105.932 114.426C105.72 114.642 105.438 114.826 105.085 114.977C104.733 115.129 104.303 115.205 103.795 115.205ZM104 114C104.53 114 104.977 113.896 105.341 113.688C105.708 113.479 105.985 113.21 106.17 112.881C106.36 112.551 106.455 112.205 106.455 111.841V110.614C106.398 110.682 106.273 110.744 106.08 110.801C105.89 110.854 105.67 110.902 105.42 110.943C105.174 110.981 104.934 111.015 104.699 111.045C104.468 111.072 104.28 111.095 104.136 111.114C103.788 111.159 103.462 111.233 103.159 111.335C102.86 111.434 102.617 111.583 102.432 111.784C102.25 111.981 102.159 112.25 102.159 112.591C102.159 113.057 102.331 113.409 102.676 113.648C103.025 113.883 103.466 114 104 114ZM113.788 115.182C112.97 115.182 112.266 114.989 111.675 114.602C111.084 114.216 110.629 113.684 110.311 113.006C109.993 112.328 109.834 111.553 109.834 110.682C109.834 109.795 109.997 109.013 110.322 108.335C110.652 107.653 111.11 107.121 111.697 106.739C112.288 106.352 112.978 106.159 113.766 106.159C114.379 106.159 114.932 106.273 115.425 106.5C115.917 106.727 116.321 107.045 116.635 107.455C116.949 107.864 117.144 108.341 117.22 108.886H115.879C115.777 108.489 115.55 108.136 115.197 107.83C114.849 107.519 114.379 107.364 113.788 107.364C113.266 107.364 112.807 107.5 112.413 107.773C112.023 108.042 111.718 108.422 111.499 108.915C111.283 109.403 111.175 109.977 111.175 110.636C111.175 111.311 111.281 111.898 111.493 112.398C111.709 112.898 112.012 113.286 112.402 113.562C112.796 113.839 113.258 113.977 113.788 113.977C114.137 113.977 114.453 113.917 114.737 113.795C115.021 113.674 115.262 113.5 115.459 113.273C115.656 113.045 115.796 112.773 115.879 112.455H117.22C117.144 112.97 116.957 113.434 116.658 113.847C116.362 114.256 115.97 114.581 115.482 114.824C114.997 115.062 114.432 115.182 113.788 115.182ZM119.18 115V106.273H120.476V107.591H120.567C120.726 107.159 121.014 106.809 121.43 106.54C121.847 106.271 122.317 106.136 122.839 106.136C122.938 106.136 123.061 106.138 123.209 106.142C123.357 106.146 123.468 106.152 123.544 106.159V107.523C123.499 107.511 123.394 107.494 123.232 107.472C123.072 107.445 122.904 107.432 122.726 107.432C122.302 107.432 121.923 107.521 121.589 107.699C121.26 107.873 120.999 108.116 120.805 108.426C120.616 108.733 120.521 109.083 120.521 109.477V115H119.18ZM128.413 115.182C127.625 115.182 126.934 114.994 126.339 114.619C125.749 114.244 125.286 113.72 124.953 113.045C124.624 112.371 124.459 111.583 124.459 110.682C124.459 109.773 124.624 108.979 124.953 108.301C125.286 107.623 125.749 107.097 126.339 106.722C126.934 106.347 127.625 106.159 128.413 106.159C129.201 106.159 129.891 106.347 130.482 106.722C131.076 107.097 131.538 107.623 131.868 108.301C132.201 108.979 132.368 109.773 132.368 110.682C132.368 111.583 132.201 112.371 131.868 113.045C131.538 113.72 131.076 114.244 130.482 114.619C129.891 114.994 129.201 115.182 128.413 115.182ZM128.413 113.977C129.012 113.977 129.504 113.824 129.891 113.517C130.277 113.21 130.563 112.807 130.749 112.307C130.934 111.807 131.027 111.265 131.027 110.682C131.027 110.098 130.934 109.555 130.749 109.051C130.563 108.547 130.277 108.14 129.891 107.83C129.504 107.519 129.012 107.364 128.413 107.364C127.815 107.364 127.322 107.519 126.936 107.83C126.55 108.14 126.264 108.547 126.078 109.051C125.893 109.555 125.8 110.098 125.8 110.682C125.8 111.265 125.893 111.807 126.078 112.307C126.264 112.807 126.55 113.21 126.936 113.517C127.322 113.824 127.815 113.977 128.413 113.977ZM140.597 108.227L139.392 108.568C139.316 108.367 139.205 108.172 139.057 107.983C138.913 107.79 138.716 107.631 138.466 107.506C138.216 107.381 137.896 107.318 137.506 107.318C136.972 107.318 136.527 107.441 136.17 107.688C135.818 107.93 135.642 108.239 135.642 108.614C135.642 108.947 135.763 109.21 136.006 109.403C136.248 109.597 136.627 109.758 137.142 109.886L138.438 110.205C139.218 110.394 139.799 110.684 140.182 111.074C140.564 111.46 140.756 111.958 140.756 112.568C140.756 113.068 140.612 113.515 140.324 113.909C140.04 114.303 139.642 114.614 139.131 114.841C138.619 115.068 138.025 115.182 137.347 115.182C136.456 115.182 135.72 114.989 135.136 114.602C134.553 114.216 134.184 113.652 134.028 112.909L135.301 112.591C135.422 113.061 135.652 113.413 135.989 113.648C136.33 113.883 136.775 114 137.324 114C137.949 114 138.445 113.867 138.812 113.602C139.184 113.333 139.369 113.011 139.369 112.636C139.369 112.333 139.263 112.08 139.051 111.875C138.839 111.667 138.513 111.511 138.074 111.409L136.619 111.068C135.82 110.879 135.233 110.585 134.858 110.188C134.487 109.786 134.301 109.284 134.301 108.682C134.301 108.189 134.439 107.754 134.716 107.375C134.996 106.996 135.377 106.699 135.858 106.483C136.343 106.267 136.892 106.159 137.506 106.159C138.369 106.159 139.047 106.348 139.54 106.727C140.036 107.106 140.388 107.606 140.597 108.227ZM148.956 108.227L147.751 108.568C147.676 108.367 147.564 108.172 147.416 107.983C147.272 107.79 147.075 107.631 146.825 107.506C146.575 107.381 146.255 107.318 145.865 107.318C145.331 107.318 144.886 107.441 144.53 107.688C144.178 107.93 144.001 108.239 144.001 108.614C144.001 108.947 144.123 109.21 144.365 109.403C144.607 109.597 144.986 109.758 145.501 109.886L146.797 110.205C147.577 110.394 148.159 110.684 148.541 111.074C148.924 111.46 149.115 111.958 149.115 112.568C149.115 113.068 148.971 113.515 148.683 113.909C148.399 114.303 148.001 114.614 147.49 114.841C146.979 115.068 146.384 115.182 145.706 115.182C144.816 115.182 144.079 114.989 143.496 114.602C142.912 114.216 142.543 113.652 142.388 112.909L143.661 112.591C143.782 113.061 144.011 113.413 144.348 113.648C144.689 113.883 145.134 114 145.683 114C146.308 114 146.804 113.867 147.172 113.602C147.543 113.333 147.729 113.011 147.729 112.636C147.729 112.333 147.623 112.08 147.411 111.875C147.198 111.667 146.873 111.511 146.433 111.409L144.979 111.068C144.179 110.879 143.592 110.585 143.217 110.188C142.846 109.786 142.661 109.284 142.661 108.682C142.661 108.189 142.799 107.754 143.075 107.375C143.356 106.996 143.736 106.699 144.217 106.483C144.702 106.267 145.251 106.159 145.865 106.159C146.729 106.159 147.407 106.348 147.899 106.727C148.395 107.106 148.748 107.606 148.956 108.227ZM157.224 103.364V115H155.815V103.364H157.224ZM161.209 109.75V115H159.868V106.273H161.163V107.636H161.277C161.482 107.193 161.792 106.837 162.209 106.568C162.625 106.295 163.163 106.159 163.822 106.159C164.413 106.159 164.93 106.28 165.374 106.523C165.817 106.761 166.161 107.125 166.408 107.614C166.654 108.098 166.777 108.712 166.777 109.455V115H165.436V109.545C165.436 108.86 165.258 108.326 164.902 107.943C164.546 107.557 164.057 107.364 163.436 107.364C163.008 107.364 162.625 107.456 162.288 107.642C161.955 107.828 161.692 108.098 161.499 108.455C161.305 108.811 161.209 109.242 161.209 109.75ZM172.523 115.182C171.795 115.182 171.153 114.998 170.597 114.631C170.04 114.259 169.604 113.737 169.29 113.062C168.975 112.384 168.818 111.583 168.818 110.659C168.818 109.742 168.975 108.947 169.29 108.273C169.604 107.598 170.042 107.078 170.602 106.71C171.163 106.343 171.811 106.159 172.545 106.159C173.114 106.159 173.563 106.254 173.892 106.443C174.225 106.629 174.479 106.841 174.653 107.08C174.831 107.314 174.97 107.508 175.068 107.659H175.182V103.364H176.523V115H175.227V113.659H175.068C174.97 113.818 174.83 114.019 174.648 114.261C174.466 114.5 174.206 114.714 173.869 114.903C173.532 115.089 173.083 115.182 172.523 115.182ZM172.705 113.977C173.242 113.977 173.697 113.837 174.068 113.557C174.439 113.273 174.722 112.881 174.915 112.381C175.108 111.877 175.205 111.295 175.205 110.636C175.205 109.985 175.11 109.415 174.92 108.926C174.731 108.434 174.451 108.051 174.08 107.778C173.708 107.502 173.25 107.364 172.705 107.364C172.136 107.364 171.663 107.509 171.284 107.801C170.909 108.089 170.627 108.481 170.438 108.977C170.252 109.47 170.159 110.023 170.159 110.636C170.159 111.258 170.254 111.822 170.443 112.33C170.636 112.833 170.92 113.235 171.295 113.534C171.674 113.83 172.144 113.977 172.705 113.977ZM179.165 115V106.273H180.506V115H179.165ZM179.847 104.818C179.585 104.818 179.36 104.729 179.17 104.551C178.985 104.373 178.892 104.159 178.892 103.909C178.892 103.659 178.985 103.445 179.17 103.267C179.36 103.089 179.585 103 179.847 103C180.108 103 180.331 103.089 180.517 103.267C180.706 103.445 180.801 103.659 180.801 103.909C180.801 104.159 180.706 104.373 180.517 104.551C180.331 104.729 180.108 104.818 179.847 104.818ZM185.53 115.205C184.977 115.205 184.475 115.1 184.024 114.892C183.573 114.68 183.215 114.375 182.95 113.977C182.685 113.576 182.553 113.091 182.553 112.523C182.553 112.023 182.651 111.617 182.848 111.307C183.045 110.992 183.308 110.746 183.638 110.568C183.967 110.39 184.331 110.258 184.729 110.17C185.13 110.08 185.534 110.008 185.939 109.955C186.469 109.886 186.899 109.835 187.229 109.801C187.562 109.763 187.804 109.701 187.956 109.614C188.111 109.527 188.189 109.375 188.189 109.159V109.114C188.189 108.553 188.036 108.117 187.729 107.807C187.426 107.496 186.965 107.341 186.348 107.341C185.708 107.341 185.206 107.481 184.842 107.761C184.479 108.042 184.223 108.341 184.075 108.659L182.803 108.205C183.03 107.674 183.333 107.261 183.712 106.966C184.094 106.667 184.511 106.458 184.962 106.341C185.416 106.22 185.863 106.159 186.303 106.159C186.583 106.159 186.905 106.193 187.268 106.261C187.636 106.326 187.99 106.46 188.331 106.665C188.676 106.869 188.962 107.178 189.189 107.591C189.416 108.004 189.53 108.557 189.53 109.25V115H188.189V113.818H188.121C188.03 114.008 187.878 114.21 187.666 114.426C187.454 114.642 187.172 114.826 186.82 114.977C186.467 115.129 186.037 115.205 185.53 115.205ZM185.734 114C186.265 114 186.712 113.896 187.075 113.688C187.443 113.479 187.719 113.21 187.905 112.881C188.094 112.551 188.189 112.205 188.189 111.841V110.614C188.132 110.682 188.007 110.744 187.814 110.801C187.625 110.854 187.405 110.902 187.155 110.943C186.909 110.981 186.668 111.015 186.433 111.045C186.202 111.072 186.015 111.095 185.871 111.114C185.522 111.159 185.196 111.233 184.893 111.335C184.594 111.434 184.352 111.583 184.166 111.784C183.984 111.981 183.893 112.25 183.893 112.591C183.893 113.057 184.066 113.409 184.411 113.648C184.759 113.883 185.2 114 185.734 114ZM192.955 115.091C192.674 115.091 192.434 114.991 192.233 114.79C192.032 114.589 191.932 114.348 191.932 114.068C191.932 113.788 192.032 113.547 192.233 113.347C192.434 113.146 192.674 113.045 192.955 113.045C193.235 113.045 193.475 113.146 193.676 113.347C193.877 113.547 193.977 113.788 193.977 114.068C193.977 114.254 193.93 114.424 193.835 114.58C193.744 114.735 193.621 114.86 193.466 114.955C193.314 115.045 193.144 115.091 192.955 115.091Z" fill="black"/>
<rect x="315" y="90" width="20" height="20" rx="4" transform="rotate(-45 315 90)" fill="white"/>
</g>
<defs>
<filter id="filter0_d_8_515" x="0" y="0" width="391.627" height="189" filterUnits="userSpaceOnUse" color-interpolation-filters="sRGB">
<feFlood flood-opacity="0" result="BackgroundImageFix"/>
<feColorMatrix in="SourceAlpha" type="matrix" values="0 0 0 0 0 0 0 0 0 0 0 0 0 0 0 0 0 0 127 0" result="hardAlpha"/>
<feOffset dy="4"/>
<feGaussianBlur stdDeviation="25"/>
<feComposite in2="hardAlpha" operator="out"/>
<feColorMatrix type="matrix" values="0 0 0 0 0 0 0 0 0 0.262745 0 0 0 0 0.396078 0 0 0 0.12 0"/>
<feBlend mode="normal" in2="BackgroundImageFix" result="effect1_dropShadow_8_515"/>
<feBlend mode="normal" in="SourceGraphic" in2="effect1_dropShadow_8_515" result="shape"/>
</filter>
<clipPath id="clip0_8_515">
<rect width="24" height="24" fill="white" transform="translate(66 78.5)"/>
</clipPath>
</defs>
</svg>
