<svg width="382" height="199" viewBox="0 0 382 199" fill="none" xmlns="http://www.w3.org/2000/svg">
<g filter="url(#filter0_d_8_508)">
<rect x="50" y="46" width="282" height="89" rx="10" fill="white" shape-rendering="crispEdges"/>
<path d="M66.7727 66.6136V65.3636H75.5V66.6136H71.8409V77H70.4318V66.6136H66.7727ZM79.7727 77.1818C78.9848 77.1818 78.2936 76.9943 77.6989 76.6193C77.108 76.2443 76.6458 75.7197 76.3125 75.0455C75.983 74.3712 75.8182 73.5833 75.8182 72.6818C75.8182 71.7727 75.983 70.9792 76.3125 70.3011C76.6458 69.6231 77.108 69.0966 77.6989 68.7216C78.2936 68.3466 78.9848 68.1591 79.7727 68.1591C80.5606 68.1591 81.25 68.3466 81.8409 68.7216C82.4356 69.0966 82.8977 69.6231 83.2273 70.3011C83.5606 70.9792 83.7273 71.7727 83.7273 72.6818C83.7273 73.5833 83.5606 74.3712 83.2273 75.0455C82.8977 75.7197 82.4356 76.2443 81.8409 76.6193C81.25 76.9943 80.5606 77.1818 79.7727 77.1818ZM79.7727 75.9773C80.3712 75.9773 80.8636 75.8239 81.25 75.517C81.6364 75.2102 81.9223 74.8068 82.108 74.3068C82.2936 73.8068 82.3864 73.2652 82.3864 72.6818C82.3864 72.0985 82.2936 71.5549 82.108 71.0511C81.9223 70.5473 81.6364 70.1402 81.25 69.8295C80.8636 69.5189 80.3712 69.3636 79.7727 69.3636C79.1742 69.3636 78.6818 69.5189 78.2955 69.8295C77.9091 70.1402 77.6231 70.5473 77.4375 71.0511C77.2519 71.5549 77.1591 72.0985 77.1591 72.6818C77.1591 73.2652 77.2519 73.8068 77.4375 74.3068C77.6231 74.8068 77.9091 75.2102 78.2955 75.517C78.6818 75.8239 79.1742 75.9773 79.7727 75.9773ZM90.2741 77V68.2727H91.5696V69.6364H91.6832C91.8651 69.1705 92.1586 68.8087 92.5639 68.5511C92.9692 68.2898 93.456 68.1591 94.0241 68.1591C94.5999 68.1591 95.0791 68.2898 95.4616 68.5511C95.848 68.8087 96.1491 69.1705 96.3651 69.6364H96.456C96.6795 69.1856 97.0147 68.8277 97.4616 68.5625C97.9086 68.2936 98.4446 68.1591 99.0696 68.1591C99.8499 68.1591 100.488 68.4034 100.984 68.892C101.481 69.3769 101.729 70.1326 101.729 71.1591V77H100.388V71.1591C100.388 70.5152 100.212 70.0549 99.8594 69.7784C99.5071 69.5019 99.0923 69.3636 98.6151 69.3636C98.0014 69.3636 97.526 69.5492 97.1889 69.9205C96.8518 70.2879 96.6832 70.7538 96.6832 71.3182V77H95.3196V71.0227C95.3196 70.5265 95.1586 70.1269 94.8366 69.8239C94.5147 69.517 94.0999 69.3636 93.5923 69.3636C93.2438 69.3636 92.9181 69.4564 92.6151 69.642C92.3158 69.8277 92.0734 70.0852 91.8878 70.4148C91.706 70.7405 91.6151 71.1174 91.6151 71.5455V77H90.2741ZM106.749 77.2045C106.196 77.2045 105.694 77.1004 105.243 76.892C104.792 76.6799 104.434 76.375 104.169 75.9773C103.904 75.5758 103.771 75.0909 103.771 74.5227C103.771 74.0227 103.87 73.6174 104.067 73.3068C104.264 72.9924 104.527 72.7462 104.857 72.5682C105.186 72.3902 105.55 72.2576 105.947 72.1705C106.349 72.0795 106.752 72.0076 107.158 71.9545C107.688 71.8864 108.118 71.8352 108.447 71.8011C108.781 71.7633 109.023 71.7008 109.175 71.6136C109.33 71.5265 109.408 71.375 109.408 71.1591V71.1136C109.408 70.553 109.254 70.1174 108.947 69.8068C108.644 69.4962 108.184 69.3409 107.567 69.3409C106.927 69.3409 106.425 69.4811 106.061 69.7614C105.697 70.0417 105.442 70.3409 105.294 70.6591L104.021 70.2045C104.249 69.6742 104.552 69.2614 104.93 68.9659C105.313 68.6667 105.73 68.4583 106.18 68.3409C106.635 68.2197 107.082 68.1591 107.521 68.1591C107.802 68.1591 108.124 68.1932 108.487 68.2614C108.855 68.3258 109.209 68.4602 109.55 68.6648C109.894 68.8693 110.18 69.178 110.408 69.5909C110.635 70.0038 110.749 70.5568 110.749 71.25V77H109.408V75.8182H109.339C109.249 76.0076 109.097 76.2102 108.885 76.4261C108.673 76.642 108.391 76.8258 108.038 76.9773C107.686 77.1288 107.256 77.2045 106.749 77.2045ZM106.953 76C107.483 76 107.93 75.8958 108.294 75.6875C108.661 75.4792 108.938 75.2102 109.124 74.8807C109.313 74.5511 109.408 74.2045 109.408 73.8409V72.6136C109.351 72.6818 109.226 72.7443 109.033 72.8011C108.843 72.8542 108.624 72.9015 108.374 72.9432C108.127 72.9811 107.887 73.0152 107.652 73.0455C107.421 73.072 107.233 73.0947 107.089 73.1136C106.741 73.1591 106.415 73.233 106.112 73.3352C105.813 73.4337 105.571 73.5833 105.385 73.7841C105.203 73.9811 105.112 74.25 105.112 74.5909C105.112 75.0568 105.285 75.4091 105.629 75.6477C105.978 75.8826 106.419 76 106.953 76ZM114.446 73.8182L114.423 72.1591H114.696L118.514 68.2727H120.173L116.105 72.3864H115.991L114.446 73.8182ZM113.196 77V65.3636H114.537V77H113.196ZM118.741 77L115.332 72.6818L116.287 71.75L120.446 77H118.741ZM125.199 77.1818C124.358 77.1818 123.633 76.9962 123.023 76.625C122.417 76.25 121.949 75.7273 121.619 75.0568C121.294 74.3826 121.131 73.5985 121.131 72.7045C121.131 71.8106 121.294 71.0227 121.619 70.3409C121.949 69.6553 122.407 69.1212 122.994 68.7386C123.585 68.3523 124.275 68.1591 125.062 68.1591C125.517 68.1591 125.966 68.2348 126.409 68.3864C126.852 68.5379 127.256 68.7841 127.619 69.125C127.983 69.4621 128.273 69.9091 128.489 70.4659C128.705 71.0227 128.812 71.7083 128.812 72.5227V73.0909H122.085V71.9318H127.449C127.449 71.4394 127.35 71 127.153 70.6136C126.96 70.2273 126.684 69.9223 126.324 69.6989C125.968 69.4754 125.547 69.3636 125.062 69.3636C124.528 69.3636 124.066 69.4962 123.676 69.7614C123.29 70.0227 122.992 70.3636 122.784 70.7841C122.576 71.2045 122.472 71.6553 122.472 72.1364V72.9091C122.472 73.5682 122.585 74.1269 122.812 74.5852C123.044 75.0398 123.364 75.3864 123.773 75.625C124.182 75.8598 124.657 75.9773 125.199 75.9773C125.551 75.9773 125.869 75.928 126.153 75.8295C126.441 75.7273 126.689 75.5758 126.898 75.375C127.106 75.1705 127.267 74.9167 127.381 74.6136L128.676 74.9773C128.54 75.4167 128.311 75.803 127.989 76.1364C127.667 76.4659 127.269 76.7235 126.795 76.9091C126.322 77.0909 125.79 77.1818 125.199 77.1818ZM141.534 70.2273L140.33 70.5682C140.254 70.3674 140.142 70.1723 139.994 69.983C139.85 69.7898 139.653 69.6307 139.403 69.5057C139.153 69.3807 138.833 69.3182 138.443 69.3182C137.909 69.3182 137.464 69.4413 137.108 69.6875C136.756 69.9299 136.58 70.2386 136.58 70.6136C136.58 70.947 136.701 71.2102 136.943 71.4034C137.186 71.5966 137.564 71.7576 138.08 71.8864L139.375 72.2045C140.155 72.3939 140.737 72.6837 141.119 73.0739C141.502 73.4602 141.693 73.9583 141.693 74.5682C141.693 75.0682 141.549 75.5152 141.261 75.9091C140.977 76.303 140.58 76.6136 140.068 76.8409C139.557 77.0682 138.962 77.1818 138.284 77.1818C137.394 77.1818 136.657 76.9886 136.074 76.6023C135.491 76.2159 135.121 75.6515 134.966 74.9091L136.239 74.5909C136.36 75.0606 136.589 75.4129 136.926 75.6477C137.267 75.8826 137.712 76 138.261 76C138.886 76 139.383 75.8674 139.75 75.6023C140.121 75.3333 140.307 75.0114 140.307 74.6364C140.307 74.3333 140.201 74.0795 139.989 73.875C139.777 73.6667 139.451 73.5114 139.011 73.4091L137.557 73.0682C136.758 72.8788 136.17 72.5852 135.795 72.1875C135.424 71.786 135.239 71.2841 135.239 70.6818C135.239 70.1894 135.377 69.7538 135.653 69.375C135.934 68.9962 136.314 68.6989 136.795 68.483C137.28 68.267 137.83 68.1591 138.443 68.1591C139.307 68.1591 139.985 68.3485 140.477 68.7273C140.973 69.1061 141.326 69.6061 141.534 70.2273ZM149.212 73.4318V68.2727H150.553V77H149.212V75.5227H149.121C148.916 75.9659 148.598 76.3428 148.166 76.6534C147.734 76.9602 147.189 77.1136 146.53 77.1136C145.984 77.1136 145.5 76.9943 145.075 76.7557C144.651 76.5133 144.318 76.1496 144.075 75.6648C143.833 75.1761 143.712 74.5606 143.712 73.8182V68.2727H145.053V73.7273C145.053 74.3636 145.231 74.8712 145.587 75.25C145.946 75.6288 146.405 75.8182 146.962 75.8182C147.295 75.8182 147.634 75.733 147.979 75.5625C148.327 75.392 148.619 75.1307 148.854 74.7784C149.092 74.4261 149.212 73.9773 149.212 73.4318ZM153.009 77V68.2727H154.304V69.5909H154.395C154.554 69.1591 154.842 68.8087 155.259 68.5398C155.675 68.2708 156.145 68.1364 156.668 68.1364C156.766 68.1364 156.889 68.1383 157.037 68.142C157.185 68.1458 157.296 68.1515 157.372 68.1591V69.5227C157.327 69.5114 157.223 69.4943 157.06 69.4716C156.901 69.4451 156.732 69.4318 156.554 69.4318C156.13 69.4318 155.751 69.5208 155.418 69.6989C155.088 69.8731 154.827 70.1155 154.634 70.4261C154.444 70.733 154.349 71.0833 154.349 71.4773V77H153.009ZM162.355 77.1818C161.514 77.1818 160.789 76.9962 160.179 76.625C159.573 76.25 159.105 75.7273 158.776 75.0568C158.45 74.3826 158.287 73.5985 158.287 72.7045C158.287 71.8106 158.45 71.0227 158.776 70.3409C159.105 69.6553 159.563 69.1212 160.151 68.7386C160.741 68.3523 161.431 68.1591 162.219 68.1591C162.673 68.1591 163.122 68.2348 163.565 68.3864C164.009 68.5379 164.412 68.7841 164.776 69.125C165.139 69.4621 165.429 69.9091 165.645 70.4659C165.861 71.0227 165.969 71.7083 165.969 72.5227V73.0909H159.241V71.9318H164.605C164.605 71.4394 164.507 71 164.31 70.6136C164.116 70.2273 163.84 69.9223 163.48 69.6989C163.124 69.4754 162.704 69.3636 162.219 69.3636C161.685 69.3636 161.223 69.4962 160.832 69.7614C160.446 70.0227 160.149 70.3636 159.94 70.7841C159.732 71.2045 159.628 71.6553 159.628 72.1364V72.9091C159.628 73.5682 159.741 74.1269 159.969 74.5852C160.2 75.0398 160.52 75.3864 160.929 75.625C161.338 75.8598 161.813 75.9773 162.355 75.9773C162.707 75.9773 163.026 75.928 163.31 75.8295C163.598 75.7273 163.846 75.5758 164.054 75.375C164.262 75.1705 164.423 74.9167 164.537 74.6136L165.832 74.9773C165.696 75.4167 165.467 75.803 165.145 76.1364C164.823 76.4659 164.425 76.7235 163.952 76.9091C163.478 77.0909 162.946 77.1818 162.355 77.1818ZM173.372 80.2727C173.145 80.2727 172.942 80.2538 172.764 80.2159C172.586 80.1818 172.463 80.1477 172.395 80.1136L172.736 78.9318C173.062 79.0152 173.349 79.0455 173.599 79.0227C173.849 79 174.071 78.8883 174.264 78.6875C174.461 78.4905 174.641 78.1705 174.804 77.7273L175.054 77.0455L171.827 68.2727H173.281L175.69 75.2273H175.781L178.19 68.2727H179.645L175.94 78.2727C175.774 78.7235 175.567 79.0966 175.321 79.392C175.075 79.6913 174.789 79.9129 174.463 80.0568C174.141 80.2008 173.777 80.2727 173.372 80.2727ZM184.648 77.1818C183.86 77.1818 183.169 76.9943 182.574 76.6193C181.983 76.2443 181.521 75.7197 181.188 75.0455C180.858 74.3712 180.693 73.5833 180.693 72.6818C180.693 71.7727 180.858 70.9792 181.188 70.3011C181.521 69.6231 181.983 69.0966 182.574 68.7216C183.169 68.3466 183.86 68.1591 184.648 68.1591C185.436 68.1591 186.125 68.3466 186.716 68.7216C187.311 69.0966 187.773 69.6231 188.102 70.3011C188.436 70.9792 188.602 71.7727 188.602 72.6818C188.602 73.5833 188.436 74.3712 188.102 75.0455C187.773 75.7197 187.311 76.2443 186.716 76.6193C186.125 76.9943 185.436 77.1818 184.648 77.1818ZM184.648 75.9773C185.246 75.9773 185.739 75.8239 186.125 75.517C186.511 75.2102 186.797 74.8068 186.983 74.3068C187.169 73.8068 187.261 73.2652 187.261 72.6818C187.261 72.0985 187.169 71.5549 186.983 71.0511C186.797 70.5473 186.511 70.1402 186.125 69.8295C185.739 69.5189 185.246 69.3636 184.648 69.3636C184.049 69.3636 183.557 69.5189 183.17 69.8295C182.784 70.1402 182.498 70.5473 182.312 71.0511C182.127 71.5549 182.034 72.0985 182.034 72.6818C182.034 73.2652 182.127 73.8068 182.312 74.3068C182.498 74.8068 182.784 75.2102 183.17 75.517C183.557 75.8239 184.049 75.9773 184.648 75.9773ZM196.149 73.4318V68.2727H197.49V77H196.149V75.5227H196.058C195.854 75.9659 195.536 76.3428 195.104 76.6534C194.672 76.9602 194.126 77.1136 193.467 77.1136C192.922 77.1136 192.437 76.9943 192.013 76.7557C191.589 76.5133 191.255 76.1496 191.013 75.6648C190.77 75.1761 190.649 74.5606 190.649 73.8182V68.2727H191.99V73.7273C191.99 74.3636 192.168 74.8712 192.524 75.25C192.884 75.6288 193.342 75.8182 193.899 75.8182C194.232 75.8182 194.571 75.733 194.916 75.5625C195.265 75.392 195.556 75.1307 195.791 74.7784C196.03 74.4261 196.149 73.9773 196.149 73.4318ZM207.969 80.4545C207.321 80.4545 206.764 80.3712 206.298 80.2045C205.832 80.0417 205.444 79.8258 205.134 79.5568C204.827 79.2917 204.582 79.0076 204.401 78.7045L205.469 77.9545C205.59 78.1136 205.743 78.2955 205.929 78.5C206.115 78.7083 206.368 78.8883 206.69 79.0398C207.016 79.1951 207.442 79.2727 207.969 79.2727C208.673 79.2727 209.255 79.1023 209.713 78.7614C210.171 78.4205 210.401 77.8864 210.401 77.1591V75.3864H210.287C210.188 75.5455 210.048 75.7424 209.866 75.9773C209.688 76.2083 209.431 76.4148 209.094 76.5966C208.76 76.7746 208.31 76.8636 207.741 76.8636C207.037 76.8636 206.404 76.697 205.844 76.3636C205.287 76.0303 204.846 75.5455 204.52 74.9091C204.198 74.2727 204.037 73.5 204.037 72.5909C204.037 71.697 204.194 70.9186 204.509 70.2557C204.823 69.589 205.26 69.0739 205.821 68.7102C206.382 68.3428 207.029 68.1591 207.764 68.1591C208.332 68.1591 208.783 68.2538 209.116 68.4432C209.454 68.6288 209.711 68.8409 209.889 69.0795C210.071 69.3144 210.211 69.5076 210.31 69.6591H210.446V68.2727H211.741V77.25C211.741 78 211.571 78.6098 211.23 79.0795C210.893 79.553 210.438 79.8996 209.866 80.1193C209.298 80.3428 208.666 80.4545 207.969 80.4545ZM207.923 75.6591C208.461 75.6591 208.916 75.536 209.287 75.2898C209.658 75.0436 209.94 74.6894 210.134 74.2273C210.327 73.7652 210.423 73.2121 210.423 72.5682C210.423 71.9394 210.329 71.3845 210.139 70.9034C209.95 70.4223 209.67 70.0455 209.298 69.7727C208.927 69.5 208.469 69.3636 207.923 69.3636C207.355 69.3636 206.882 69.5076 206.503 69.7955C206.128 70.0833 205.846 70.4697 205.656 70.9545C205.471 71.4394 205.378 71.9773 205.378 72.5682C205.378 73.1742 205.473 73.7102 205.662 74.1761C205.855 74.6383 206.139 75.0019 206.514 75.267C206.893 75.5284 207.363 75.6591 207.923 75.6591ZM217.855 77.1818C217.014 77.1818 216.289 76.9962 215.679 76.625C215.073 76.25 214.605 75.7273 214.276 75.0568C213.95 74.3826 213.787 73.5985 213.787 72.7045C213.787 71.8106 213.95 71.0227 214.276 70.3409C214.605 69.6553 215.063 69.1212 215.651 68.7386C216.241 68.3523 216.931 68.1591 217.719 68.1591C218.173 68.1591 218.622 68.2348 219.065 68.3864C219.509 68.5379 219.912 68.7841 220.276 69.125C220.639 69.4621 220.929 69.9091 221.145 70.4659C221.361 71.0227 221.469 71.7083 221.469 72.5227V73.0909H214.741V71.9318H220.105C220.105 71.4394 220.007 71 219.81 70.6136C219.616 70.2273 219.34 69.9223 218.98 69.6989C218.624 69.4754 218.204 69.3636 217.719 69.3636C217.185 69.3636 216.723 69.4962 216.332 69.7614C215.946 70.0227 215.649 70.3636 215.44 70.7841C215.232 71.2045 215.128 71.6553 215.128 72.1364V72.9091C215.128 73.5682 215.241 74.1269 215.469 74.5852C215.7 75.0398 216.02 75.3864 216.429 75.625C216.838 75.8598 217.313 75.9773 217.855 75.9773C218.207 75.9773 218.526 75.928 218.81 75.8295C219.098 75.7273 219.346 75.5758 219.554 75.375C219.762 75.1705 219.923 74.9167 220.037 74.6136L221.332 74.9773C221.196 75.4167 220.967 75.803 220.645 76.1364C220.323 76.4659 219.925 76.7235 219.452 76.9091C218.978 77.0909 218.446 77.1818 217.855 77.1818ZM227.304 68.2727V69.4091H222.781V68.2727H227.304ZM224.099 66.1818H225.44V74.5C225.44 74.8788 225.495 75.1629 225.605 75.3523C225.719 75.5379 225.863 75.6629 226.037 75.7273C226.215 75.7879 226.402 75.8182 226.599 75.8182C226.747 75.8182 226.868 75.8106 226.963 75.7955C227.058 75.7765 227.134 75.7614 227.19 75.75L227.463 76.9545C227.372 76.9886 227.245 77.0227 227.082 77.0568C226.92 77.0947 226.713 77.1136 226.463 77.1136C226.084 77.1136 225.713 77.0322 225.349 76.8693C224.99 76.7064 224.69 76.4583 224.452 76.125C224.217 75.7917 224.099 75.3712 224.099 74.8636V66.1818ZM237.616 68.2727V69.4091H233.094V68.2727H237.616ZM234.412 66.1818H235.753V74.5C235.753 74.8788 235.808 75.1629 235.918 75.3523C236.031 75.5379 236.175 75.6629 236.349 75.7273C236.527 75.7879 236.715 75.8182 236.912 75.8182C237.06 75.8182 237.181 75.8106 237.276 75.7955C237.37 75.7765 237.446 75.7614 237.503 75.75L237.776 76.9545C237.685 76.9886 237.558 77.0227 237.395 77.0568C237.232 77.0947 237.026 77.1136 236.776 77.1136C236.397 77.1136 236.026 77.0322 235.662 76.8693C235.302 76.7064 235.003 76.4583 234.764 76.125C234.529 75.7917 234.412 75.3712 234.412 74.8636V66.1818ZM241.162 71.75V77H239.821V65.3636H241.162V69.6364H241.276C241.48 69.1856 241.787 68.8277 242.196 68.5625C242.609 68.2936 243.158 68.1591 243.844 68.1591C244.438 68.1591 244.959 68.2784 245.406 68.517C245.853 68.7519 246.2 69.1136 246.446 69.6023C246.696 70.0871 246.821 70.7045 246.821 71.4545V77H245.48V71.5455C245.48 70.8523 245.3 70.3163 244.94 69.9375C244.584 69.5549 244.09 69.3636 243.457 69.3636C243.018 69.3636 242.624 69.4564 242.276 69.642C241.931 69.8277 241.658 70.0985 241.457 70.4545C241.26 70.8106 241.162 71.2424 241.162 71.75ZM252.933 77.1818C252.092 77.1818 251.367 76.9962 250.757 76.625C250.151 76.25 249.683 75.7273 249.354 75.0568C249.028 74.3826 248.865 73.5985 248.865 72.7045C248.865 71.8106 249.028 71.0227 249.354 70.3409C249.683 69.6553 250.142 69.1212 250.729 68.7386C251.32 68.3523 252.009 68.1591 252.797 68.1591C253.251 68.1591 253.7 68.2348 254.143 68.3864C254.587 68.5379 254.99 68.7841 255.354 69.125C255.717 69.4621 256.007 69.9091 256.223 70.4659C256.439 71.0227 256.547 71.7083 256.547 72.5227V73.0909H249.82V71.9318H255.183C255.183 71.4394 255.085 71 254.888 70.6136C254.695 70.2273 254.418 69.9223 254.058 69.6989C253.702 69.4754 253.282 69.3636 252.797 69.3636C252.263 69.3636 251.801 69.4962 251.411 69.7614C251.024 70.0227 250.727 70.3636 250.518 70.7841C250.31 71.2045 250.206 71.6553 250.206 72.1364V72.9091C250.206 73.5682 250.32 74.1269 250.547 74.5852C250.778 75.0398 251.098 75.3864 251.507 75.625C251.916 75.8598 252.392 75.9773 252.933 75.9773C253.286 75.9773 253.604 75.928 253.888 75.8295C254.176 75.7273 254.424 75.5758 254.632 75.375C254.84 75.1705 255.001 74.9167 255.115 74.6136L256.411 74.9773C256.274 75.4167 256.045 75.803 255.723 76.1364C255.401 76.4659 255.003 76.7235 254.53 76.9091C254.056 77.0909 253.524 77.1818 252.933 77.1818ZM67.4091 96V84.3636H68.75V88.6591H68.8636C68.9621 88.5076 69.0985 88.3144 69.2727 88.0795C69.4508 87.8409 69.7045 87.6288 70.0341 87.4432C70.3674 87.2538 70.8182 87.1591 71.3864 87.1591C72.1212 87.1591 72.7689 87.3428 73.3295 87.7102C73.8902 88.0777 74.3277 88.5985 74.642 89.2727C74.9564 89.947 75.1136 90.7424 75.1136 91.6591C75.1136 92.5833 74.9564 93.3845 74.642 94.0625C74.3277 94.7367 73.892 95.2595 73.3352 95.6307C72.7784 95.9981 72.1364 96.1818 71.4091 96.1818C70.8485 96.1818 70.3996 96.089 70.0625 95.9034C69.7254 95.714 69.4659 95.5 69.2841 95.2614C69.1023 95.0189 68.9621 94.8182 68.8636 94.6591H68.7045V96H67.4091ZM68.7273 91.6364C68.7273 92.2955 68.8239 92.8769 69.017 93.3807C69.2102 93.8807 69.4924 94.2727 69.8636 94.5568C70.2348 94.8371 70.6894 94.9773 71.2273 94.9773C71.7879 94.9773 72.2557 94.8295 72.6307 94.5341C73.0095 94.2348 73.2936 93.8333 73.483 93.3295C73.6761 92.822 73.7727 92.2576 73.7727 91.6364C73.7727 91.0227 73.678 90.4697 73.4886 89.9773C73.303 89.4811 73.0208 89.089 72.642 88.8011C72.267 88.5095 71.7955 88.3636 71.2273 88.3636C70.6818 88.3636 70.2235 88.5019 69.8523 88.7784C69.4811 89.0511 69.2008 89.4337 69.0114 89.9261C68.822 90.4148 68.7273 90.9848 68.7273 91.6364ZM80.8239 96.1818C79.983 96.1818 79.2576 95.9962 78.6477 95.625C78.0417 95.25 77.5739 94.7273 77.2443 94.0568C76.9186 93.3826 76.7557 92.5985 76.7557 91.7045C76.7557 90.8106 76.9186 90.0227 77.2443 89.3409C77.5739 88.6553 78.0322 88.1212 78.6193 87.7386C79.2102 87.3523 79.8996 87.1591 80.6875 87.1591C81.142 87.1591 81.5909 87.2348 82.0341 87.3864C82.4773 87.5379 82.8807 87.7841 83.2443 88.125C83.608 88.4621 83.8977 88.9091 84.1136 89.4659C84.3295 90.0227 84.4375 90.7083 84.4375 91.5227V92.0909H77.7102V90.9318H83.0739C83.0739 90.4394 82.9754 90 82.7784 89.6136C82.5852 89.2273 82.3087 88.9223 81.9489 88.6989C81.5928 88.4754 81.1723 88.3636 80.6875 88.3636C80.1534 88.3636 79.6913 88.4962 79.3011 88.7614C78.9148 89.0227 78.6174 89.3636 78.4091 89.7841C78.2008 90.2045 78.0966 90.6553 78.0966 91.1364V91.9091C78.0966 92.5682 78.2102 93.1269 78.4375 93.5852C78.6686 94.0398 78.9886 94.3864 79.3977 94.625C79.8068 94.8598 80.2822 94.9773 80.8239 94.9773C81.1761 94.9773 81.4943 94.928 81.7784 94.8295C82.0663 94.7273 82.3144 94.5758 82.5227 94.375C82.7311 94.1705 82.892 93.9167 83.0057 93.6136L84.3011 93.9773C84.1648 94.4167 83.9356 94.803 83.6136 95.1364C83.2917 95.4659 82.8939 95.7235 82.4205 95.9091C81.947 96.0909 81.4148 96.1818 80.8239 96.1818ZM92.6591 89.2273L91.4545 89.5682C91.3788 89.3674 91.267 89.1723 91.1193 88.983C90.9754 88.7898 90.7784 88.6307 90.5284 88.5057C90.2784 88.3807 89.9583 88.3182 89.5682 88.3182C89.0341 88.3182 88.589 88.4413 88.233 88.6875C87.8807 88.9299 87.7045 89.2386 87.7045 89.6136C87.7045 89.947 87.8258 90.2102 88.0682 90.4034C88.3106 90.5966 88.6894 90.7576 89.2045 90.8864L90.5 91.2045C91.2803 91.3939 91.8617 91.6837 92.2443 92.0739C92.6269 92.4602 92.8182 92.9583 92.8182 93.5682C92.8182 94.0682 92.6742 94.5152 92.3864 94.9091C92.1023 95.303 91.7045 95.6136 91.1932 95.8409C90.6818 96.0682 90.0871 96.1818 89.4091 96.1818C88.5189 96.1818 87.7822 95.9886 87.1989 95.6023C86.6155 95.2159 86.2462 94.6515 86.0909 93.9091L87.3636 93.5909C87.4848 94.0606 87.714 94.4129 88.0511 94.6477C88.392 94.8826 88.8371 95 89.3864 95C90.0114 95 90.5076 94.8674 90.875 94.6023C91.2462 94.3333 91.4318 94.0114 91.4318 93.6364C91.4318 93.3333 91.3258 93.0795 91.1136 92.875C90.9015 92.6667 90.5758 92.5114 90.1364 92.4091L88.6818 92.0682C87.8826 91.8788 87.2955 91.5852 86.9205 91.1875C86.5492 90.786 86.3636 90.2841 86.3636 89.6818C86.3636 89.1894 86.5019 88.7538 86.7784 88.375C87.0587 87.9962 87.4394 87.6989 87.9205 87.483C88.4053 87.267 88.9545 87.1591 89.5682 87.1591C90.4318 87.1591 91.1098 87.3485 91.6023 87.7273C92.0985 88.1061 92.4508 88.6061 92.6591 89.2273ZM98.6321 87.2727V88.4091H94.1094V87.2727H98.6321ZM95.4276 85.1818H96.7685V93.5C96.7685 93.8788 96.8234 94.1629 96.9332 94.3523C97.0469 94.5379 97.1908 94.6629 97.3651 94.7273C97.5431 94.7879 97.7306 94.8182 97.9276 94.8182C98.0753 94.8182 98.1965 94.8106 98.2912 94.7955C98.3859 94.7765 98.4616 94.7614 98.5185 94.75L98.7912 95.9545C98.7003 95.9886 98.5734 96.0227 98.4105 96.0568C98.2476 96.0947 98.0412 96.1136 97.7912 96.1136C97.4124 96.1136 97.0412 96.0322 96.6776 95.8693C96.3177 95.7064 96.0185 95.4583 95.7798 95.125C95.545 94.7917 95.4276 94.3712 95.4276 93.8636V85.1818ZM111.104 99.2727V94.6591H110.99C110.892 94.8182 110.751 95.0189 110.57 95.2614C110.388 95.5 110.128 95.714 109.791 95.9034C109.454 96.089 109.005 96.1818 108.445 96.1818C107.717 96.1818 107.075 95.9981 106.518 95.6307C105.962 95.2595 105.526 94.7367 105.212 94.0625C104.897 93.3845 104.74 92.5833 104.74 91.6591C104.74 90.7424 104.897 89.947 105.212 89.2727C105.526 88.5985 105.964 88.0777 106.524 87.7102C107.085 87.3428 107.732 87.1591 108.467 87.1591C109.036 87.1591 109.484 87.2538 109.814 87.4432C110.147 87.6288 110.401 87.8409 110.575 88.0795C110.753 88.3144 110.892 88.5076 110.99 88.6591H111.149V87.2727H112.445V99.2727H111.104ZM108.626 94.9773C109.164 94.9773 109.619 94.8371 109.99 94.5568C110.361 94.2727 110.643 93.8807 110.837 93.3807C111.03 92.8769 111.126 92.2955 111.126 91.6364C111.126 90.9848 111.032 90.4148 110.842 89.9261C110.653 89.4337 110.373 89.0511 110.001 88.7784C109.63 88.5019 109.172 88.3636 108.626 88.3636C108.058 88.3636 107.585 88.5095 107.206 88.8011C106.831 89.089 106.549 89.4811 106.359 89.9773C106.174 90.4697 106.081 91.0227 106.081 91.6364C106.081 92.2576 106.176 92.822 106.365 93.3295C106.558 93.8333 106.842 94.2348 107.217 94.5341C107.596 94.8295 108.066 94.9773 108.626 94.9773ZM120.399 92.4318V87.2727H121.74V96H120.399V94.5227H120.308C120.104 94.9659 119.786 95.3428 119.354 95.6534C118.922 95.9602 118.376 96.1136 117.717 96.1136C117.172 96.1136 116.687 95.9943 116.263 95.7557C115.839 95.5133 115.505 95.1496 115.263 94.6648C115.02 94.1761 114.899 93.5606 114.899 92.8182V87.2727H116.24V92.7273C116.24 93.3636 116.418 93.8712 116.774 94.25C117.134 94.6288 117.592 94.8182 118.149 94.8182C118.482 94.8182 118.821 94.733 119.166 94.5625C119.515 94.392 119.806 94.1307 120.041 93.7784C120.28 93.4261 120.399 92.9773 120.399 92.4318ZM126.764 96.2045C126.211 96.2045 125.709 96.1004 125.259 95.892C124.808 95.6799 124.45 95.375 124.185 94.9773C123.92 94.5758 123.787 94.0909 123.787 93.5227C123.787 93.0227 123.885 92.6174 124.082 92.3068C124.279 91.9924 124.543 91.7462 124.872 91.5682C125.202 91.3902 125.565 91.2576 125.963 91.1705C126.365 91.0795 126.768 91.0076 127.173 90.9545C127.704 90.8864 128.134 90.8352 128.463 90.8011C128.796 90.7633 129.039 90.7008 129.19 90.6136C129.346 90.5265 129.423 90.375 129.423 90.1591V90.1136C129.423 89.553 129.27 89.1174 128.963 88.8068C128.66 88.4962 128.2 88.3409 127.582 88.3409C126.942 88.3409 126.44 88.4811 126.077 88.7614C125.713 89.0417 125.457 89.3409 125.31 89.6591L124.037 89.2045C124.264 88.6742 124.567 88.2614 124.946 87.9659C125.329 87.6667 125.745 87.4583 126.196 87.3409C126.651 87.2197 127.098 87.1591 127.537 87.1591C127.817 87.1591 128.139 87.1932 128.503 87.2614C128.87 87.3258 129.224 87.4602 129.565 87.6648C129.91 87.8693 130.196 88.178 130.423 88.5909C130.651 89.0038 130.764 89.5568 130.764 90.25V96H129.423V94.8182H129.355C129.264 95.0076 129.113 95.2102 128.901 95.4261C128.688 95.642 128.406 95.8258 128.054 95.9773C127.702 96.1288 127.272 96.2045 126.764 96.2045ZM126.969 95C127.499 95 127.946 94.8958 128.31 94.6875C128.677 94.4792 128.954 94.2102 129.139 93.8807C129.329 93.5511 129.423 93.2045 129.423 92.8409V91.6136C129.366 91.6818 129.241 91.7443 129.048 91.8011C128.859 91.8542 128.639 91.9015 128.389 91.9432C128.143 91.9811 127.902 92.0152 127.668 92.0455C127.437 92.072 127.249 92.0947 127.105 92.1136C126.757 92.1591 126.431 92.233 126.128 92.3352C125.829 92.4337 125.586 92.5833 125.401 92.7841C125.219 92.9811 125.128 93.25 125.128 93.5909C125.128 94.0568 125.3 94.4091 125.645 94.6477C125.993 94.8826 126.435 95 126.969 95ZM134.553 84.3636V96H133.212V84.3636H134.553ZM137.009 96V87.2727H138.349V96H137.009ZM137.69 85.8182C137.429 85.8182 137.204 85.7292 137.014 85.5511C136.829 85.3731 136.736 85.1591 136.736 84.9091C136.736 84.6591 136.829 84.4451 137.014 84.267C137.204 84.089 137.429 84 137.69 84C137.952 84 138.175 84.089 138.361 84.267C138.55 84.4451 138.645 84.6591 138.645 84.9091C138.645 85.1591 138.55 85.3731 138.361 85.5511C138.175 85.7292 137.952 85.8182 137.69 85.8182ZM144.601 87.2727V88.4091H140.078V87.2727H144.601ZM141.396 85.1818H142.737V93.5C142.737 93.8788 142.792 94.1629 142.902 94.3523C143.016 94.5379 143.16 94.6629 143.334 94.7273C143.512 94.7879 143.699 94.8182 143.896 94.8182C144.044 94.8182 144.165 94.8106 144.26 94.7955C144.355 94.7765 144.43 94.7614 144.487 94.75L144.76 95.9545C144.669 95.9886 144.542 96.0227 144.379 96.0568C144.216 96.0947 144.01 96.1136 143.76 96.1136C143.381 96.1136 143.01 96.0322 142.646 95.8693C142.286 95.7064 141.987 95.4583 141.749 95.125C141.514 94.7917 141.396 94.3712 141.396 93.8636V85.1818ZM147.482 99.2727C147.254 99.2727 147.052 99.2538 146.874 99.2159C146.696 99.1818 146.572 99.1477 146.504 99.1136L146.845 97.9318C147.171 98.0152 147.459 98.0455 147.709 98.0227C147.959 98 148.18 97.8883 148.374 97.6875C148.571 97.4905 148.75 97.1705 148.913 96.7273L149.163 96.0455L145.936 87.2727H147.391L149.8 94.2273H149.891L152.3 87.2727H153.754L150.05 97.2727C149.883 97.7235 149.677 98.0966 149.43 98.392C149.184 98.6913 148.898 98.9129 148.572 99.0568C148.25 99.2008 147.887 99.2727 147.482 99.2727ZM160.024 99.2727V87.2727H161.32V88.6591H161.479C161.577 88.5076 161.714 88.3144 161.888 88.0795C162.066 87.8409 162.32 87.6288 162.649 87.4432C162.982 87.2538 163.433 87.1591 164.001 87.1591C164.736 87.1591 165.384 87.3428 165.945 87.7102C166.505 88.0777 166.943 88.5985 167.257 89.2727C167.571 89.947 167.729 90.7424 167.729 91.6591C167.729 92.5833 167.571 93.3845 167.257 94.0625C166.943 94.7367 166.507 95.2595 165.95 95.6307C165.393 95.9981 164.751 96.1818 164.024 96.1818C163.464 96.1818 163.015 96.089 162.678 95.9034C162.34 95.714 162.081 95.5 161.899 95.2614C161.717 95.0189 161.577 94.8182 161.479 94.6591H161.365V99.2727H160.024ZM161.342 91.6364C161.342 92.2955 161.439 92.8769 161.632 93.3807C161.825 93.8807 162.107 94.2727 162.479 94.5568C162.85 94.8371 163.304 94.9773 163.842 94.9773C164.403 94.9773 164.871 94.8295 165.246 94.5341C165.625 94.2348 165.909 93.8333 166.098 93.3295C166.291 92.822 166.388 92.2576 166.388 91.6364C166.388 91.0227 166.293 90.4697 166.104 89.9773C165.918 89.4811 165.636 89.089 165.257 88.8011C164.882 88.5095 164.411 88.3636 163.842 88.3636C163.297 88.3636 162.839 88.5019 162.467 88.7784C162.096 89.0511 161.816 89.4337 161.626 89.9261C161.437 90.4148 161.342 90.9848 161.342 91.6364ZM169.774 96V87.2727H171.07V88.5909H171.161C171.32 88.1591 171.607 87.8087 172.024 87.5398C172.441 87.2708 172.911 87.1364 173.433 87.1364C173.532 87.1364 173.655 87.1383 173.803 87.142C173.95 87.1458 174.062 87.1515 174.138 87.1591V88.5227C174.092 88.5114 173.988 88.4943 173.825 88.4716C173.666 88.4451 173.498 88.4318 173.32 88.4318C172.895 88.4318 172.517 88.5208 172.183 88.6989C171.854 88.8731 171.592 89.1155 171.399 89.4261C171.21 89.733 171.115 90.0833 171.115 90.4773V96H169.774ZM179.007 96.1818C178.219 96.1818 177.528 95.9943 176.933 95.6193C176.342 95.2443 175.88 94.7197 175.547 94.0455C175.217 93.3712 175.053 92.5833 175.053 91.6818C175.053 90.7727 175.217 89.9792 175.547 89.3011C175.88 88.6231 176.342 88.0966 176.933 87.7216C177.528 87.3466 178.219 87.1591 179.007 87.1591C179.795 87.1591 180.484 87.3466 181.075 87.7216C181.67 88.0966 182.132 88.6231 182.462 89.3011C182.795 89.9792 182.962 90.7727 182.962 91.6818C182.962 92.5833 182.795 93.3712 182.462 94.0455C182.132 94.7197 181.67 95.2443 181.075 95.6193C180.484 95.9943 179.795 96.1818 179.007 96.1818ZM179.007 94.9773C179.606 94.9773 180.098 94.8239 180.484 94.517C180.871 94.2102 181.157 93.8068 181.342 93.3068C181.528 92.8068 181.621 92.2652 181.621 91.6818C181.621 91.0985 181.528 90.5549 181.342 90.0511C181.157 89.5473 180.871 89.1402 180.484 88.8295C180.098 88.5189 179.606 88.3636 179.007 88.3636C178.409 88.3636 177.916 88.5189 177.53 88.8295C177.143 89.1402 176.857 89.5473 176.672 90.0511C176.486 90.5549 176.393 91.0985 176.393 91.6818C176.393 92.2652 176.486 92.8068 176.672 93.3068C176.857 93.8068 177.143 94.2102 177.53 94.517C177.916 94.8239 178.409 94.9773 179.007 94.9773ZM188.304 96.1818C187.577 96.1818 186.935 95.9981 186.378 95.6307C185.821 95.2595 185.385 94.7367 185.071 94.0625C184.757 93.3845 184.599 92.5833 184.599 91.6591C184.599 90.7424 184.757 89.947 185.071 89.2727C185.385 88.5985 185.823 88.0777 186.384 87.7102C186.944 87.3428 187.592 87.1591 188.327 87.1591C188.895 87.1591 189.344 87.2538 189.673 87.4432C190.007 87.6288 190.26 87.8409 190.435 88.0795C190.613 88.3144 190.751 88.5076 190.849 88.6591H190.963V84.3636H192.304V96H191.009V94.6591H190.849C190.751 94.8182 190.611 95.0189 190.429 95.2614C190.247 95.5 189.988 95.714 189.651 95.9034C189.313 96.089 188.865 96.1818 188.304 96.1818ZM188.486 94.9773C189.024 94.9773 189.478 94.8371 189.849 94.5568C190.221 94.2727 190.503 93.8807 190.696 93.3807C190.889 92.8769 190.986 92.2955 190.986 91.6364C190.986 90.9848 190.891 90.4148 190.702 89.9261C190.512 89.4337 190.232 89.0511 189.861 88.7784C189.49 88.5019 189.031 88.3636 188.486 88.3636C187.918 88.3636 187.444 88.5095 187.065 88.8011C186.69 89.089 186.408 89.4811 186.219 89.9773C186.033 90.4697 185.94 91.0227 185.94 91.6364C185.94 92.2576 186.035 92.822 186.224 93.3295C186.418 93.8333 186.702 94.2348 187.077 94.5341C187.455 94.8295 187.925 94.9773 188.486 94.9773ZM200.446 92.4318V87.2727H201.787V96H200.446V94.5227H200.355C200.151 94.9659 199.832 95.3428 199.401 95.6534C198.969 95.9602 198.423 96.1136 197.764 96.1136C197.219 96.1136 196.734 95.9943 196.31 95.7557C195.885 95.5133 195.552 95.1496 195.31 94.6648C195.067 94.1761 194.946 93.5606 194.946 92.8182V87.2727H196.287V92.7273C196.287 93.3636 196.465 93.8712 196.821 94.25C197.181 94.6288 197.639 94.8182 198.196 94.8182C198.529 94.8182 198.868 94.733 199.213 94.5625C199.562 94.392 199.853 94.1307 200.088 93.7784C200.327 93.4261 200.446 92.9773 200.446 92.4318ZM207.788 96.1818C206.97 96.1818 206.266 95.9886 205.675 95.6023C205.084 95.2159 204.629 94.6837 204.311 94.0057C203.993 93.3277 203.834 92.553 203.834 91.6818C203.834 90.7955 203.997 90.0133 204.322 89.3352C204.652 88.6534 205.11 88.1212 205.697 87.7386C206.288 87.3523 206.978 87.1591 207.766 87.1591C208.379 87.1591 208.932 87.2727 209.425 87.5C209.917 87.7273 210.321 88.0455 210.635 88.4545C210.949 88.8636 211.144 89.3409 211.22 89.8864H209.879C209.777 89.4886 209.55 89.1364 209.197 88.8295C208.849 88.5189 208.379 88.3636 207.788 88.3636C207.266 88.3636 206.807 88.5 206.413 88.7727C206.023 89.0417 205.718 89.4223 205.499 89.9148C205.283 90.4034 205.175 90.9773 205.175 91.6364C205.175 92.3106 205.281 92.8977 205.493 93.3977C205.709 93.8977 206.012 94.286 206.402 94.5625C206.796 94.839 207.258 94.9773 207.788 94.9773C208.137 94.9773 208.453 94.9167 208.737 94.7955C209.021 94.6742 209.262 94.5 209.459 94.2727C209.656 94.0455 209.796 93.7727 209.879 93.4545H211.22C211.144 93.9697 210.957 94.4337 210.658 94.8466C210.362 95.2557 209.97 95.5814 209.482 95.8239C208.997 96.0625 208.432 96.1818 207.788 96.1818ZM216.976 87.2727V88.4091H212.453V87.2727H216.976ZM213.771 85.1818H215.112V93.5C215.112 93.8788 215.167 94.1629 215.277 94.3523C215.391 94.5379 215.535 94.6629 215.709 94.7273C215.887 94.7879 216.074 94.8182 216.271 94.8182C216.419 94.8182 216.54 94.8106 216.635 94.7955C216.73 94.7765 216.805 94.7614 216.862 94.75L217.135 95.9545C217.044 95.9886 216.917 96.0227 216.754 96.0568C216.591 96.0947 216.385 96.1136 216.135 96.1136C215.756 96.1136 215.385 96.0322 215.021 95.8693C214.661 95.7064 214.362 95.4583 214.124 95.125C213.889 94.7917 213.771 94.3712 213.771 93.8636V85.1818ZM223.493 96V87.2727H224.834V96H223.493ZM224.175 85.8182C223.913 85.8182 223.688 85.7292 223.499 85.5511C223.313 85.3731 223.22 85.1591 223.22 84.9091C223.22 84.6591 223.313 84.4451 223.499 84.267C223.688 84.089 223.913 84 224.175 84C224.436 84 224.66 84.089 224.845 84.267C225.035 84.4451 225.129 84.6591 225.129 84.9091C225.129 85.1591 225.035 85.3731 224.845 85.5511C224.66 85.7292 224.436 85.8182 224.175 85.8182ZM233.472 89.2273L232.267 89.5682C232.191 89.3674 232.08 89.1723 231.932 88.983C231.788 88.7898 231.591 88.6307 231.341 88.5057C231.091 88.3807 230.771 88.3182 230.381 88.3182C229.847 88.3182 229.402 88.4413 229.045 88.6875C228.693 88.9299 228.517 89.2386 228.517 89.6136C228.517 89.947 228.638 90.2102 228.881 90.4034C229.123 90.5966 229.502 90.7576 230.017 90.8864L231.312 91.2045C232.093 91.3939 232.674 91.6837 233.057 92.0739C233.439 92.4602 233.631 92.9583 233.631 93.5682C233.631 94.0682 233.487 94.5152 233.199 94.9091C232.915 95.303 232.517 95.6136 232.006 95.8409C231.494 96.0682 230.9 96.1818 230.222 96.1818C229.331 96.1818 228.595 95.9886 228.011 95.6023C227.428 95.2159 227.059 94.6515 226.903 93.9091L228.176 93.5909C228.297 94.0606 228.527 94.4129 228.864 94.6477C229.205 94.8826 229.65 95 230.199 95C230.824 95 231.32 94.8674 231.688 94.6023C232.059 94.3333 232.244 94.0114 232.244 93.6364C232.244 93.3333 232.138 93.0795 231.926 92.875C231.714 92.6667 231.388 92.5114 230.949 92.4091L229.494 92.0682C228.695 91.8788 228.108 91.5852 227.733 91.1875C227.362 90.786 227.176 90.2841 227.176 89.6818C227.176 89.1894 227.314 88.7538 227.591 88.375C227.871 87.9962 228.252 87.6989 228.733 87.483C229.218 87.267 229.767 87.1591 230.381 87.1591C231.244 87.1591 231.922 87.3485 232.415 87.7273C232.911 88.1061 233.263 88.6061 233.472 89.2273ZM243.695 96.1818C242.907 96.1818 242.215 95.9943 241.621 95.6193C241.03 95.2443 240.568 94.7197 240.234 94.0455C239.905 93.3712 239.74 92.5833 239.74 91.6818C239.74 90.7727 239.905 89.9792 240.234 89.3011C240.568 88.6231 241.03 88.0966 241.621 87.7216C242.215 87.3466 242.907 87.1591 243.695 87.1591C244.482 87.1591 245.172 87.3466 245.763 87.7216C246.357 88.0966 246.82 88.6231 247.149 89.3011C247.482 89.9792 247.649 90.7727 247.649 91.6818C247.649 92.5833 247.482 93.3712 247.149 94.0455C246.82 94.7197 246.357 95.2443 245.763 95.6193C245.172 95.9943 244.482 96.1818 243.695 96.1818ZM243.695 94.9773C244.293 94.9773 244.786 94.8239 245.172 94.517C245.558 94.2102 245.844 93.8068 246.03 93.3068C246.215 92.8068 246.308 92.2652 246.308 91.6818C246.308 91.0985 246.215 90.5549 246.03 90.0511C245.844 89.5473 245.558 89.1402 245.172 88.8295C244.786 88.5189 244.293 88.3636 243.695 88.3636C243.096 88.3636 242.604 88.5189 242.217 88.8295C241.831 89.1402 241.545 89.5473 241.359 90.0511C241.174 90.5549 241.081 91.0985 241.081 91.6818C241.081 92.2652 241.174 92.8068 241.359 93.3068C241.545 93.8068 241.831 94.2102 242.217 94.517C242.604 94.8239 243.096 94.9773 243.695 94.9773ZM255.196 92.4318V87.2727H256.537V96H255.196V94.5227H255.105C254.901 94.9659 254.582 95.3428 254.151 95.6534C253.719 95.9602 253.173 96.1136 252.514 96.1136C251.969 96.1136 251.484 95.9943 251.06 95.7557C250.635 95.5133 250.302 95.1496 250.06 94.6648C249.817 94.1761 249.696 93.5606 249.696 92.8182V87.2727H251.037V92.7273C251.037 93.3636 251.215 93.8712 251.571 94.25C251.931 94.6288 252.389 94.8182 252.946 94.8182C253.279 94.8182 253.618 94.733 253.963 94.5625C254.312 94.392 254.603 94.1307 254.838 93.7784C255.077 93.4261 255.196 92.9773 255.196 92.4318ZM258.993 96V87.2727H260.288V88.5909H260.379C260.538 88.1591 260.826 87.8087 261.243 87.5398C261.66 87.2708 262.129 87.1364 262.652 87.1364C262.75 87.1364 262.874 87.1383 263.021 87.142C263.169 87.1458 263.281 87.1515 263.357 87.1591V88.5227C263.311 88.5114 263.207 88.4943 263.044 88.4716C262.885 88.4451 262.716 88.4318 262.538 88.4318C262.114 88.4318 261.735 88.5208 261.402 88.6989C261.072 88.8731 260.811 89.1155 260.618 89.4261C260.429 89.733 260.334 90.0833 260.334 90.4773V96H258.993ZM69.7955 115.205C69.2424 115.205 68.7405 115.1 68.2898 114.892C67.839 114.68 67.4811 114.375 67.2159 113.977C66.9508 113.576 66.8182 113.091 66.8182 112.523C66.8182 112.023 66.9167 111.617 67.1136 111.307C67.3106 110.992 67.5739 110.746 67.9034 110.568C68.233 110.39 68.5966 110.258 68.9943 110.17C69.3958 110.08 69.7992 110.008 70.2045 109.955C70.7348 109.886 71.1648 109.835 71.4943 109.801C71.8277 109.763 72.0701 109.701 72.2216 109.614C72.3769 109.527 72.4545 109.375 72.4545 109.159V109.114C72.4545 108.553 72.3011 108.117 71.9943 107.807C71.6913 107.496 71.2311 107.341 70.6136 107.341C69.9735 107.341 69.4716 107.481 69.108 107.761C68.7443 108.042 68.4886 108.341 68.3409 108.659L67.0682 108.205C67.2955 107.674 67.5985 107.261 67.9773 106.966C68.3598 106.667 68.7765 106.458 69.2273 106.341C69.6818 106.22 70.1288 106.159 70.5682 106.159C70.8485 106.159 71.1705 106.193 71.5341 106.261C71.9015 106.326 72.2557 106.46 72.5966 106.665C72.9413 106.869 73.2273 107.178 73.4545 107.591C73.6818 108.004 73.7955 108.557 73.7955 109.25V115H72.4545V113.818H72.3864C72.2955 114.008 72.1439 114.21 71.9318 114.426C71.7197 114.642 71.4375 114.826 71.0852 114.977C70.733 115.129 70.303 115.205 69.7955 115.205ZM70 114C70.5303 114 70.9773 113.896 71.3409 113.688C71.7083 113.479 71.9848 113.21 72.1705 112.881C72.3598 112.551 72.4545 112.205 72.4545 111.841V110.614C72.3977 110.682 72.2727 110.744 72.0795 110.801C71.8902 110.854 71.6705 110.902 71.4205 110.943C71.1742 110.981 70.9337 111.015 70.6989 111.045C70.4678 111.072 70.2803 111.095 70.1364 111.114C69.7879 111.159 69.4621 111.233 69.1591 111.335C68.8598 111.434 68.6174 111.583 68.4318 111.784C68.25 111.981 68.1591 112.25 68.1591 112.591C68.1591 113.057 68.3314 113.409 68.6761 113.648C69.0246 113.883 69.4659 114 70 114ZM82.4247 108.227L81.2202 108.568C81.1444 108.367 81.0327 108.172 80.8849 107.983C80.741 107.79 80.544 107.631 80.294 107.506C80.044 107.381 79.724 107.318 79.3338 107.318C78.7997 107.318 78.3546 107.441 77.9986 107.688C77.6463 107.93 77.4702 108.239 77.4702 108.614C77.4702 108.947 77.5914 109.21 77.8338 109.403C78.0762 109.597 78.455 109.758 78.9702 109.886L80.2656 110.205C81.0459 110.394 81.6274 110.684 82.0099 111.074C82.3925 111.46 82.5838 111.958 82.5838 112.568C82.5838 113.068 82.4399 113.515 82.152 113.909C81.8679 114.303 81.4702 114.614 80.9588 114.841C80.4474 115.068 79.8527 115.182 79.1747 115.182C78.2846 115.182 77.5478 114.989 76.9645 114.602C76.3812 114.216 76.0118 113.652 75.8565 112.909L77.1293 112.591C77.2505 113.061 77.4796 113.413 77.8168 113.648C78.1577 113.883 78.6027 114 79.152 114C79.777 114 80.2732 113.867 80.6406 113.602C81.0118 113.333 81.1974 113.011 81.1974 112.636C81.1974 112.333 81.0914 112.08 80.8793 111.875C80.6671 111.667 80.3414 111.511 79.902 111.409L78.4474 111.068C77.6482 110.879 77.0611 110.585 76.6861 110.188C76.3149 109.786 76.1293 109.284 76.1293 108.682C76.1293 108.189 76.2675 107.754 76.544 107.375C76.8243 106.996 77.205 106.699 77.6861 106.483C78.1709 106.267 78.7202 106.159 79.3338 106.159C80.1974 106.159 80.8755 106.348 81.3679 106.727C81.8641 107.106 82.2164 107.606 82.4247 108.227ZM90.7841 108.227L89.5795 108.568C89.5038 108.367 89.392 108.172 89.2443 107.983C89.1004 107.79 88.9034 107.631 88.6534 107.506C88.4034 107.381 88.0833 107.318 87.6932 107.318C87.1591 107.318 86.714 107.441 86.358 107.688C86.0057 107.93 85.8295 108.239 85.8295 108.614C85.8295 108.947 85.9508 109.21 86.1932 109.403C86.4356 109.597 86.8144 109.758 87.3295 109.886L88.625 110.205C89.4053 110.394 89.9867 110.684 90.3693 111.074C90.7519 111.46 90.9432 111.958 90.9432 112.568C90.9432 113.068 90.7992 113.515 90.5114 113.909C90.2273 114.303 89.8295 114.614 89.3182 114.841C88.8068 115.068 88.2121 115.182 87.5341 115.182C86.6439 115.182 85.9072 114.989 85.3239 114.602C84.7405 114.216 84.3712 113.652 84.2159 112.909L85.4886 112.591C85.6098 113.061 85.839 113.413 86.1761 113.648C86.517 113.883 86.9621 114 87.5114 114C88.1364 114 88.6326 113.867 89 113.602C89.3712 113.333 89.5568 113.011 89.5568 112.636C89.5568 112.333 89.4508 112.08 89.2386 111.875C89.0265 111.667 88.7008 111.511 88.2614 111.409L86.8068 111.068C86.0076 110.879 85.4205 110.585 85.0455 110.188C84.6742 109.786 84.4886 109.284 84.4886 108.682C84.4886 108.189 84.6269 107.754 84.9034 107.375C85.1837 106.996 85.5644 106.699 86.0455 106.483C86.5303 106.267 87.0795 106.159 87.6932 106.159C88.5568 106.159 89.2348 106.348 89.7273 106.727C90.2235 107.106 90.5758 107.606 90.7841 108.227ZM98.4616 111.432V106.273H99.8026V115H98.4616V113.523H98.3707C98.1662 113.966 97.848 114.343 97.4162 114.653C96.9844 114.96 96.4389 115.114 95.7798 115.114C95.2344 115.114 94.7495 114.994 94.3253 114.756C93.901 114.513 93.5677 114.15 93.3253 113.665C93.0829 113.176 92.9616 112.561 92.9616 111.818V106.273H94.3026V111.727C94.3026 112.364 94.4806 112.871 94.8366 113.25C95.1965 113.629 95.6548 113.818 96.2116 113.818C96.545 113.818 96.884 113.733 97.2287 113.562C97.5772 113.392 97.8688 113.131 98.1037 112.778C98.3423 112.426 98.4616 111.977 98.4616 111.432ZM102.259 115V106.273H103.554V107.591H103.645C103.804 107.159 104.092 106.809 104.509 106.54C104.925 106.271 105.395 106.136 105.918 106.136C106.016 106.136 106.139 106.138 106.287 106.142C106.435 106.146 106.546 106.152 106.622 106.159V107.523C106.577 107.511 106.473 107.494 106.31 107.472C106.151 107.445 105.982 107.432 105.804 107.432C105.38 107.432 105.001 107.521 104.668 107.699C104.338 107.873 104.077 108.116 103.884 108.426C103.694 108.733 103.599 109.083 103.599 109.477V115H102.259ZM110.78 115.205C110.227 115.205 109.725 115.1 109.274 114.892C108.823 114.68 108.465 114.375 108.2 113.977C107.935 113.576 107.803 113.091 107.803 112.523C107.803 112.023 107.901 111.617 108.098 111.307C108.295 110.992 108.558 110.746 108.888 110.568C109.217 110.39 109.581 110.258 109.979 110.17C110.38 110.08 110.784 110.008 111.189 109.955C111.719 109.886 112.149 109.835 112.479 109.801C112.812 109.763 113.054 109.701 113.206 109.614C113.361 109.527 113.439 109.375 113.439 109.159V109.114C113.439 108.553 113.286 108.117 112.979 107.807C112.676 107.496 112.215 107.341 111.598 107.341C110.958 107.341 110.456 107.481 110.092 107.761C109.729 108.042 109.473 108.341 109.325 108.659L108.053 108.205C108.28 107.674 108.583 107.261 108.962 106.966C109.344 106.667 109.761 106.458 110.212 106.341C110.666 106.22 111.113 106.159 111.553 106.159C111.833 106.159 112.155 106.193 112.518 106.261C112.886 106.326 113.24 106.46 113.581 106.665C113.926 106.869 114.212 107.178 114.439 107.591C114.666 108.004 114.78 108.557 114.78 109.25V115H113.439V113.818H113.371C113.28 114.008 113.128 114.21 112.916 114.426C112.704 114.642 112.422 114.826 112.07 114.977C111.717 115.129 111.287 115.205 110.78 115.205ZM110.984 114C111.515 114 111.962 113.896 112.325 113.688C112.693 113.479 112.969 113.21 113.155 112.881C113.344 112.551 113.439 112.205 113.439 111.841V110.614C113.382 110.682 113.257 110.744 113.064 110.801C112.875 110.854 112.655 110.902 112.405 110.943C112.159 110.981 111.918 111.015 111.683 111.045C111.452 111.072 111.265 111.095 111.121 111.114C110.772 111.159 110.446 111.233 110.143 111.335C109.844 111.434 109.602 111.583 109.416 111.784C109.234 111.981 109.143 112.25 109.143 112.591C109.143 113.057 109.316 113.409 109.661 113.648C110.009 113.883 110.45 114 110.984 114ZM118.568 109.75V115H117.227V106.273H118.523V107.636H118.636C118.841 107.193 119.152 106.837 119.568 106.568C119.985 106.295 120.523 106.159 121.182 106.159C121.773 106.159 122.29 106.28 122.733 106.523C123.176 106.761 123.521 107.125 123.767 107.614C124.013 108.098 124.136 108.712 124.136 109.455V115H122.795V109.545C122.795 108.86 122.617 108.326 122.261 107.943C121.905 107.557 121.417 107.364 120.795 107.364C120.367 107.364 119.985 107.456 119.648 107.642C119.314 107.828 119.051 108.098 118.858 108.455C118.665 108.811 118.568 109.242 118.568 109.75ZM130.132 115.182C129.314 115.182 128.609 114.989 128.018 114.602C127.428 114.216 126.973 113.684 126.655 113.006C126.337 112.328 126.178 111.553 126.178 110.682C126.178 109.795 126.34 109.013 126.666 108.335C126.996 107.653 127.454 107.121 128.041 106.739C128.632 106.352 129.321 106.159 130.109 106.159C130.723 106.159 131.276 106.273 131.768 106.5C132.261 106.727 132.664 107.045 132.979 107.455C133.293 107.864 133.488 108.341 133.564 108.886H132.223C132.121 108.489 131.893 108.136 131.541 107.83C131.193 107.519 130.723 107.364 130.132 107.364C129.609 107.364 129.151 107.5 128.757 107.773C128.367 108.042 128.062 108.422 127.842 108.915C127.626 109.403 127.518 109.977 127.518 110.636C127.518 111.311 127.625 111.898 127.837 112.398C128.053 112.898 128.356 113.286 128.746 113.562C129.14 113.839 129.602 113.977 130.132 113.977C130.481 113.977 130.797 113.917 131.081 113.795C131.365 113.674 131.606 113.5 131.803 113.273C132 113.045 132.14 112.773 132.223 112.455H133.564C133.488 112.97 133.301 113.434 133.001 113.847C132.706 114.256 132.314 114.581 131.825 114.824C131.34 115.062 130.776 115.182 130.132 115.182ZM139.183 115.182C138.342 115.182 137.617 114.996 137.007 114.625C136.401 114.25 135.933 113.727 135.604 113.057C135.278 112.383 135.115 111.598 135.115 110.705C135.115 109.811 135.278 109.023 135.604 108.341C135.933 107.655 136.392 107.121 136.979 106.739C137.57 106.352 138.259 106.159 139.047 106.159C139.501 106.159 139.95 106.235 140.393 106.386C140.837 106.538 141.24 106.784 141.604 107.125C141.967 107.462 142.257 107.909 142.473 108.466C142.689 109.023 142.797 109.708 142.797 110.523V111.091H136.07V109.932H141.433C141.433 109.439 141.335 109 141.138 108.614C140.945 108.227 140.668 107.922 140.308 107.699C139.952 107.475 139.532 107.364 139.047 107.364C138.513 107.364 138.051 107.496 137.661 107.761C137.274 108.023 136.977 108.364 136.768 108.784C136.56 109.205 136.456 109.655 136.456 110.136V110.909C136.456 111.568 136.57 112.127 136.797 112.585C137.028 113.04 137.348 113.386 137.757 113.625C138.166 113.86 138.642 113.977 139.183 113.977C139.536 113.977 139.854 113.928 140.138 113.83C140.426 113.727 140.674 113.576 140.882 113.375C141.09 113.17 141.251 112.917 141.365 112.614L142.661 112.977C142.524 113.417 142.295 113.803 141.973 114.136C141.651 114.466 141.253 114.723 140.78 114.909C140.306 115.091 139.774 115.182 139.183 115.182ZM145.814 115.091C145.534 115.091 145.293 114.991 145.092 114.79C144.892 114.589 144.791 114.348 144.791 114.068C144.791 113.788 144.892 113.547 145.092 113.347C145.293 113.146 145.534 113.045 145.814 113.045C146.094 113.045 146.335 113.146 146.536 113.347C146.736 113.547 146.837 113.788 146.837 114.068C146.837 114.254 146.789 114.424 146.695 114.58C146.604 114.735 146.481 114.86 146.325 114.955C146.174 115.045 146.003 115.091 145.814 115.091Z" fill="black"/>
<rect x="66" y="132.5" width="20" height="20" rx="4" transform="rotate(-45 66 132.5)" fill="white"/>
<g clip-path="url(#clip0_8_508)">
<path d="M304 78.5C297.368 78.5 292 83.867 292 90.5C292 97.1324 297.367 102.5 304 102.5C310.632 102.5 316 97.133 316 90.5C316 83.8676 310.633 78.5 304 78.5ZM310.352 87.2218L302.664 94.9095C302.352 95.2218 301.845 95.2219 301.533 94.9095L297.648 91.0242C297.335 90.7118 297.335 90.2052 297.648 89.8928C297.96 89.5804 298.467 89.5804 298.779 89.8928L302.099 93.2125L309.221 86.0904C309.533 85.778 310.04 85.778 310.352 86.0904C310.665 86.4029 310.665 86.9094 310.352 87.2218Z" fill="#00AE1C"/>
</g>
</g>
<defs>
<filter id="filter0_d_8_508" x="0" y="0" width="382" height="198.985" filterUnits="userSpaceOnUse" color-interpolation-filters="sRGB">
<feFlood flood-opacity="0" result="BackgroundImageFix"/>
<feColorMatrix in="SourceAlpha" type="matrix" values="0 0 0 0 0 0 0 0 0 0 0 0 0 0 0 0 0 0 127 0" result="hardAlpha"/>
<feOffset dy="4"/>
<feGaussianBlur stdDeviation="25"/>
<feComposite in2="hardAlpha" operator="out"/>
<feColorMatrix type="matrix" values="0 0 0 0 0 0 0 0 0 0.262745 0 0 0 0 0.396078 0 0 0 0.12 0"/>
<feBlend mode="normal" in2="BackgroundImageFix" result="effect1_dropShadow_8_508"/>
<feBlend mode="normal" in="SourceGraphic" in2="effect1_dropShadow_8_508" result="shape"/>
</filter>
<clipPath id="clip0_8_508">
<rect width="24" height="24" fill="white" transform="translate(292 78.5)"/>
</clipPath>
</defs>
</svg>
