<svg width="32" height="32" viewBox="0 0 32 32" fill="none" xmlns="http://www.w3.org/2000/svg">
<path fill-rule="evenodd" clip-rule="evenodd" d="M6.66667 1.66675C4.64162 1.66675 3 3.30837 3 5.33341C3 7.35846 4.64162 9.00008 6.66667 9.00008C8.69171 9.00008 10.3333 7.35846 10.3333 5.33341C10.3333 3.30837 8.69171 1.66675 6.66667 1.66675ZM5 5.33341C5 4.41294 5.74619 3.66675 6.66667 3.66675C7.58714 3.66675 8.33333 4.41294 8.33333 5.33341C8.33333 6.25389 7.58714 7.00008 6.66667 7.00008C5.74619 7.00008 5 6.25389 5 5.33341Z" fill="white"/>
<path fill-rule="evenodd" clip-rule="evenodd" d="M3 10.6667C3 10.1145 3.44772 9.66675 4 9.66675H9.33333C9.88562 9.66675 10.3333 10.1145 10.3333 10.6667V28.0001C10.3333 28.5524 9.88562 29.0001 9.33333 29.0001H4C3.44772 29.0001 3 28.5524 3 28.0001V10.6667ZM5 11.6667V27.0001H8.33333V11.6667H5Z" fill="white"/>
<path fill-rule="evenodd" clip-rule="evenodd" d="M12.3333 10.6667C12.3333 10.1145 12.781 9.66675 13.3333 9.66675H18.6667C19.219 9.66675 19.6667 10.1145 19.6667 10.6667V11.2454L20.247 10.9967C21.2448 10.5691 22.3118 10.3009 23.391 10.2028C27.0909 9.86648 30.3333 12.7739 30.3333 16.5071V28.0001C30.3333 28.5524 29.8856 29.0001 29.3333 29.0001H24C23.4477 29.0001 23 28.5524 23 28.0001V18.6667C23 18.2247 22.8244 17.8008 22.5118 17.4882C22.1993 17.1757 21.7754 17.0001 21.3333 17.0001C20.8913 17.0001 20.4674 17.1757 20.1548 17.4882C19.8423 17.8008 19.6667 18.2247 19.6667 18.6667V28.0001C19.6667 28.5524 19.219 29.0001 18.6667 29.0001H13.3333C12.781 29.0001 12.3333 28.5524 12.3333 28.0001V10.6667ZM14.3333 11.6667V27.0001H17.6667V18.6667C17.6667 17.6943 18.053 16.7617 18.7406 16.074C19.4282 15.3864 20.3609 15.0001 21.3333 15.0001C22.3058 15.0001 23.2384 15.3864 23.9261 16.074C24.6137 16.7617 25 17.6943 25 18.6667V27.0001H28.3333V16.5071C28.3333 13.9679 26.1187 11.9631 23.5721 12.1946C22.7 12.2739 21.8379 12.4908 21.0349 12.835L19.0606 13.6811C18.7516 13.8135 18.3968 13.7819 18.1162 13.5968C17.8356 13.4118 17.6667 13.0981 17.6667 12.762V11.6667H14.3333Z" fill="white"/>
</svg>
