<?xml version="1.0" standalone="no"?>
<!DOCTYPE svg PUBLIC "-//W3C//DTD SVG 20010904//EN"
 "http://www.w3.org/TR/2001/REC-SVG-20010904/DTD/svg10.dtd">
<svg version="1.0" xmlns="http://www.w3.org/2000/svg"
 width="1563.000000pt" height="1563.000000pt" viewBox="0 0 1563.000000 1563.000000"
 preserveAspectRatio="xMidYMid meet">

<g transform="translate(0.000000,1563.000000) scale(0.100000,-0.100000)"
fill="#000000" stroke="none">
<path d="M4455 4128 c-3 -7 -31 -87 -64 -178 -32 -91 -70 -193 -84 -227 l-26
-63 39 0 c38 0 38 0 28 28 -36 93 77 178 181 136 45 -18 74 -59 86 -127 7 -37
8 -37 56 -37 l49 0 -18 38 c-11 20 -52 128 -92 240 l-73 202 -39 0 c-22 0 -41
-5 -43 -12z m68 -166 c35 -95 41 -122 28 -116 -32 13 -118 16 -140 4 -13 -6
-24 -10 -27 -8 -2 2 12 47 30 99 48 134 56 152 60 148 3 -2 25 -60 49 -127z"/>
<path d="M4975 3900 l0 -240 45 0 46 0 -4 69 c-4 64 -2 70 24 100 16 17 65 50
108 74 89 47 120 81 120 132 0 75 -66 105 -236 105 l-103 0 0 -240z m164 210
c74 -10 101 -30 101 -74 0 -43 -18 -66 -95 -120 -35 -26 -69 -54 -74 -64 -7
-12 -10 25 -11 126 0 78 3 142 8 142 4 0 36 -5 71 -10z"/>
<path d="M5575 3900 l0 -240 45 0 46 0 -4 69 c-4 64 -2 70 24 100 16 17 65 50
108 74 89 47 120 81 120 132 0 75 -66 105 -236 105 l-103 0 0 -240z m164 210
c74 -10 101 -30 101 -74 0 -43 -18 -66 -95 -120 -35 -26 -69 -54 -74 -64 -7
-12 -10 25 -11 126 0 78 3 142 8 142 4 0 36 -5 71 -10z"/>
<path d="M6280 3938 c-40 -112 -81 -220 -92 -240 l-18 -38 41 0 c35 0 40 2 34
18 -15 37 -16 48 0 84 21 51 56 72 121 72 74 0 103 -23 131 -105 l21 -64 47
-3 46 -3 -14 28 c-8 15 -40 100 -72 188 -105 292 -91 265 -135 265 l-38 0 -72
-202z m140 12 c33 -92 37 -111 23 -104 -10 5 -45 9 -78 9 -33 0 -68 -4 -78 -9
-14 -7 -10 11 22 100 57 157 53 149 62 131 5 -8 27 -65 49 -127z"/>
<path d="M6875 3900 l0 -240 43 0 42 0 -6 53 c-7 60 12 119 45 136 18 10 23 6
45 -31 14 -24 37 -69 51 -100 l26 -58 49 0 49 0 -38 63 c-36 59 -91 162 -91
170 0 2 21 17 46 33 104 66 98 173 -12 203 -22 6 -86 11 -144 11 l-105 0 0
-240z m217 198 c34 -13 55 -60 40 -92 -6 -13 -29 -39 -52 -57 -24 -19 -62 -51
-86 -73 l-44 -39 0 135 c0 74 3 138 7 141 8 9 99 -1 135 -15z"/>
<path d="M7485 3900 l0 -240 163 0 162 0 0 37 0 36 -25 -23 c-23 -22 -37 -25
-125 -28 l-100 -4 0 97 0 97 55 -4 c40 -3 62 -11 80 -28 l25 -23 -1 64 c0 35
-3 58 -6 51 -9 -22 -60 -42 -108 -42 l-45 0 0 110 0 110 92 0 c80 0 95 -3 115
-22 l23 -21 0 36 0 37 -152 0 -153 0 0 -240z"/>
<path d="M8075 3900 l0 -240 153 0 152 0 0 30 0 30 -26 -17 c-18 -12 -54 -18
-116 -21 l-89 -5 3 232 3 231 -40 0 -40 0 0 -240z"/>
<path d="M8650 4135 c0 -3 11 -31 23 -63 13 -31 53 -137 88 -235 l64 -178 40
3 40 3 39 108 c21 59 41 106 43 103 3 -2 22 -51 43 -108 l37 -103 40 -3 40 -3
73 203 c40 112 81 220 92 241 l18 37 -40 0 c-22 0 -40 -2 -40 -4 0 -1 5 -16
10 -33 9 -25 2 -54 -56 -214 -36 -101 -67 -185 -69 -187 -3 -3 -132 352 -146
401 -10 36 -12 37 -54 37 -25 0 -45 -2 -45 -5 0 -4 7 -19 15 -35 8 -16 27 -62
41 -101 l26 -71 -38 -109 c-21 -60 -41 -109 -44 -109 -7 0 -151 399 -150 418
0 8 -16 12 -45 12 -25 0 -45 -2 -45 -5z"/>
<path d="M9767 4133 c-3 -5 -38 -98 -77 -208 -40 -110 -79 -212 -86 -227 -19
-37 -19 -38 26 -38 38 0 39 1 29 24 -27 60 22 138 96 152 77 14 143 -36 166
-126 l13 -50 47 0 47 0 -18 35 c-10 19 -51 127 -91 240 l-74 205 -37 0 c-20 0
-39 -3 -41 -7z m61 -161 c23 -64 42 -120 42 -124 0 -4 -12 -3 -26 2 -33 13
-96 13 -129 0 -20 -8 -26 -7 -23 2 10 38 84 238 88 238 3 0 24 -53 48 -118z"/>
<path d="M10285 3900 l0 -240 158 0 157 0 0 38 c-1 29 -3 33 -11 20 -13 -24
-71 -38 -152 -38 l-68 0 3 230 3 230 -45 0 -45 0 0 -240z"/>
<path d="M11035 4128 c-3 -7 -31 -87 -64 -178 -32 -91 -70 -193 -84 -227 l-26
-63 39 0 c38 0 38 0 28 28 -36 93 77 178 181 136 45 -18 74 -59 86 -127 7 -37
8 -37 56 -37 l49 0 -18 38 c-11 20 -52 128 -92 240 l-73 202 -39 0 c-22 0 -41
-5 -43 -12z m68 -166 c35 -95 41 -122 28 -116 -32 13 -118 16 -140 4 -13 -6
-24 -10 -27 -8 -2 2 12 47 30 99 48 134 56 152 60 148 3 -2 25 -60 49 -127z"/>
</g>
</svg>
