<svg width="42" height="42" viewBox="0 0 42 42" fill="none" xmlns="http://www.w3.org/2000/svg">
<path d="M29.75 36.75H12.25C5.25 36.75 3.5 35 3.5 28V14C3.5 7 5.25 5.25 12.25 5.25H29.75C36.75 5.25 38.5 7 38.5 14V28C38.5 35 36.75 36.75 29.75 36.75Z" stroke="#292D32" stroke-width="2.5" stroke-linecap="round" stroke-linejoin="round"/>
<path d="M24.5 14H33.25" stroke="#292D32" stroke-width="2.5" stroke-linecap="round" stroke-linejoin="round"/>
<path d="M26.25 21H33.25" stroke="#292D32" stroke-width="2.5" stroke-linecap="round" stroke-linejoin="round"/>
<path d="M29.75 28H33.25" stroke="#292D32" stroke-width="2.5" stroke-linecap="round" stroke-linejoin="round"/>
<path d="M14.875 19.7575C16.6244 19.7575 18.0425 18.3393 18.0425 16.59C18.0425 14.8406 16.6244 13.4225 14.875 13.4225C13.1257 13.4225 11.7075 14.8406 11.7075 16.59C11.7075 18.3393 13.1257 19.7575 14.875 19.7575Z" stroke="#292D32" stroke-width="2.5" stroke-linecap="round" stroke-linejoin="round"/>
<path d="M21 28.5775C20.755 26.04 18.7425 24.045 16.205 23.8175C15.33 23.73 14.4375 23.73 13.545 23.8175C11.0075 24.0625 8.995 26.04 8.75 28.5775" stroke="#292D32" stroke-width="2.5" stroke-linecap="round" stroke-linejoin="round"/>
</svg>
