<svg width="356" height="338" viewBox="0 0 356 338" fill="none" xmlns="http://www.w3.org/2000/svg">
<g filter="url(#filter0_d_8_547)">
<rect x="50" y="46" width="256" height="238" rx="20" fill="white"/>
</g>
<rect x="135" y="243" width="28" height="21" rx="5" fill="url(#paint0_linear_8_547)"/>
<path d="M146.84 250.08V257H145.93V251.84L143.63 257H142.99L140.68 251.83V257H139.77V250.08H140.75L143.31 255.8L145.87 250.08H146.84ZM148.043 254.24C148.043 253.68 148.157 253.19 148.383 252.77C148.61 252.343 148.92 252.013 149.313 251.78C149.713 251.547 150.157 251.43 150.643 251.43C151.123 251.43 151.54 251.533 151.893 251.74C152.247 251.947 152.51 252.207 152.683 252.52V251.52H153.603V257H152.683V255.98C152.503 256.3 152.233 256.567 151.873 256.78C151.52 256.987 151.107 257.09 150.633 257.09C150.147 257.09 149.707 256.97 149.313 256.73C148.92 256.49 148.61 256.153 148.383 255.72C148.157 255.287 148.043 254.793 148.043 254.24ZM152.683 254.25C152.683 253.837 152.6 253.477 152.433 253.17C152.267 252.863 152.04 252.63 151.753 252.47C151.473 252.303 151.163 252.22 150.823 252.22C150.483 252.22 150.173 252.3 149.893 252.46C149.613 252.62 149.39 252.853 149.223 253.16C149.057 253.467 148.973 253.827 148.973 254.24C148.973 254.66 149.057 255.027 149.223 255.34C149.39 255.647 149.613 255.883 149.893 256.05C150.173 256.21 150.483 256.29 150.823 256.29C151.163 256.29 151.473 256.21 151.753 256.05C152.04 255.883 152.267 255.647 152.433 255.34C152.6 255.027 152.683 254.663 152.683 254.25ZM156.051 252.41C156.211 252.097 156.438 251.853 156.731 251.68C157.031 251.507 157.394 251.42 157.821 251.42V252.36H157.581C156.561 252.36 156.051 252.913 156.051 254.02V257H155.141V251.52H156.051V252.41Z" fill="#14101D"/>
<path d="M84.28 250.03V255.18C84.28 255.753 84.1033 256.213 83.75 256.56C83.3967 256.9 82.93 257.07 82.35 257.07C81.7633 257.07 81.2933 256.897 80.94 256.55C80.5867 256.197 80.41 255.717 80.41 255.11H81.32C81.3267 255.45 81.4133 255.727 81.58 255.94C81.7533 256.153 82.01 256.26 82.35 256.26C82.69 256.26 82.9433 256.16 83.11 255.96C83.2767 255.753 83.36 255.493 83.36 255.18V250.03H84.28ZM85.7327 254.24C85.7327 253.68 85.8461 253.19 86.0727 252.77C86.2994 252.343 86.6094 252.013 87.0027 251.78C87.4027 251.547 87.8461 251.43 88.3327 251.43C88.8127 251.43 89.2294 251.533 89.5827 251.74C89.9361 251.947 90.1994 252.207 90.3727 252.52V251.52H91.2927V257H90.3727V255.98C90.1927 256.3 89.9227 256.567 89.5627 256.78C89.2094 256.987 88.7961 257.09 88.3227 257.09C87.8361 257.09 87.3961 256.97 87.0027 256.73C86.6094 256.49 86.2994 256.153 86.0727 255.72C85.8461 255.287 85.7327 254.793 85.7327 254.24ZM90.3727 254.25C90.3727 253.837 90.2894 253.477 90.1227 253.17C89.9561 252.863 89.7294 252.63 89.4427 252.47C89.1627 252.303 88.8527 252.22 88.5127 252.22C88.1727 252.22 87.8627 252.3 87.5827 252.46C87.3027 252.62 87.0794 252.853 86.9127 253.16C86.7461 253.467 86.6627 253.827 86.6627 254.24C86.6627 254.66 86.7461 255.027 86.9127 255.34C87.0794 255.647 87.3027 255.883 87.5827 256.05C87.8627 256.21 88.1727 256.29 88.5127 256.29C88.8527 256.29 89.1627 256.21 89.4427 256.05C89.7294 255.883 89.9561 255.647 90.1227 255.34C90.2894 255.027 90.3727 254.663 90.3727 254.25ZM95.5005 251.42C96.1672 251.42 96.7072 251.623 97.1205 252.03C97.5339 252.43 97.7405 253.01 97.7405 253.77V257H96.8405V253.9C96.8405 253.353 96.7039 252.937 96.4305 252.65C96.1572 252.357 95.7839 252.21 95.3105 252.21C94.8305 252.21 94.4472 252.36 94.1605 252.66C93.8805 252.96 93.7405 253.397 93.7405 253.97V257H92.8305V251.52H93.7405V252.3C93.9205 252.02 94.1639 251.803 94.4705 251.65C94.7839 251.497 95.1272 251.42 95.5005 251.42Z" fill="#14101D" fill-opacity="0.7"/>
<path d="M114.71 250.03V250.77H111.68V253.12H114.14V253.86H111.68V257H110.77V250.03H114.71ZM120.809 254.05C120.809 254.223 120.799 254.407 120.779 254.6H116.399C116.432 255.14 116.616 255.563 116.949 255.87C117.289 256.17 117.699 256.32 118.179 256.32C118.572 256.32 118.899 256.23 119.159 256.05C119.426 255.863 119.612 255.617 119.719 255.31H120.699C120.552 255.837 120.259 256.267 119.819 256.6C119.379 256.927 118.832 257.09 118.179 257.09C117.659 257.09 117.192 256.973 116.779 256.74C116.372 256.507 116.052 256.177 115.819 255.75C115.586 255.317 115.469 254.817 115.469 254.25C115.469 253.683 115.582 253.187 115.809 252.76C116.036 252.333 116.352 252.007 116.759 251.78C117.172 251.547 117.646 251.43 118.179 251.43C118.699 251.43 119.159 251.543 119.559 251.77C119.959 251.997 120.266 252.31 120.479 252.71C120.699 253.103 120.809 253.55 120.809 254.05ZM119.869 253.86C119.869 253.513 119.792 253.217 119.639 252.97C119.486 252.717 119.276 252.527 119.009 252.4C118.749 252.267 118.459 252.2 118.139 252.2C117.679 252.2 117.286 252.347 116.959 252.64C116.639 252.933 116.456 253.34 116.409 253.86H119.869ZM122.92 252.54C123.107 252.213 123.38 251.947 123.74 251.74C124.1 251.533 124.51 251.43 124.97 251.43C125.464 251.43 125.907 251.547 126.3 251.78C126.694 252.013 127.004 252.343 127.23 252.77C127.457 253.19 127.57 253.68 127.57 254.24C127.57 254.793 127.457 255.287 127.23 255.72C127.004 256.153 126.69 256.49 126.29 256.73C125.897 256.97 125.457 257.09 124.97 257.09C124.497 257.09 124.08 256.987 123.72 256.78C123.367 256.573 123.1 256.31 122.92 255.99V257H122.01V249.6H122.92V252.54ZM126.64 254.24C126.64 253.827 126.557 253.467 126.39 253.16C126.224 252.853 125.997 252.62 125.71 252.46C125.43 252.3 125.12 252.22 124.78 252.22C124.447 252.22 124.137 252.303 123.85 252.47C123.57 252.63 123.344 252.867 123.17 253.18C123.004 253.487 122.92 253.843 122.92 254.25C122.92 254.663 123.004 255.027 123.17 255.34C123.344 255.647 123.57 255.883 123.85 256.05C124.137 256.21 124.447 256.29 124.78 256.29C125.12 256.29 125.43 256.21 125.71 256.05C125.997 255.883 126.224 255.647 126.39 255.34C126.557 255.027 126.64 254.66 126.64 254.24Z" fill="#14101D" fill-opacity="0.7"/>
<path d="M174.89 255.45H171.85L171.29 257H170.33L172.85 250.07H173.9L176.41 257H175.45L174.89 255.45ZM174.63 254.71L173.37 251.19L172.11 254.71H174.63ZM178.418 252.53C178.598 252.217 178.865 251.957 179.218 251.75C179.578 251.537 179.995 251.43 180.468 251.43C180.955 251.43 181.395 251.547 181.788 251.78C182.188 252.013 182.502 252.343 182.728 252.77C182.955 253.19 183.068 253.68 183.068 254.24C183.068 254.793 182.955 255.287 182.728 255.72C182.502 256.153 182.188 256.49 181.788 256.73C181.395 256.97 180.955 257.09 180.468 257.09C180.002 257.09 179.588 256.987 179.228 256.78C178.875 256.567 178.605 256.303 178.418 255.99V259.6H177.508V251.52H178.418V252.53ZM182.138 254.24C182.138 253.827 182.055 253.467 181.888 253.16C181.722 252.853 181.495 252.62 181.208 252.46C180.928 252.3 180.618 252.22 180.278 252.22C179.945 252.22 179.635 252.303 179.348 252.47C179.068 252.63 178.842 252.867 178.668 253.18C178.502 253.487 178.418 253.843 178.418 254.25C178.418 254.663 178.502 255.027 178.668 255.34C178.842 255.647 179.068 255.883 179.348 256.05C179.635 256.21 179.945 256.29 180.278 256.29C180.618 256.29 180.928 256.21 181.208 256.05C181.495 255.883 181.722 255.647 181.888 255.34C182.055 255.027 182.138 254.66 182.138 254.24ZM185.176 252.41C185.336 252.097 185.563 251.853 185.856 251.68C186.156 251.507 186.519 251.42 186.946 251.42V252.36H186.706C185.686 252.36 185.176 252.913 185.176 254.02V257H184.266V251.52H185.176V252.41Z" fill="#14101D" fill-opacity="0.7"/>
<path d="M205.79 250.07V257H204.88V251.47L202.67 257H201.86L199.64 251.49V257H198.73V250.07H199.82L202.28 255.89L204.7 250.07H205.79ZM209.496 251.44C210.029 251.44 210.479 251.573 210.846 251.84C211.219 252.107 211.479 252.463 211.626 252.91V251.51H212.536V257H211.626V255.6C211.479 256.047 211.219 256.403 210.846 256.67C210.479 256.937 210.029 257.07 209.496 257.07C209.009 257.07 208.576 256.957 208.196 256.73C207.816 256.503 207.516 256.18 207.296 255.76C207.082 255.333 206.976 254.833 206.976 254.26C206.976 253.687 207.082 253.187 207.296 252.76C207.516 252.333 207.816 252.007 208.196 251.78C208.576 251.553 209.009 251.44 209.496 251.44ZM209.756 252.25C209.196 252.25 208.746 252.43 208.406 252.79C208.072 253.143 207.906 253.633 207.906 254.26C207.906 254.887 208.072 255.38 208.406 255.74C208.746 256.093 209.196 256.27 209.756 256.27C210.116 256.27 210.436 256.187 210.716 256.02C211.002 255.853 211.226 255.62 211.386 255.32C211.546 255.013 211.626 254.66 211.626 254.26C211.626 253.86 211.546 253.507 211.386 253.2C211.226 252.893 211.002 252.66 210.716 252.5C210.436 252.333 210.116 252.25 209.756 252.25ZM214.364 251.51L216.144 255.83L217.794 251.51H218.804L215.544 259.6H214.514L215.654 256.91L213.344 251.51H214.364Z" fill="#14101D" fill-opacity="0.7"/>
<path d="M235.28 250.03V255.18C235.28 255.753 235.103 256.213 234.75 256.56C234.397 256.9 233.93 257.07 233.35 257.07C232.763 257.07 232.293 256.897 231.94 256.55C231.587 256.197 231.41 255.717 231.41 255.11H232.32C232.327 255.45 232.413 255.727 232.58 255.94C232.753 256.153 233.01 256.26 233.35 256.26C233.69 256.26 233.943 256.16 234.11 255.96C234.277 255.753 234.36 255.493 234.36 255.18V250.03H235.28ZM241.933 251.52V257H241.023V256.19C240.849 256.47 240.606 256.69 240.293 256.85C239.986 257.003 239.646 257.08 239.273 257.08C238.846 257.08 238.463 256.993 238.123 256.82C237.783 256.64 237.513 256.373 237.313 256.02C237.119 255.667 237.023 255.237 237.023 254.73V251.52H237.923V254.61C237.923 255.15 238.059 255.567 238.333 255.86C238.606 256.147 238.979 256.29 239.453 256.29C239.939 256.29 240.323 256.14 240.603 255.84C240.883 255.54 241.023 255.103 241.023 254.53V251.52H241.933ZM246.139 251.42C246.806 251.42 247.346 251.623 247.759 252.03C248.173 252.43 248.379 253.01 248.379 253.77V257H247.479V253.9C247.479 253.353 247.343 252.937 247.069 252.65C246.796 252.357 246.423 252.21 245.949 252.21C245.469 252.21 245.086 252.36 244.799 252.66C244.519 252.96 244.379 253.397 244.379 253.97V257H243.469V251.52H244.379V252.3C244.559 252.02 244.803 251.803 245.109 251.65C245.423 251.497 245.766 251.42 246.139 251.42Z" fill="#14101D" fill-opacity="0.7"/>
<path d="M266.28 250.03V255.18C266.28 255.753 266.103 256.213 265.75 256.56C265.397 256.9 264.93 257.07 264.35 257.07C263.763 257.07 263.293 256.897 262.94 256.55C262.587 256.197 262.41 255.717 262.41 255.11H263.32C263.327 255.45 263.413 255.727 263.58 255.94C263.753 256.153 264.01 256.26 264.35 256.26C264.69 256.26 264.943 256.16 265.11 255.96C265.277 255.753 265.36 255.493 265.36 255.18V250.03H266.28ZM272.933 251.52V257H272.023V256.19C271.849 256.47 271.606 256.69 271.293 256.85C270.986 257.003 270.646 257.08 270.273 257.08C269.846 257.08 269.463 256.993 269.123 256.82C268.783 256.64 268.513 256.373 268.313 256.02C268.119 255.667 268.023 255.237 268.023 254.73V251.52H268.923V254.61C268.923 255.15 269.059 255.567 269.333 255.86C269.606 256.147 269.979 256.29 270.453 256.29C270.939 256.29 271.323 256.14 271.603 255.84C271.883 255.54 272.023 255.103 272.023 254.53V251.52H272.933ZM275.379 249.6V257H274.469V249.6H275.379Z" fill="#14101D" fill-opacity="0.7"/>
<path d="M70 156.408C73.7962 156.408 76.073 155.49 79.7207 156.408C86.0933 158.01 85.6016 164.673 91.7287 166.888C97.3029 168.903 101.329 166.061 107.168 167.387C120.313 170.373 119.039 185.89 132.327 188.348C137.57 189.318 140.851 187.214 146.051 188.348C157.08 190.755 155.761 209.209 166.636 206.315C171.78 204.946 171.884 199.957 176.928 198.33C189.373 194.315 188.656 221.638 201.516 218.792C209.017 217.131 208.459 208.922 215.811 206.814C221.115 205.293 224.572 207.451 230.106 206.814C255.469 203.896 251.491 168.635 276.995 166.888C280.111 166.675 285 166.888 285 166.888" stroke="url(#paint1_linear_8_547)" stroke-opacity="0.2"/>
<path d="M146 188.057C157.022 190.487 155.704 209.116 166.571 206.194C171.712 204.813 171.816 199.776 176.857 198.134C189.294 194.081 188.577 221.663 201.429 218.79C208.925 217.113 208.367 208.827 215.714 206.698C221.014 205.163 224.469 207.341 230 206.698C243.164 205.168 248.419 194.831 254 185" stroke="url(#paint2_linear_8_547)" stroke-width="2" stroke-linecap="round"/>
<path d="M75.232 120L73.312 116.664H72.268V120H70.9V111.66H73.78C74.42 111.66 74.96 111.772 75.4 111.996C75.848 112.22 76.18 112.52 76.396 112.896C76.62 113.272 76.732 113.692 76.732 114.156C76.732 114.7 76.572 115.196 76.252 115.644C75.94 116.084 75.456 116.384 74.8 116.544L76.864 120H75.232ZM72.268 115.572H73.78C74.292 115.572 74.676 115.444 74.932 115.188C75.196 114.932 75.328 114.588 75.328 114.156C75.328 113.724 75.2 113.388 74.944 113.148C74.688 112.9 74.3 112.776 73.78 112.776H72.268V115.572ZM80.882 120.108C80.362 120.108 79.894 120.016 79.478 119.832C79.07 119.64 78.746 119.384 78.506 119.064C78.266 118.736 78.138 118.372 78.122 117.972H79.538C79.562 118.252 79.694 118.488 79.934 118.68C80.182 118.864 80.49 118.956 80.858 118.956C81.242 118.956 81.538 118.884 81.746 118.74C81.962 118.588 82.07 118.396 82.07 118.164C82.07 117.916 81.95 117.732 81.71 117.612C81.478 117.492 81.106 117.36 80.594 117.216C80.098 117.08 79.694 116.948 79.382 116.82C79.07 116.692 78.798 116.496 78.566 116.232C78.342 115.968 78.23 115.62 78.23 115.188C78.23 114.836 78.334 114.516 78.542 114.228C78.75 113.932 79.046 113.7 79.43 113.532C79.822 113.364 80.27 113.28 80.774 113.28C81.526 113.28 82.13 113.472 82.586 113.856C83.05 114.232 83.298 114.748 83.33 115.404H81.962C81.938 115.108 81.818 114.872 81.602 114.696C81.386 114.52 81.094 114.432 80.726 114.432C80.366 114.432 80.09 114.5 79.898 114.636C79.706 114.772 79.61 114.952 79.61 115.176C79.61 115.352 79.674 115.5 79.802 115.62C79.93 115.74 80.086 115.836 80.27 115.908C80.454 115.972 80.726 116.056 81.086 116.16C81.566 116.288 81.958 116.42 82.262 116.556C82.574 116.684 82.842 116.876 83.066 117.132C83.29 117.388 83.406 117.728 83.414 118.152C83.414 118.528 83.31 118.864 83.102 119.16C82.894 119.456 82.598 119.688 82.214 119.856C81.838 120.024 81.394 120.108 80.882 120.108ZM85.4442 120.084C85.1962 120.084 84.9882 120 84.8202 119.832C84.6522 119.664 84.5682 119.456 84.5682 119.208C84.5682 118.96 84.6522 118.752 84.8202 118.584C84.9882 118.416 85.1962 118.332 85.4442 118.332C85.6842 118.332 85.8882 118.416 86.0562 118.584C86.2242 118.752 86.3082 118.96 86.3082 119.208C86.3082 119.456 86.2242 119.664 86.0562 119.832C85.8882 120 85.6842 120.084 85.4442 120.084ZM91.4799 118.14C92.2479 117.476 92.8519 116.932 93.2919 116.508C93.7399 116.076 94.1119 115.628 94.4079 115.164C94.7039 114.7 94.8519 114.236 94.8519 113.772C94.8519 113.292 94.7359 112.916 94.5039 112.644C94.2799 112.372 93.9239 112.236 93.4359 112.236C92.9639 112.236 92.5959 112.388 92.3319 112.692C92.0759 112.988 91.9399 113.388 91.9239 113.892H90.6039C90.6279 112.98 90.8999 112.284 91.4199 111.804C91.9479 111.316 92.6159 111.072 93.4239 111.072C94.2959 111.072 94.9759 111.312 95.4639 111.792C95.9599 112.272 96.2079 112.912 96.2079 113.712C96.2079 114.288 96.0599 114.844 95.7639 115.38C95.4759 115.908 95.1279 116.384 94.7199 116.808C94.3199 117.224 93.8079 117.708 93.1839 118.26L92.6439 118.74H96.4479V119.88H90.6159V118.884L91.4799 118.14ZM99.3297 118.356L97.8777 121.668H96.9897L97.8417 118.356H99.3297ZM100.321 113.412C100.369 112.668 100.653 112.088 101.173 111.672C101.701 111.256 102.373 111.048 103.189 111.048C103.749 111.048 104.233 111.148 104.641 111.348C105.049 111.548 105.357 111.82 105.565 112.164C105.773 112.508 105.877 112.896 105.877 113.328C105.877 113.824 105.745 114.248 105.481 114.6C105.217 114.952 104.901 115.188 104.533 115.308V115.356C105.005 115.5 105.373 115.764 105.637 116.148C105.901 116.524 106.033 117.008 106.033 117.6C106.033 118.072 105.925 118.492 105.709 118.86C105.493 119.228 105.173 119.52 104.749 119.736C104.325 119.944 103.817 120.048 103.225 120.048C102.361 120.048 101.649 119.828 101.089 119.388C100.537 118.94 100.241 118.3 100.201 117.468H101.521C101.553 117.892 101.717 118.24 102.013 118.512C102.309 118.776 102.709 118.908 103.213 118.908C103.701 118.908 104.077 118.776 104.341 118.512C104.605 118.24 104.737 117.892 104.737 117.468C104.737 116.908 104.557 116.512 104.197 116.28C103.845 116.04 103.301 115.92 102.565 115.92H102.253V114.792H102.577C103.225 114.784 103.717 114.676 104.053 114.468C104.397 114.26 104.569 113.932 104.569 113.484C104.569 113.1 104.445 112.796 104.197 112.572C103.949 112.34 103.597 112.224 103.141 112.224C102.693 112.224 102.345 112.34 102.097 112.572C101.849 112.796 101.701 113.076 101.653 113.412H100.321ZM107.446 113.412C107.494 112.668 107.778 112.088 108.298 111.672C108.826 111.256 109.498 111.048 110.314 111.048C110.874 111.048 111.358 111.148 111.766 111.348C112.174 111.548 112.482 111.82 112.69 112.164C112.898 112.508 113.002 112.896 113.002 113.328C113.002 113.824 112.87 114.248 112.606 114.6C112.342 114.952 112.026 115.188 111.658 115.308V115.356C112.13 115.5 112.498 115.764 112.762 116.148C113.026 116.524 113.158 117.008 113.158 117.6C113.158 118.072 113.05 118.492 112.834 118.86C112.618 119.228 112.298 119.52 111.874 119.736C111.45 119.944 110.942 120.048 110.35 120.048C109.486 120.048 108.774 119.828 108.214 119.388C107.662 118.94 107.366 118.3 107.326 117.468H108.646C108.678 117.892 108.842 118.24 109.138 118.512C109.434 118.776 109.834 118.908 110.338 118.908C110.826 118.908 111.202 118.776 111.466 118.512C111.73 118.24 111.862 117.892 111.862 117.468C111.862 116.908 111.682 116.512 111.322 116.28C110.97 116.04 110.426 115.92 109.69 115.92H109.378V114.792H109.702C110.35 114.784 110.842 114.676 111.178 114.468C111.522 114.26 111.694 113.932 111.694 113.484C111.694 113.1 111.57 112.796 111.322 112.572C111.074 112.34 110.722 112.224 110.266 112.224C109.818 112.224 109.47 112.34 109.222 112.572C108.974 112.796 108.826 113.076 108.778 113.412H107.446ZM114.427 118.176V117.144L118.459 111.36H120.115V116.988H121.231V118.176H120.115V120H118.771V118.176H114.427ZM118.831 112.752L115.999 116.988H118.831V112.752ZM124.045 118.356L122.593 121.668H121.705L122.557 118.356H124.045ZM129.764 113.28C129.676 112.912 129.516 112.636 129.284 112.452C129.052 112.268 128.728 112.176 128.312 112.176C127.68 112.176 127.208 112.42 126.896 112.908C126.584 113.388 126.42 114.188 126.404 115.308C126.612 114.956 126.916 114.684 127.316 114.492C127.716 114.3 128.148 114.204 128.612 114.204C129.14 114.204 129.604 114.32 130.004 114.552C130.412 114.776 130.728 115.104 130.952 115.536C131.184 115.968 131.3 116.484 131.3 117.084C131.3 117.644 131.188 118.144 130.964 118.584C130.748 119.024 130.424 119.372 129.992 119.628C129.56 119.876 129.04 120 128.432 120C127.608 120 126.96 119.82 126.488 119.46C126.024 119.092 125.696 118.576 125.504 117.912C125.32 117.248 125.228 116.42 125.228 115.428C125.228 112.5 126.26 111.036 128.324 111.036C129.124 111.036 129.752 111.252 130.208 111.684C130.672 112.116 130.944 112.648 131.024 113.28H129.764ZM128.312 115.356C127.824 115.356 127.408 115.504 127.064 115.8C126.728 116.088 126.56 116.508 126.56 117.06C126.56 117.612 126.716 118.052 127.028 118.38C127.348 118.7 127.792 118.86 128.36 118.86C128.864 118.86 129.26 118.704 129.548 118.392C129.844 118.08 129.992 117.664 129.992 117.144C129.992 116.6 129.848 116.168 129.56 115.848C129.28 115.52 128.864 115.356 128.312 115.356ZM138.303 112.308L134.967 120H133.587L136.959 112.452H132.519V111.288H138.303V112.308ZM71.512 126.727V133H70.693V126.727H71.512ZM75.3108 127.978C75.9108 127.978 76.3968 128.161 76.7688 128.527C77.1408 128.887 77.3268 129.409 77.3268 130.093V133H76.5168V130.21C76.5168 129.718 76.3938 129.343 76.1478 129.085C75.9018 128.821 75.5658 128.689 75.1398 128.689C74.7078 128.689 74.3628 128.824 74.1048 129.094C73.8528 129.364 73.7268 129.757 73.7268 130.273V133H72.9078V128.068H73.7268V128.77C73.8888 128.518 74.1078 128.323 74.3838 128.185C74.6658 128.047 74.9748 127.978 75.3108 127.978ZM78.3587 130.525C78.3587 130.015 78.4607 129.571 78.6647 129.193C78.8687 128.809 79.1507 128.512 79.5107 128.302C79.8767 128.092 80.2937 127.987 80.7617 127.987C81.3677 127.987 81.8657 128.134 82.2557 128.428C82.6517 128.722 82.9127 129.13 83.0387 129.652H82.1567C82.0727 129.352 81.9077 129.115 81.6617 128.941C81.4217 128.767 81.1217 128.68 80.7617 128.68C80.2937 128.68 79.9157 128.842 79.6277 129.166C79.3397 129.484 79.1957 129.937 79.1957 130.525C79.1957 131.119 79.3397 131.578 79.6277 131.902C79.9157 132.226 80.2937 132.388 80.7617 132.388C81.1217 132.388 81.4217 132.304 81.6617 132.136C81.9017 131.968 82.0667 131.728 82.1567 131.416H83.0387C82.9067 131.92 82.6427 132.325 82.2467 132.631C81.8507 132.931 81.3557 133.081 80.7617 133.081C80.2937 133.081 79.8767 132.976 79.5107 132.766C79.1507 132.556 78.8687 132.259 78.6647 131.875C78.4607 131.491 78.3587 131.041 78.3587 130.525ZM86.2825 133.081C85.8205 133.081 85.4005 132.976 85.0225 132.766C84.6505 132.556 84.3565 132.259 84.1405 131.875C83.9305 131.485 83.8255 131.035 83.8255 130.525C83.8255 130.021 83.9335 129.577 84.1495 129.193C84.3715 128.803 84.6715 128.506 85.0495 128.302C85.4275 128.092 85.8505 127.987 86.3185 127.987C86.7865 127.987 87.2095 128.092 87.5875 128.302C87.9655 128.506 88.2625 128.8 88.4785 129.184C88.7005 129.568 88.8115 130.015 88.8115 130.525C88.8115 131.035 88.6975 131.485 88.4695 131.875C88.2475 132.259 87.9445 132.556 87.5605 132.766C87.1765 132.976 86.7505 133.081 86.2825 133.081ZM86.2825 132.361C86.5765 132.361 86.8525 132.292 87.1105 132.154C87.3685 132.016 87.5755 131.809 87.7315 131.533C87.8935 131.257 87.9745 130.921 87.9745 130.525C87.9745 130.129 87.8965 129.793 87.7405 129.517C87.5845 129.241 87.3805 129.037 87.1285 128.905C86.8765 128.767 86.6035 128.698 86.3095 128.698C86.0095 128.698 85.7335 128.767 85.4815 128.905C85.2355 129.037 85.0375 129.241 84.8875 129.517C84.7375 129.793 84.6625 130.129 84.6625 130.525C84.6625 130.927 84.7345 131.266 84.8785 131.542C85.0285 131.818 85.2265 132.025 85.4725 132.163C85.7185 132.295 85.9885 132.361 86.2825 132.361ZM95.8193 127.978C96.2033 127.978 96.5453 128.059 96.8453 128.221C97.1453 128.377 97.3823 128.614 97.5563 128.932C97.7303 129.25 97.8173 129.637 97.8173 130.093V133H97.0073V130.21C97.0073 129.718 96.8843 129.343 96.6383 129.085C96.3983 128.821 96.0713 128.689 95.6573 128.689C95.2313 128.689 94.8923 128.827 94.6403 129.103C94.3883 129.373 94.2623 129.766 94.2623 130.282V133H93.4523V130.21C93.4523 129.718 93.3293 129.343 93.0833 129.085C92.8433 128.821 92.5163 128.689 92.1023 128.689C91.6763 128.689 91.3373 128.827 91.0853 129.103C90.8333 129.373 90.7073 129.766 90.7073 130.282V133H89.8883V128.068H90.7073V128.779C90.8693 128.521 91.0853 128.323 91.3553 128.185C91.6313 128.047 91.9343 127.978 92.2643 127.978C92.6783 127.978 93.0443 128.071 93.3623 128.257C93.6803 128.443 93.9173 128.716 94.0733 129.076C94.2113 128.728 94.4393 128.458 94.7573 128.266C95.0753 128.074 95.4293 127.978 95.8193 127.978ZM103.661 130.345C103.661 130.501 103.652 130.666 103.634 130.84H99.6918C99.7218 131.326 99.8868 131.707 100.187 131.983C100.493 132.253 100.862 132.388 101.294 132.388C101.648 132.388 101.942 132.307 102.176 132.145C102.416 131.977 102.584 131.755 102.68 131.479H103.562C103.43 131.953 103.166 132.34 102.77 132.64C102.374 132.934 101.882 133.081 101.294 133.081C100.826 133.081 100.406 132.976 100.034 132.766C99.6678 132.556 99.3798 132.259 99.1698 131.875C98.9598 131.485 98.8548 131.035 98.8548 130.525C98.8548 130.015 98.9568 129.568 99.1608 129.184C99.3648 128.8 99.6498 128.506 100.016 128.302C100.388 128.092 100.814 127.987 101.294 127.987C101.762 127.987 102.176 128.089 102.536 128.293C102.896 128.497 103.172 128.779 103.364 129.139C103.562 129.493 103.661 129.895 103.661 130.345ZM102.815 130.174C102.815 129.862 102.746 129.595 102.608 129.373C102.47 129.145 102.281 128.974 102.041 128.86C101.807 128.74 101.546 128.68 101.258 128.68C100.844 128.68 100.49 128.812 100.196 129.076C99.9078 129.34 99.7428 129.706 99.7008 130.174H102.815Z" fill="#008DE0"/>
<path d="M76.288 82.112C75.2427 82.112 74.2827 81.8667 73.408 81.376C72.5333 80.8853 71.84 80.208 71.328 79.344C70.816 78.4693 70.56 77.4827 70.56 76.384C70.56 75.296 70.816 74.32 71.328 73.456C71.84 72.5813 72.5333 71.8987 73.408 71.408C74.2827 70.9173 75.2427 70.672 76.288 70.672C77.344 70.672 78.304 70.9173 79.168 71.408C80.0427 71.8987 80.7307 72.5813 81.232 73.456C81.744 74.32 82 75.296 82 76.384C82 77.4827 81.744 78.4693 81.232 79.344C80.7307 80.208 80.0427 80.8853 79.168 81.376C78.2933 81.8667 77.3333 82.112 76.288 82.112ZM76.288 80.112C76.96 80.112 77.552 79.9627 78.064 79.664C78.576 79.3547 78.976 78.9173 79.264 78.352C79.552 77.7867 79.696 77.1307 79.696 76.384C79.696 75.6373 79.552 74.9867 79.264 74.432C78.976 73.8667 78.576 73.4347 78.064 73.136C77.552 72.8373 76.96 72.688 76.288 72.688C75.616 72.688 75.0187 72.8373 74.496 73.136C73.984 73.4347 73.584 73.8667 73.296 74.432C73.008 74.9867 72.864 75.6373 72.864 76.384C72.864 77.1307 73.008 77.7867 73.296 78.352C73.584 78.9173 73.984 79.3547 74.496 79.664C75.0187 79.9627 75.616 80.112 76.288 80.112ZM88.5785 73.008C89.6345 73.008 90.4878 73.344 91.1385 74.016C91.7892 74.6773 92.1145 75.6053 92.1145 76.8V82H89.8745V77.104C89.8745 76.4 89.6985 75.8613 89.3465 75.488C88.9945 75.104 88.5145 74.912 87.9065 74.912C87.2878 74.912 86.7972 75.104 86.4345 75.488C86.0825 75.8613 85.9065 76.4 85.9065 77.104V82H83.6665V73.136H85.9065V74.24C86.2052 73.856 86.5838 73.5573 87.0425 73.344C87.5118 73.12 88.0238 73.008 88.5785 73.008ZM96.4846 70.16V82H94.2446V70.16H96.4846ZM99.8338 72.08C99.4391 72.08 99.1084 71.9573 98.8418 71.712C98.5858 71.456 98.4578 71.1413 98.4578 70.768C98.4578 70.3947 98.5858 70.0853 98.8418 69.84C99.1084 69.584 99.4391 69.456 99.8338 69.456C100.228 69.456 100.554 69.584 100.81 69.84C101.076 70.0853 101.21 70.3947 101.21 70.768C101.21 71.1413 101.076 71.456 100.81 71.712C100.554 71.9573 100.228 72.08 99.8338 72.08ZM100.938 73.136V82H98.6978V73.136H100.938ZM108.063 73.008C109.119 73.008 109.972 73.344 110.623 74.016C111.274 74.6773 111.599 75.6053 111.599 76.8V82H109.359V77.104C109.359 76.4 109.183 75.8613 108.831 75.488C108.479 75.104 107.999 74.912 107.391 74.912C106.772 74.912 106.282 75.104 105.919 75.488C105.567 75.8613 105.391 76.4 105.391 77.104V82H103.151V73.136H105.391V74.24C105.69 73.856 106.068 73.5573 106.527 73.344C106.996 73.12 107.508 73.008 108.063 73.008ZM121.969 77.376C121.969 77.696 121.948 77.984 121.905 78.24H115.425C115.478 78.88 115.702 79.3813 116.097 79.744C116.492 80.1067 116.977 80.288 117.553 80.288C118.385 80.288 118.977 79.9307 119.329 79.216H121.745C121.489 80.0693 120.998 80.7733 120.273 81.328C119.548 81.872 118.657 82.144 117.601 82.144C116.748 82.144 115.98 81.9573 115.297 81.584C114.625 81.2 114.097 80.6613 113.713 79.968C113.34 79.2747 113.153 78.4747 113.153 77.568C113.153 76.6507 113.34 75.8453 113.713 75.152C114.086 74.4587 114.609 73.9253 115.281 73.552C115.953 73.1787 116.726 72.992 117.601 72.992C118.444 72.992 119.196 73.1733 119.857 73.536C120.529 73.8987 121.046 74.416 121.409 75.088C121.782 75.7493 121.969 76.512 121.969 77.376ZM119.649 76.736C119.638 76.16 119.43 75.7013 119.025 75.36C118.62 75.008 118.124 74.832 117.537 74.832C116.982 74.832 116.513 75.0027 116.129 75.344C115.756 75.6747 115.526 76.1387 115.441 76.736H119.649ZM134.265 79.872H129.817L129.081 82H126.729L130.745 70.816H133.353L137.369 82H135.001L134.265 79.872ZM133.657 78.08L132.041 73.408L130.424 78.08H133.657ZM143.782 73.008C144.838 73.008 145.691 73.344 146.342 74.016C146.992 74.6773 147.318 75.6053 147.318 76.8V82H145.078V77.104C145.078 76.4 144.902 75.8613 144.55 75.488C144.198 75.104 143.718 74.912 143.11 74.912C142.491 74.912 142 75.104 141.638 75.488C141.286 75.8613 141.11 76.4 141.11 77.104V82H138.87V73.136H141.11V74.24C141.408 73.856 141.787 73.5573 142.246 73.344C142.715 73.12 143.227 73.008 143.782 73.008ZM148.872 77.536C148.872 76.64 149.048 75.8453 149.4 75.152C149.762 74.4587 150.248 73.9253 150.856 73.552C151.474 73.1787 152.162 72.992 152.92 72.992C153.581 72.992 154.157 73.1253 154.648 73.392C155.149 73.6587 155.549 73.9947 155.848 74.4V73.136H158.104V82H155.848V80.704C155.56 81.12 155.16 81.4667 154.648 81.744C154.146 82.0107 153.565 82.144 152.904 82.144C152.157 82.144 151.474 81.952 150.856 81.568C150.248 81.184 149.762 80.6453 149.4 79.952C149.048 79.248 148.872 78.4427 148.872 77.536ZM155.848 77.568C155.848 77.024 155.741 76.56 155.528 76.176C155.314 75.7813 155.026 75.4827 154.664 75.28C154.301 75.0667 153.912 74.96 153.496 74.96C153.08 74.96 152.696 75.0613 152.344 75.264C151.992 75.4667 151.704 75.7653 151.48 76.16C151.266 76.544 151.16 77.0027 151.16 77.536C151.16 78.0693 151.266 78.5387 151.48 78.944C151.704 79.3387 151.992 79.6427 152.344 79.856C152.706 80.0693 153.09 80.176 153.496 80.176C153.912 80.176 154.301 80.0747 154.664 79.872C155.026 79.6587 155.314 79.36 155.528 78.976C155.741 78.5813 155.848 78.112 155.848 77.568ZM162.532 70.16V82H160.292V70.16H162.532ZM173.225 73.136L167.737 86.192H165.353L167.273 81.776L163.721 73.136H166.233L168.521 79.328L170.841 73.136H173.225ZM177.824 82.144C177.099 82.144 176.448 82.016 175.872 81.76C175.296 81.4933 174.837 81.136 174.496 80.688C174.165 80.24 173.984 79.744 173.952 79.2H176.208C176.251 79.5413 176.416 79.824 176.704 80.048C177.003 80.272 177.371 80.384 177.808 80.384C178.235 80.384 178.565 80.2987 178.8 80.128C179.045 79.9573 179.168 79.7387 179.168 79.472C179.168 79.184 179.019 78.9707 178.72 78.832C178.432 78.6827 177.968 78.5227 177.328 78.352C176.667 78.192 176.123 78.0267 175.696 77.856C175.28 77.6853 174.917 77.424 174.608 77.072C174.309 76.72 174.16 76.2453 174.16 75.648C174.16 75.1573 174.299 74.7093 174.576 74.304C174.864 73.8987 175.269 73.5787 175.792 73.344C176.325 73.1093 176.949 72.992 177.664 72.992C178.72 72.992 179.563 73.2587 180.192 73.792C180.821 74.3147 181.168 75.024 181.232 75.92H179.088C179.056 75.568 178.907 75.2907 178.64 75.088C178.384 74.8747 178.037 74.768 177.6 74.768C177.195 74.768 176.88 74.8427 176.656 74.992C176.443 75.1413 176.336 75.3493 176.336 75.616C176.336 75.9147 176.485 76.144 176.784 76.304C177.083 76.4533 177.547 76.608 178.176 76.768C178.816 76.928 179.344 77.0933 179.76 77.264C180.176 77.4347 180.533 77.7013 180.832 78.064C181.141 78.416 181.301 78.8853 181.312 79.472C181.312 79.984 181.168 80.4427 180.88 80.848C180.603 81.2533 180.197 81.5733 179.664 81.808C179.141 82.032 178.528 82.144 177.824 82.144ZM184.287 72.08C183.892 72.08 183.562 71.9573 183.295 71.712C183.039 71.456 182.911 71.1413 182.911 70.768C182.911 70.3947 183.039 70.0853 183.295 69.84C183.562 69.584 183.892 69.456 184.287 69.456C184.682 69.456 185.007 69.584 185.263 69.84C185.53 70.0853 185.663 70.3947 185.663 70.768C185.663 71.1413 185.53 71.456 185.263 71.712C185.007 71.9573 184.682 72.08 184.287 72.08ZM185.391 73.136V82H183.151V73.136H185.391ZM190.996 82.144C190.271 82.144 189.62 82.016 189.044 81.76C188.468 81.4933 188.009 81.136 187.668 80.688C187.337 80.24 187.156 79.744 187.124 79.2H189.38C189.423 79.5413 189.588 79.824 189.876 80.048C190.175 80.272 190.543 80.384 190.98 80.384C191.407 80.384 191.737 80.2987 191.972 80.128C192.217 79.9573 192.34 79.7387 192.34 79.472C192.34 79.184 192.191 78.9707 191.892 78.832C191.604 78.6827 191.14 78.5227 190.5 78.352C189.839 78.192 189.295 78.0267 188.868 77.856C188.452 77.6853 188.089 77.424 187.78 77.072C187.481 76.72 187.332 76.2453 187.332 75.648C187.332 75.1573 187.471 74.7093 187.748 74.304C188.036 73.8987 188.441 73.5787 188.964 73.344C189.497 73.1093 190.121 72.992 190.836 72.992C191.892 72.992 192.735 73.2587 193.364 73.792C193.993 74.3147 194.34 75.024 194.404 75.92H192.26C192.228 75.568 192.079 75.2907 191.812 75.088C191.556 74.8747 191.209 74.768 190.772 74.768C190.367 74.768 190.052 74.8427 189.828 74.992C189.615 75.1413 189.508 75.3493 189.508 75.616C189.508 75.9147 189.657 76.144 189.956 76.304C190.255 76.4533 190.719 76.608 191.348 76.768C191.988 76.928 192.516 77.0933 192.932 77.264C193.348 77.4347 193.705 77.7013 194.004 78.064C194.313 78.416 194.473 78.8853 194.484 79.472C194.484 79.984 194.34 80.4427 194.052 80.848C193.775 81.2533 193.369 81.5733 192.836 81.808C192.313 82.032 191.7 82.144 190.996 82.144Z" fill="#14101D"/>
<path d="M233.13 74.8V73.95H235.15V81H234.19V74.8H233.13ZM246.132 74.07V81H245.222V75.47L243.012 81H242.202L239.982 75.49V81H239.072V74.07H240.162L242.622 79.89L245.042 74.07H246.132ZM250.077 75.44C250.604 75.44 251.074 75.5533 251.487 75.78C251.907 76.0067 252.234 76.3333 252.467 76.76C252.707 77.1867 252.827 77.6867 252.827 78.26C252.827 78.8333 252.707 79.3333 252.467 79.76C252.234 80.18 251.907 80.5033 251.487 80.73C251.074 80.9567 250.604 81.07 250.077 81.07C249.551 81.07 249.077 80.9567 248.657 80.73C248.244 80.5033 247.917 80.18 247.677 79.76C247.437 79.3333 247.317 78.8333 247.317 78.26C247.317 77.6867 247.437 77.1867 247.677 76.76C247.917 76.3333 248.244 76.0067 248.657 75.78C249.077 75.5533 249.551 75.44 250.077 75.44ZM250.077 76.24C249.751 76.24 249.447 76.3133 249.167 76.46C248.894 76.6067 248.671 76.8333 248.497 77.14C248.331 77.44 248.247 77.8133 248.247 78.26C248.247 78.7 248.331 79.0733 248.497 79.38C248.671 79.68 248.894 79.9033 249.167 80.05C249.447 80.1967 249.751 80.27 250.077 80.27C250.404 80.27 250.704 80.1967 250.977 80.05C251.257 79.9033 251.481 79.68 251.647 79.38C251.821 79.0733 251.907 78.7 251.907 78.26C251.907 77.8133 251.821 77.44 251.647 77.14C251.481 76.8333 251.257 76.6067 250.977 76.46C250.704 76.3133 250.404 76.24 250.077 76.24ZM256.903 75.42C257.543 75.42 258.06 75.6267 258.453 76.04C258.847 76.4467 259.043 77.0367 259.043 77.81V81H258.133V77.89C258.133 77.3433 257.993 76.9233 257.713 76.63C257.433 76.3367 257.053 76.19 256.573 76.19C256.073 76.19 255.673 76.3533 255.373 76.68C255.073 77 254.923 77.47 254.923 78.09V81H254.013V75.51H254.923V76.81C255.063 76.3633 255.31 76.02 255.663 75.78C256.023 75.54 256.437 75.42 256.903 75.42ZM263.059 80.2V81H262.379C261.819 81 261.399 80.8667 261.119 80.6C260.846 80.3333 260.709 79.8867 260.709 79.26V76.3H259.889V75.51H260.709V74.14H261.629V75.51H263.049V76.3H261.629V79.28C261.629 79.6333 261.692 79.8767 261.819 80.01C261.952 80.1367 262.179 80.2 262.499 80.2H263.059ZM267.059 75.42C267.699 75.42 268.216 75.6267 268.609 76.04C269.003 76.4467 269.199 77.0367 269.199 77.81V81H268.289V77.89C268.289 77.3433 268.149 76.9233 267.869 76.63C267.589 76.3367 267.209 76.19 266.729 76.19C266.229 76.19 265.829 76.3533 265.529 76.68C265.229 77 265.079 77.47 265.079 78.09V81H264.169V73.6H265.079V76.81C265.219 76.3633 265.466 76.02 265.819 75.78C266.179 75.54 266.593 75.42 267.059 75.42Z" fill="#14101D"/>
<g clip-path="url(#clip0_8_547)">
<path d="M276.083 76.8333L279 79.75L281.917 76.8333H276.083Z" fill="#14101D"/>
</g>
<defs>
<filter id="filter0_d_8_547" x="0" y="0" width="356" height="338" filterUnits="userSpaceOnUse" color-interpolation-filters="sRGB">
<feFlood flood-opacity="0" result="BackgroundImageFix"/>
<feColorMatrix in="SourceAlpha" type="matrix" values="0 0 0 0 0 0 0 0 0 0 0 0 0 0 0 0 0 0 127 0" result="hardAlpha"/>
<feOffset dy="4"/>
<feGaussianBlur stdDeviation="25"/>
<feComposite in2="hardAlpha" operator="out"/>
<feColorMatrix type="matrix" values="0 0 0 0 0 0 0 0 0 0.262745 0 0 0 0 0.396078 0 0 0 0.12 0"/>
<feBlend mode="normal" in2="BackgroundImageFix" result="effect1_dropShadow_8_547"/>
<feBlend mode="normal" in="SourceGraphic" in2="effect1_dropShadow_8_547" result="shape"/>
</filter>
<linearGradient id="paint0_linear_8_547" x1="135" y1="253.5" x2="163" y2="253.5" gradientUnits="userSpaceOnUse">
<stop stop-color="#008DE0"/>
<stop offset="1" stop-color="#00D9F5"/>
</linearGradient>
<linearGradient id="paint1_linear_8_547" x1="70" y1="187.5" x2="285" y2="187.5" gradientUnits="userSpaceOnUse">
<stop stop-color="#008DE0"/>
<stop offset="1" stop-color="#00D9F5"/>
</linearGradient>
<linearGradient id="paint2_linear_8_547" x1="146" y1="202" x2="254" y2="202" gradientUnits="userSpaceOnUse">
<stop stop-color="#008DE0"/>
<stop offset="1" stop-color="#00D9F5"/>
</linearGradient>
<clipPath id="clip0_8_547">
<rect width="14" height="14" fill="white" transform="translate(272 71)"/>
</clipPath>
</defs>
</svg>
