<svg width="129" height="44" viewBox="0 0 129 44" fill="none" xmlns="http://www.w3.org/2000/svg">
<path d="M8.27448 43.0218C7.9415 43.0218 7.61661 43.0175 7.28626 43.01C6.60194 43.0011 5.91923 42.9412 5.2437 42.8308C4.61381 42.7217 4.00362 42.5186 3.43326 42.2284C2.8681 41.9407 2.35264 41.5634 1.90661 41.111C1.45409 40.6639 1.07734 40.1453 0.791298 39.5759C0.502132 39.0027 0.302011 38.3884 0.197907 37.7542C0.0855203 37.0728 0.0247315 36.3838 0.0160642 35.6932C0.00907025 35.4614 0 34.6896 0 34.6896V9.29659C0 9.29659 0.00961666 8.53658 0.0160642 8.31322C0.0243908 7.62368 0.0848515 6.93577 0.196923 6.25546C0.301232 5.61957 0.501523 5.00345 0.790861 4.42843C1.07581 3.85935 1.45042 3.34041 1.90016 2.8917C2.34944 2.43874 2.86657 2.05947 3.43271 1.76774C4.00178 1.47853 4.61082 1.27699 5.23944 1.16987C5.91719 1.05843 6.60229 0.998206 7.28899 0.989705L8.27503 0.976074H120.581L121.579 0.990034C122.259 0.998166 122.938 1.05791 123.61 1.16877C124.245 1.27726 124.86 1.48024 125.436 1.77104C126.57 2.35895 127.493 3.28908 128.075 4.43107C128.359 5.00215 128.557 5.61328 128.66 6.2437C128.773 6.92958 128.836 7.62287 128.849 8.31806C128.853 8.62936 128.853 8.96374 128.853 9.29659C128.862 9.7088 128.862 10.1011 128.862 10.4967V33.5021C128.862 33.9014 128.862 34.2911 128.853 34.684C128.853 35.0415 128.853 35.3689 128.848 35.7059C128.836 36.3888 128.773 37.0697 128.662 37.7434C128.56 38.3821 128.361 39.0012 128.071 39.5791C127.783 40.1423 127.409 40.6564 126.962 41.1023C126.515 41.5571 125.999 41.9366 125.432 42.2262C124.858 42.5186 124.244 42.7224 123.61 42.8306C122.934 42.9416 122.251 43.0015 121.567 43.0099C121.24 43.0176 120.913 43.0215 120.586 43.0216L119.402 43.0238L8.27448 43.0218Z" fill="black"/>
<path d="M26.1159 22.3295C26.1277 21.4121 26.37 20.5125 26.8202 19.7145C27.2705 18.9165 27.9141 18.2461 28.6911 17.7655C28.1975 17.0563 27.5462 16.4727 26.7891 16.061C26.032 15.6493 25.1899 15.4208 24.3296 15.3937C22.4945 15.1999 20.7155 16.4982 19.7803 16.4982C18.8272 16.4982 17.3874 15.4129 15.837 15.445C14.8342 15.4776 13.8568 15.7709 13.0002 16.2964C12.1436 16.8219 11.4368 17.5616 10.9489 18.4435C8.83545 22.1243 10.4119 27.5336 12.4366 30.5088C13.4495 31.9657 14.6332 33.593 16.1822 33.5353C17.698 33.4721 18.264 32.563 20.0938 32.563C21.9066 32.563 22.4377 33.5353 24.0181 33.4986C25.6446 33.4721 26.6693 32.0353 27.6467 30.5646C28.3745 29.5266 28.9345 28.3793 29.306 27.1653C28.3611 26.7632 27.5547 26.0903 26.9874 25.2304C26.4201 24.3704 26.117 23.3616 26.1159 22.3295ZM23.1308 13.437C24.0177 12.3661 24.4546 10.9896 24.3488 9.59997C22.9939 9.74311 21.7423 10.3945 20.8435 11.4243C20.404 11.9273 20.0674 12.5126 19.853 13.1466C19.6385 13.7806 19.5504 14.4509 19.5937 15.1192C20.2713 15.1262 20.9418 14.9785 21.5545 14.6871C22.1672 14.3957 22.7062 13.9683 23.1308 13.437ZM45.2765 29.8472H40.1038L38.8616 33.5366H36.6705L41.5701 19.8864H43.8464L48.7459 33.5366H46.5176L45.2765 29.8472ZM40.6395 28.1446H44.7397L42.7184 22.1568H42.6618L40.6395 28.1446ZM59.3271 28.5612C59.3271 31.6538 57.6814 33.6407 55.1981 33.6407C54.569 33.6738 53.9434 33.5281 53.3928 33.2201C52.8423 32.9122 52.3891 32.4545 52.0851 31.8995H52.0381V36.8289H50.0072V23.5845H51.9731V25.2398H52.0104C52.3284 24.6875 52.7892 24.2322 53.344 23.9224C53.8987 23.6126 54.5266 23.4598 55.1608 23.4804C57.6718 23.4804 59.3271 25.4772 59.3271 28.5612ZM57.2396 28.5612C57.2396 26.5463 56.2045 25.2216 54.6251 25.2216C53.0733 25.2216 52.0297 26.5741 52.0297 28.5611C52.0297 30.5664 53.0733 31.9093 54.6251 31.9093C56.2045 31.9093 57.2396 30.5944 57.2396 28.5612ZM70.2166 28.5612C70.2166 31.6538 68.5711 33.6407 66.0877 33.6407C65.4586 33.6738 64.833 33.5281 64.2825 33.2201C63.7319 32.9122 63.2787 32.4545 62.9747 31.8995H62.9277V36.8289H60.8969V23.5845H62.8626V25.2398H62.9C63.2179 24.6875 63.6788 24.2322 64.2335 23.9224C64.7883 23.6126 65.4161 23.4598 66.0503 23.4804C68.5615 23.4804 70.2166 25.4772 70.2166 28.5612ZM68.1293 28.5612C68.1293 26.5463 67.0941 25.2216 65.5146 25.2216C63.9629 25.2216 62.9192 26.5741 62.9192 28.5611C62.9192 30.5664 63.9629 31.9093 65.5146 31.9093C67.0941 31.9093 68.1293 30.5944 68.1293 28.5612ZM77.4138 29.7334C77.5643 31.087 78.8716 31.9758 80.658 31.9758C82.3698 31.9758 83.6014 31.087 83.6014 29.8664C83.6014 28.8069 82.8586 28.1725 81.1 27.7377L79.3411 27.3116C76.8493 26.7061 75.6924 25.5339 75.6924 23.6317C75.6924 21.2765 77.7329 19.6588 80.6303 19.6588C83.4978 19.6588 85.4636 21.2765 85.5297 23.6317H83.4796C83.3569 22.2695 82.2375 21.4472 80.6014 21.4472C78.9655 21.4472 77.846 22.2792 77.846 23.49C77.846 24.4551 78.5611 25.023 80.3101 25.4576L81.8053 25.8269C84.5895 26.4892 85.7464 27.6143 85.7464 29.6108C85.7464 32.1647 83.7241 33.7642 80.5075 33.7642C77.498 33.7642 75.4661 32.2022 75.3349 29.7333L77.4138 29.7334ZM90.1293 21.2294V23.5845H92.0108V25.2023H90.1293V30.6887C90.1293 31.5411 90.506 31.9382 91.3332 31.9382C91.5565 31.9343 91.7795 31.9185 92.0012 31.891V33.4991C91.6294 33.569 91.2514 33.6006 90.8732 33.5935C88.8701 33.5935 88.0889 32.8367 88.0889 30.9066V25.2023H86.6503V23.5845H88.0889V21.2294H90.1293ZM93.1005 28.5612C93.1005 25.4298 94.9339 23.4622 97.793 23.4622C100.662 23.4622 102.486 25.4298 102.486 28.5612C102.486 31.701 100.671 33.6601 97.7928 33.6601C94.9157 33.6601 93.1005 31.701 93.1005 28.5612ZM100.417 28.5612C100.417 26.4132 99.4385 25.1453 97.7928 25.1453C96.1473 25.1453 95.1697 26.4227 95.1697 28.5612C95.1697 30.7178 96.1473 31.9758 97.7928 31.9758C99.4385 31.9758 100.417 30.7178 100.417 28.5612ZM104.161 23.5845H106.098V25.2784H106.145C106.276 24.7494 106.584 24.2818 107.017 23.9544C107.451 23.627 107.983 23.4596 108.525 23.4804C108.759 23.4796 108.992 23.5051 109.22 23.5566V25.4674C108.925 25.3766 108.617 25.3349 108.308 25.3439C108.013 25.3319 107.719 25.3842 107.446 25.4973C107.173 25.6104 106.927 25.7816 106.726 25.9991C106.525 26.2167 106.373 26.4754 106.281 26.7575C106.189 27.0397 106.158 27.3385 106.192 27.6336V33.5366H104.161V23.5845ZM118.584 30.6136C118.311 32.4202 116.562 33.6601 114.324 33.6601C111.445 33.6601 109.659 31.7204 109.659 28.6083C109.659 25.4867 111.455 23.4622 114.238 23.4622C116.976 23.4622 118.697 25.3536 118.697 28.3711V29.071H111.709V29.1944C111.677 29.5607 111.722 29.9297 111.843 30.2769C111.963 30.6241 112.156 30.9415 112.407 31.2081C112.659 31.4747 112.964 31.6844 113.303 31.8233C113.641 31.9621 114.005 32.0269 114.371 32.0134C114.85 32.0587 115.332 31.9469 115.744 31.6947C116.156 31.4424 116.475 31.0633 116.655 30.6136H118.584ZM111.719 27.6433H116.665C116.683 27.314 116.634 26.9844 116.519 26.6753C116.405 26.3662 116.228 26.0842 116 25.847C115.772 25.6098 115.498 25.4226 115.195 25.297C114.892 25.1715 114.566 25.1103 114.238 25.1174C113.907 25.1154 113.58 25.1793 113.274 25.3055C112.968 25.4316 112.689 25.6175 112.455 25.8523C112.221 26.0871 112.035 26.3663 111.909 26.6737C111.782 26.9811 111.718 27.3106 111.719 27.6433ZM40.385 9.61174C40.8108 9.581 41.238 9.64569 41.6359 9.80116C42.0338 9.95663 42.3925 10.199 42.686 10.5108C42.9795 10.8226 43.2006 11.196 43.3332 11.6041C43.4659 12.0122 43.5068 12.4449 43.4531 12.8708C43.4531 14.9662 42.3272 16.1707 40.385 16.1707H38.0297V9.61163L40.385 9.61174ZM39.0425 15.2431H40.2719C40.5761 15.2614 40.8806 15.2112 41.1631 15.0962C41.4456 14.9812 41.6991 14.8043 41.9051 14.5783C42.111 14.3523 42.2643 14.083 42.3538 13.79C42.4432 13.4969 42.4666 13.1874 42.4222 12.8841C42.4634 12.582 42.4377 12.2745 42.3468 11.9836C42.256 11.6927 42.1023 11.4256 41.8968 11.2014C41.6913 10.9772 41.4391 10.8016 41.1581 10.687C40.8772 10.5724 40.5746 10.5217 40.2719 10.5386H39.0425V15.2431ZM44.5972 13.6936C44.5662 13.3683 44.6032 13.0401 44.7058 12.7301C44.8083 12.42 44.9742 12.1349 45.1926 11.8931C45.4111 11.6513 45.6775 11.4581 45.9745 11.3259C46.2716 11.1937 46.5929 11.1254 46.9178 11.1254C47.2426 11.1254 47.5639 11.1937 47.861 11.3259C48.158 11.4581 48.4244 11.6513 48.6429 11.8931C48.8614 12.1349 49.0272 12.42 49.1297 12.7301C49.2323 13.0401 49.2693 13.3683 49.2383 13.6936C49.2699 14.0193 49.2335 14.348 49.1312 14.6586C49.029 14.9693 48.8633 15.2549 48.6447 15.4973C48.4261 15.7397 48.1596 15.9333 47.8622 16.0659C47.5648 16.1984 47.2431 16.2669 46.9178 16.2669C46.5925 16.2669 46.2708 16.1984 45.9733 16.0659C45.6759 15.9333 45.4094 15.7397 45.1908 15.4973C44.9722 15.2549 44.8065 14.9693 44.7043 14.6586C44.6021 14.348 44.5656 14.0193 44.5972 13.6936ZM48.2395 13.6936C48.2395 12.6207 47.7603 11.9932 46.9194 11.9932C46.0752 11.9932 45.6004 12.6207 45.6004 13.6936C45.6004 14.7752 46.0753 15.3978 46.9194 15.3978C47.7603 15.3978 48.2395 14.7709 48.2395 13.6936ZM55.4078 16.1706H54.4003L53.3833 12.5251H53.3065L52.2938 16.1706H51.296L49.9396 11.2208H50.9245L51.8061 14.9978H51.8786L52.8904 11.2208H53.822L54.8337 14.9978H54.9105L55.7877 11.2208H56.7589L55.4078 16.1706ZM57.8997 11.2209H58.8345V12.0072H58.9071C59.0302 11.7247 59.2379 11.488 59.5011 11.3299C59.7643 11.1718 60.07 11.1003 60.3756 11.1253C60.615 11.1072 60.8555 11.1435 61.079 11.2315C61.3026 11.3196 61.5037 11.4571 61.6672 11.6339C61.8308 11.8107 61.9527 12.0223 62.024 12.2529C62.0952 12.4835 62.114 12.7273 62.0789 12.9663V16.1705H61.1077V13.2116C61.1077 12.4162 60.764 12.0206 60.0458 12.0206C59.8833 12.013 59.721 12.0408 59.5701 12.1022C59.4193 12.1636 59.2834 12.257 59.1718 12.3762C59.0602 12.4953 58.9755 12.6373 58.9236 12.7924C58.8716 12.9476 58.8536 13.1122 58.8708 13.2749V16.1706H57.8997V11.2209ZM63.6263 9.28856H64.5973V16.1706H63.6263V9.28856ZM65.9474 13.6936C65.9164 13.3683 65.9534 13.0401 66.056 12.73C66.1585 12.4198 66.3244 12.1347 66.5429 11.8929C66.7615 11.651 67.0278 11.4578 67.3249 11.3256C67.6221 11.1933 67.9434 11.125 68.2683 11.125C68.5932 11.125 68.9145 11.1933 69.2116 11.3256C69.5087 11.4578 69.7751 11.651 69.9936 11.8929C70.2121 12.1347 70.378 12.4198 70.4806 12.73C70.5831 13.0401 70.6201 13.3683 70.5892 13.6936C70.6206 14.0192 70.584 14.3479 70.4817 14.6584C70.3793 14.9689 70.2136 15.2545 69.995 15.4968C69.7764 15.739 69.5099 15.9326 69.2125 16.0651C68.9151 16.1975 68.5935 16.266 68.2683 16.266C67.943 16.266 67.6214 16.1975 67.324 16.0651C67.0267 15.9326 66.7601 15.739 66.5415 15.4968C66.323 15.2545 66.1572 14.9689 66.0549 14.6584C65.9525 14.3479 65.9159 14.0192 65.9474 13.6936ZM69.5897 13.6936C69.5897 12.6207 69.1105 11.9932 68.2696 11.9932C67.4254 11.9932 66.9506 12.6207 66.9506 13.6936C66.9506 14.7752 67.4255 15.3978 68.2696 15.3978C69.1105 15.3978 69.5897 14.7709 69.5897 13.6936ZM71.6115 14.7709C71.6115 13.8798 72.271 13.3662 73.4417 13.2932L74.7746 13.2159V12.7886C74.7746 12.2658 74.431 11.9707 73.7673 11.9707C73.2251 11.9707 72.8494 12.1709 72.7417 12.5209H71.8014C71.9006 11.6706 72.6958 11.1254 73.8121 11.1254C75.0457 11.1254 75.7415 11.7431 75.7415 12.7886V16.1706H74.8066V15.475H74.7298C74.5738 15.7245 74.3548 15.928 74.0952 16.0645C73.8355 16.201 73.5445 16.2658 73.2518 16.2522C73.0452 16.2738 72.8364 16.2516 72.6389 16.1871C72.4414 16.1226 72.2595 16.0171 72.1049 15.8776C71.9504 15.738 71.8266 15.5674 71.7416 15.3768C71.6566 15.1862 71.6123 14.9798 71.6115 14.7709ZM74.7746 14.3479V13.934L73.573 14.0113C72.8953 14.0569 72.5879 14.2889 72.5879 14.7251C72.5879 15.1707 72.9721 15.43 73.5004 15.43C73.6552 15.4457 73.8116 15.43 73.9602 15.3837C74.1088 15.3375 74.2467 15.2616 74.3656 15.1607C74.4844 15.0597 74.5819 14.9357 74.6522 14.7961C74.7225 14.6565 74.7641 14.504 74.7746 14.3479ZM77.0179 13.6936C77.0179 12.1295 77.8172 11.1388 79.0605 11.1388C79.368 11.1245 79.6732 11.1986 79.9405 11.3524C80.2077 11.5062 80.4259 11.7333 80.5695 12.0072H80.6421V9.28845H81.6131V16.1705H80.6826V15.3884H80.6058C80.4511 15.6605 80.2253 15.8848 79.9529 16.037C79.6805 16.1892 79.372 16.2636 79.0606 16.2521C77.8087 16.2521 77.0179 15.2613 77.0179 13.6936ZM78.0211 13.6936C78.0211 14.7434 78.5131 15.3752 79.3357 15.3752C80.1542 15.3752 80.6602 14.7344 80.6602 13.6978C80.6602 12.6663 80.149 12.0163 79.3357 12.0163C78.5183 12.0163 78.0211 12.6523 78.0211 13.6936ZM85.6312 13.6936C85.6002 13.3683 85.6372 13.0401 85.7397 12.7301C85.8423 12.42 86.0081 12.1349 86.2266 11.8931C86.4451 11.6513 86.7114 11.4581 87.0085 11.3259C87.3056 11.1937 87.6269 11.1254 87.9517 11.1254C88.2766 11.1254 88.5978 11.1937 88.8949 11.3259C89.192 11.4581 89.4583 11.6513 89.6768 11.8931C89.8953 12.1349 90.0612 12.42 90.1637 12.7301C90.2663 13.0401 90.3032 13.3683 90.2723 13.6936C90.3039 14.0193 90.2674 14.348 90.1652 14.6586C90.0629 14.9693 89.8972 15.2549 89.6787 15.4973C89.4601 15.7397 89.1936 15.9333 88.8961 16.0659C88.5987 16.1984 88.277 16.2669 87.9517 16.2669C87.6264 16.2669 87.3047 16.1984 87.0073 16.0659C86.7099 15.9333 86.4433 15.7397 86.2248 15.4973C86.0062 15.2549 85.8405 14.9693 85.7383 14.6586C85.636 14.348 85.5995 14.0193 85.6312 13.6936ZM89.2735 13.6936C89.2735 12.6207 88.7943 11.9932 87.9534 11.9932C87.1092 11.9932 86.6343 12.6207 86.6343 13.6936C86.6343 14.7752 87.1093 15.3978 87.9534 15.3978C88.7943 15.3978 89.2735 14.7709 89.2735 13.6936ZM91.5753 11.2209H92.5102V12.0072H92.5828C92.7059 11.7247 92.9135 11.488 93.1768 11.3299C93.44 11.1718 93.7457 11.1003 94.0513 11.1253C94.2907 11.1072 94.5312 11.1435 94.7547 11.2315C94.9783 11.3196 95.1793 11.4571 95.3429 11.6339C95.5065 11.8107 95.6284 12.0223 95.6997 12.2529C95.7709 12.4835 95.7897 12.7273 95.7545 12.9663V16.1705H94.7834V13.2116C94.7834 12.4162 94.4397 12.0206 93.7215 12.0206C93.5589 12.013 93.3967 12.0408 93.2458 12.1022C93.0949 12.1636 92.9591 12.257 92.8475 12.3762C92.7359 12.4953 92.6512 12.6373 92.5992 12.7924C92.5473 12.9476 92.5293 13.1122 92.5465 13.2749V16.1706H91.5755L91.5753 11.2209ZM101.242 9.98855V11.2434H102.308V12.0662H101.242V14.6114C101.242 15.1299 101.454 15.357 101.938 15.357C102.062 15.3565 102.185 15.349 102.308 15.3343V16.1481C102.134 16.1795 101.957 16.1962 101.78 16.198C100.7 16.198 100.27 15.8158 100.27 14.8616V12.0662H99.4886V11.2433H100.27V9.98866L101.242 9.98855ZM103.635 9.28856H104.597V12.0163H104.674C104.803 11.7312 105.017 11.4931 105.285 11.3345C105.554 11.1758 105.864 11.1042 106.175 11.1296C106.413 11.1165 106.651 11.1565 106.872 11.2467C107.093 11.3369 107.292 11.475 107.453 11.6513C107.615 11.8276 107.736 12.0376 107.808 12.2664C107.88 12.4952 107.901 12.7371 107.869 12.9749V16.1706H106.897V13.2159C106.897 12.4252 106.531 12.0249 105.845 12.0249C105.678 12.0111 105.51 12.0342 105.353 12.0925C105.196 12.1509 105.053 12.243 104.935 12.3625C104.817 12.482 104.727 12.6261 104.67 12.7845C104.613 12.9429 104.591 13.112 104.606 13.2798V16.1706H103.635V9.28856ZM113.532 14.8341C113.4 15.2865 113.114 15.6778 112.724 15.9396C112.334 16.2014 111.866 16.317 111.4 16.2662C111.075 16.2748 110.753 16.2123 110.455 16.0831C110.158 15.9539 109.891 15.7611 109.675 15.518C109.459 15.2749 109.298 14.9874 109.203 14.6754C109.108 14.3635 109.082 14.0345 109.126 13.7113C109.083 13.3872 109.11 13.0575 109.204 12.7445C109.299 12.4316 109.459 12.1427 109.674 11.8975C109.889 11.6523 110.154 11.4564 110.451 11.3232C110.748 11.19 111.07 11.1225 111.395 11.1253C112.764 11.1253 113.591 12.0662 113.591 13.6205V13.9614H110.116V14.0161C110.101 14.1978 110.123 14.3806 110.182 14.5529C110.242 14.7252 110.336 14.8832 110.459 15.0167C110.583 15.1502 110.732 15.2563 110.899 15.3282C111.065 15.4001 111.245 15.4362 111.426 15.4341C111.659 15.4622 111.894 15.4201 112.102 15.3133C112.311 15.2064 112.483 15.0396 112.597 14.8341H113.532ZM110.116 13.239H112.601C112.613 13.0729 112.591 12.906 112.535 12.7491C112.48 12.5922 112.392 12.4488 112.278 12.3281C112.164 12.2073 112.026 12.1119 111.873 12.0479C111.72 11.984 111.555 11.9529 111.39 11.9567C111.222 11.9546 111.055 11.9863 110.9 12.05C110.744 12.1137 110.603 12.2081 110.484 12.3276C110.365 12.4471 110.272 12.5893 110.208 12.7458C110.145 12.9023 110.114 13.07 110.116 13.239Z" fill="white"/>
</svg>
