<svg width="32" height="32" viewBox="0 0 32 32" fill="none" xmlns="http://www.w3.org/2000/svg">
<path fill-rule="evenodd" clip-rule="evenodd" d="M13.9836 5.05025C15.2963 3.7375 17.0768 3 18.9333 3H22.5333C23.0856 3 23.5333 3.44772 23.5333 4V8.8C23.5333 9.35228 23.0856 9.8 22.5333 9.8H18.9333C18.8803 9.8 18.8294 9.82107 18.7919 9.85858C18.7544 9.89609 18.7333 9.94696 18.7333 10V12.6H22.5333C22.8412 12.6 23.132 12.7419 23.3215 12.9846C23.511 13.2273 23.5781 13.5438 23.5035 13.8425L22.3035 18.6425C22.1922 19.0877 21.7922 19.4 21.3333 19.4H18.7333V28C18.7333 28.5523 18.2856 29 17.7333 29H12.9333C12.381 29 11.9333 28.5523 11.9333 28V19.4H9.33331C8.78103 19.4 8.33331 18.9523 8.33331 18.4V13.6C8.33331 13.0477 8.78103 12.6 9.33331 12.6H11.9333V10C11.9333 8.14348 12.6708 6.36301 13.9836 5.05025ZM18.9333 5C17.6072 5 16.3355 5.52678 15.3978 6.46447C14.4601 7.40215 13.9333 8.67392 13.9333 10V13.6C13.9333 14.1523 13.4856 14.6 12.9333 14.6H10.3333V17.4H12.9333C13.4856 17.4 13.9333 17.8477 13.9333 18.4V27H16.7333V18.4C16.7333 17.8477 17.181 17.4 17.7333 17.4H20.5525L21.2525 14.6H17.7333C17.181 14.6 16.7333 14.1523 16.7333 13.6V10C16.7333 9.41652 16.9651 8.85695 17.3777 8.44437C17.7903 8.03179 18.3498 7.8 18.9333 7.8H21.5333V5H18.9333Z" fill="white"/>
</svg>
