<svg width="32" height="32" viewBox="0 0 32 32" fill="none" xmlns="http://www.w3.org/2000/svg">
<path d="M7.80745 9.11949C7.49755 8.95262 7.12274 8.96096 6.82057 9.14144C6.51839 9.32193 6.33335 9.64799 6.33335 9.99996V22.6666C6.33335 23.2189 6.78107 23.6666 7.33335 23.6666C7.88564 23.6666 8.33335 23.2189 8.33335 22.6666V11.6742L15.5259 15.5471C15.8219 15.7065 16.1781 15.7065 16.4741 15.5471L23.6667 11.6742V22.6666C23.6667 23.2189 24.1144 23.6666 24.6667 23.6666C25.219 23.6666 25.6667 23.2189 25.6667 22.6666V9.99996C25.6667 9.64799 25.4816 9.32193 25.1795 9.14144C24.8773 8.96096 24.5025 8.95262 24.1926 9.11949L16 13.5309L7.80745 9.11949Z" fill="white"/>
<path fill-rule="evenodd" clip-rule="evenodd" d="M23.0808 4.96241C18.3697 4.54118 13.6304 4.54118 8.91926 4.96241L6.89613 5.1433C4.72598 5.33733 2.97255 6.99523 2.65736 9.15112C1.99336 13.6929 1.99336 18.307 2.65736 22.8488C2.97255 25.0047 4.72598 26.6626 6.89613 26.8566L8.91926 27.0375C13.6304 27.4587 18.3697 27.4587 23.0808 27.0375L25.1039 26.8566C27.2741 26.6626 29.0275 25.0047 29.3427 22.8488C30.0067 18.307 30.0067 13.6929 29.3427 9.15112C29.0275 6.99523 27.2741 5.33733 25.1039 5.1433L23.0808 4.96241ZM9.09737 6.95446C13.69 6.54383 18.3101 6.54383 22.9027 6.95446L24.9258 7.13535C26.174 7.24695 27.1825 8.20049 27.3637 9.44044C27.9997 13.7903 27.9997 18.2096 27.3637 22.5595C27.1825 23.7994 26.174 24.753 24.9258 24.8646L22.9027 25.0455C18.3101 25.4561 13.69 25.4561 9.09737 25.0455L7.07424 24.8646C5.82609 24.753 4.8176 23.7994 4.63632 22.5595C4.00038 18.2096 4.00038 13.7903 4.63632 9.44044C4.8176 8.20049 5.82609 7.24695 7.07424 7.13535L9.09737 6.95446Z" fill="white"/>
</svg>
