<svg width="42" height="42" viewBox="0 0 42 42" fill="none" xmlns="http://www.w3.org/2000/svg">
<path d="M21 22.3125C15.4525 22.3125 10.9375 17.7975 10.9375 12.25C10.9375 6.7025 15.4525 2.1875 21 2.1875C26.5475 2.1875 31.0625 6.7025 31.0625 12.25C31.0625 17.7975 26.5475 22.3125 21 22.3125ZM21 4.8125C16.905 4.8125 13.5625 8.155 13.5625 12.25C13.5625 16.345 16.905 19.6875 21 19.6875C25.095 19.6875 28.4375 16.345 28.4375 12.25C28.4375 8.155 25.095 4.8125 21 4.8125Z" fill="#292D32"/>
<path d="M5.96777 39.8125C5.25027 39.8125 4.65527 39.2175 4.65527 38.5C4.65527 31.0275 11.9878 24.9375 21.0003 24.9375C22.7678 24.9375 24.5003 25.165 26.1803 25.6375C26.8803 25.83 27.2828 26.5475 27.0903 27.2475C26.8978 27.9475 26.1803 28.35 25.4803 28.1575C24.0453 27.755 22.5403 27.5625 21.0003 27.5625C13.4403 27.5625 7.28027 32.4625 7.28027 38.5C7.28027 39.2175 6.68527 39.8125 5.96777 39.8125Z" fill="#292D32"/>
<path d="M31.5 39.8125C28.595 39.8125 25.865 38.2725 24.395 35.77C23.6075 34.51 23.1875 33.0225 23.1875 31.5C23.1875 28.945 24.325 26.5825 26.3025 25.0075C27.7725 23.835 29.6275 23.1875 31.5 23.1875C36.085 23.1875 39.8125 26.915 39.8125 31.5C39.8125 33.0225 39.3925 34.51 38.605 35.7875C38.1675 36.5225 37.6075 37.1875 36.9425 37.7475C35.49 39.0775 33.5475 39.8125 31.5 39.8125ZM31.5 25.8125C30.205 25.8125 28.98 26.2499 27.9475 27.0724C26.6 28.1399 25.8125 29.7675 25.8125 31.5C25.8125 32.5325 26.0925 33.5475 26.635 34.4225C27.65 36.1375 29.5225 37.1875 31.5 37.1875C32.8825 37.1875 34.2125 36.68 35.2275 35.77C35.6825 35.385 36.0675 34.93 36.3475 34.44C36.9075 33.5475 37.1875 32.5325 37.1875 31.5C37.1875 28.3675 34.6325 25.8125 31.5 25.8125Z" fill="#292D32"/>
<path d="M30.5023 34.5451C30.1698 34.5451 29.8373 34.4226 29.5748 34.1601L27.8423 32.4277C27.3348 31.9202 27.3348 31.0801 27.8423 30.5726C28.3498 30.0651 29.1898 30.0651 29.6973 30.5726L30.5373 31.4126L33.3373 28.8226C33.8623 28.3326 34.7023 28.3676 35.1923 28.8926C35.6823 29.4176 35.6473 30.2576 35.1223 30.7476L31.3948 34.1951C31.1323 34.4226 30.8173 34.5451 30.5023 34.5451Z" fill="#292D32"/>
</svg>
