<svg width="26" height="26" viewBox="0 0 26 26" fill="none" xmlns="http://www.w3.org/2000/svg">
<path d="M18.3333 6.33331C18.3333 5.59693 18.9302 4.99998 19.6666 4.99998C20.403 4.99998 21 5.59693 21 6.33331C21 7.06969 20.403 7.66665 19.6666 7.66665C18.9302 7.66665 18.3333 7.06969 18.3333 6.33331Z" fill="white"/>
<path fill-rule="evenodd" clip-rule="evenodd" d="M13 6.66665C9.50216 6.66665 6.66663 9.50218 6.66663 13C6.66663 16.4978 9.50216 19.3333 13 19.3333C16.4978 19.3333 19.3333 16.4978 19.3333 13C19.3333 9.50218 16.4978 6.66665 13 6.66665ZM8.66663 13C8.66663 10.6067 10.6067 8.66665 13 8.66665C15.3932 8.66665 17.3333 10.6067 17.3333 13C17.3333 15.3932 15.3932 17.3333 13 17.3333C10.6067 17.3333 8.66663 15.3932 8.66663 13Z" fill="white"/>
<path fill-rule="evenodd" clip-rule="evenodd" d="M20.011 0.777333C15.3889 0.260746 10.6111 0.260746 5.98899 0.777333C3.30624 1.07717 1.14046 3.19052 0.82506 5.88722C0.272343 10.613 0.272343 15.387 0.82506 20.1127C1.14046 22.8094 3.30624 24.9228 5.98899 25.2226C10.6111 25.7392 15.3889 25.7392 20.011 25.2226C22.6937 24.9228 24.8595 22.8094 25.1749 20.1127C25.7276 15.387 25.7276 10.613 25.1749 5.88722C24.8595 3.19052 22.6937 1.07717 20.011 0.777333ZM6.21113 2.76496C10.6856 2.26487 15.3144 2.26487 19.7888 2.76496C21.5623 2.96317 22.9829 4.36265 23.1884 6.11956C23.7231 10.6909 23.7231 15.309 23.1884 19.8804C22.9829 21.6373 21.5623 23.0368 19.7888 23.235C15.3144 23.7351 10.6856 23.7351 6.21113 23.235C4.43766 23.0368 3.01701 21.6373 2.81152 19.8804C2.27686 15.309 2.27686 10.6909 2.81152 6.11956C3.01701 4.36265 4.43766 2.96317 6.21113 2.76496Z" fill="white"/>
</svg>
