<svg width="146" height="44" viewBox="0 0 146 44" fill="none" xmlns="http://www.w3.org/2000/svg">
<path d="M139.691 43.5186H6.20116C3.26442 43.5186 0.861572 41.0977 0.861572 38.1389V5.8609C0.861572 2.90205 3.26437 0.481201 6.20116 0.481201H139.691C142.627 0.481201 145.03 2.90205 145.03 5.8609V38.1389C145.03 41.0977 142.627 43.5186 139.691 43.5186" fill="black"/>
<path d="M51.4985 11.5025C51.4985 12.4039 51.2335 13.1218 50.7029 13.6572C50.1001 14.294 49.3145 14.6126 48.3488 14.6126C47.424 14.6126 46.6377 14.2898 45.9911 13.6434C45.3433 12.9974 45.02 12.1963 45.02 11.2406C45.02 10.2844 45.3433 9.48385 45.9911 8.83735C46.6377 8.19142 47.424 7.86816 48.3488 7.86816C48.8077 7.86816 49.2471 7.95859 49.6642 8.1389C50.0813 8.31966 50.4159 8.55959 50.6662 8.86007L50.103 9.42786C49.6788 8.91723 49.0948 8.66211 48.3488 8.66211C47.6744 8.66211 47.0912 8.90088 46.5989 9.37873C46.1066 9.85706 45.8606 10.4774 45.8606 11.2406C45.8606 12.0039 46.1066 12.6241 46.5989 13.1025C47.0912 13.5804 47.6743 13.8191 48.3488 13.8191C49.0643 13.8191 49.6609 13.579 50.1385 13.0983C50.4485 12.7851 50.6277 12.3498 50.6757 11.7907H48.3488V11.0153H51.4538C51.4838 11.1839 51.4984 11.3457 51.4984 11.5025" fill="white"/>
<path d="M51.4975 11.5024H51.3907C51.3899 12.3833 51.1345 13.0675 50.6264 13.5811L50.6253 13.582L50.6248 13.5828C50.0412 14.1976 49.291 14.5036 48.3478 14.5049C47.4477 14.5036 46.6943 14.1943 46.0652 13.5672C45.4374 12.9389 45.127 12.1718 45.1258 11.2405C45.127 10.3088 45.4374 9.54214 46.0652 8.91425C46.6943 8.28675 47.4477 7.97699 48.3478 7.97568C48.793 7.97568 49.2168 8.0632 49.621 8.23757C50.0257 8.41329 50.3453 8.64356 50.5834 8.92943L50.6652 8.86L50.5897 8.78393L50.0265 9.35211L50.102 9.42778L50.1843 9.35892C49.7403 8.82301 49.1172 8.55285 48.3479 8.55444C47.6484 8.55357 47.0331 8.8054 46.5241 9.30138C46.0102 9.79896 45.752 10.4542 45.7528 11.2405C45.752 12.0269 46.0102 12.6821 46.5241 13.1797C47.0331 13.6757 47.6484 13.9275 48.3478 13.9266C49.0871 13.9279 49.717 13.6752 50.213 13.1743C50.5442 12.8397 50.732 12.3762 50.7812 11.7999L50.7912 11.6831H48.4547V11.1228H51.4528V11.0152L51.3477 11.0341C51.3769 11.1973 51.3907 11.3523 51.3907 11.5024H51.6043C51.6043 11.3389 51.5892 11.1708 51.5579 10.996L51.5421 10.9076H48.2411V11.8982H50.6748V11.7907L50.5684 11.7814C50.5213 12.3228 50.3502 12.7305 50.062 13.0222C49.6032 13.4828 49.04 13.7101 48.3479 13.7114C47.6984 13.7105 47.1474 13.4853 46.6722 13.0251C46.2017 12.5665 45.9676 11.9811 45.9664 11.2405C45.9676 10.5 46.2017 9.91452 46.6722 9.45597C47.1474 8.99578 47.6984 8.77049 48.3479 8.76962C49.07 8.77136 49.6153 9.01173 50.0204 9.49717L50.0955 9.58711L50.7408 8.93611L50.81 8.86638L50.747 8.79104C50.4846 8.47591 50.135 8.22577 49.7054 8.04009C49.2749 7.85382 48.8206 7.7605 48.3479 7.7605C47.3985 7.75968 46.5792 8.09589 45.9147 8.76126C45.2477 9.42532 44.9114 10.26 44.9124 11.2405C44.9114 12.2206 45.2477 13.0558 45.9151 13.7202C46.5792 14.3851 47.3985 14.721 48.3479 14.7201C49.3366 14.721 50.1568 14.3901 50.7792 13.7315L50.7019 13.6572L50.7774 13.7333C51.3306 13.1764 51.605 12.4241 51.6043 11.5024H51.4975H51.4975ZM56.4199 8.80579H53.5019V10.8527H56.1334V11.6284H53.5019V13.6752H56.4199V14.4683H52.6793V8.01272H56.4199V8.80579Z" fill="white"/>
<path d="M56.4211 8.80569V8.6981H53.3963V10.9602H56.0278V11.5204L53.3963 11.5207V13.7827H56.3143V14.3606H52.7873V8.12021H56.3143V8.80569H56.4211V8.6981V8.80569H56.5279V7.90503H52.5737V14.5758H56.5279V13.5676H53.6099V11.7359H56.2414V10.745H53.6099V8.91328H56.5279V8.80569H56.4211ZM59.8931 14.4683H59.0692V8.80564H57.2796V8.01257H61.6827V8.80564H59.8931V14.4682" fill="white"/>
<path d="M59.8932 14.4683V14.3606H59.1761V8.6981H57.3866V8.12026H61.5761V8.6981H59.7865V14.4682H59.8932V14.3606V14.4682H60.0001V8.91328H61.7896V7.90503H57.173V8.91323H58.9626V14.5758H60.0001V14.4682H59.8932V14.4683ZM64.8687 14.4683V8.01257H65.6917V14.4682H64.8687" fill="white"/>
<path d="M64.8721 14.4683H64.979V8.12021H65.5884V14.3606H64.8721V14.4682H64.979H64.8721V14.5758H65.802V7.90503H64.7654V14.5758H64.8721V14.4682V14.4683ZM69.3473 14.4683H68.5235V8.80564H66.7339V8.01257H71.137V8.80564H69.3473V14.4682" fill="white"/>
<path d="M69.3459 14.4684V14.3608H68.6288V8.69828H66.8393V8.12043H71.0287V8.69828H69.2391V14.4684H69.3459V14.3608V14.4684H69.4527V8.91346H71.2423V7.9052H66.6257V8.91341H68.4152V14.5759H69.4527V14.4683H69.3459V14.4684ZM75.3805 13.0937C75.8548 13.5774 76.4351 13.819 77.1213 13.819C77.8076 13.819 78.3882 13.5774 78.8617 13.0937C79.3364 12.61 79.5742 11.9916 79.5742 11.2406C79.5742 10.4896 79.3364 9.87127 78.8617 9.38753C78.3882 8.90378 77.8076 8.66211 77.1213 8.66211C76.4351 8.66211 75.8548 8.90378 75.3805 9.38753C74.907 9.87127 74.6693 10.4896 74.6693 11.2406C74.6693 11.9916 74.907 12.61 75.3805 13.0937ZM79.4707 13.6341C78.8408 14.2868 78.0574 14.6126 77.1213 14.6126C76.1843 14.6126 75.4013 14.2868 74.7727 13.6341C74.1424 12.9822 73.8287 12.1842 73.8287 11.2406C73.8287 10.297 74.1424 9.49884 74.7727 8.84706C75.4013 8.19427 76.1843 7.86816 77.1213 7.86816C78.0524 7.86816 78.8337 8.19601 79.4666 8.85127C80.0985 9.50648 80.4148 10.3029 80.4148 11.2406C80.4148 12.1842 80.0993 12.9822 79.4707 13.6341Z" fill="white"/>
<path d="M75.3771 13.0936L75.3011 13.1693C75.793 13.6723 76.4067 13.9279 77.1179 13.9266C77.8287 13.9279 78.4432 13.6723 78.9342 13.1693C79.4293 12.6657 79.6783 12.0142 79.6776 11.2405C79.6783 10.4668 79.4293 9.81535 78.9342 9.31178C78.4432 8.80869 77.8287 8.55319 77.1179 8.55444C76.4067 8.55319 75.793 8.80869 75.3011 9.31178C74.8073 9.81535 74.5578 10.4668 74.5591 11.2405C74.5578 12.0142 74.8073 12.6657 75.3011 13.1693L75.3771 13.0936L75.4531 13.018C75 12.5535 74.7735 11.9693 74.7726 11.2405C74.7735 10.5118 75 9.92758 75.453 9.46308C75.9102 8.99873 76.4562 8.77093 77.1179 8.76967C77.779 8.77093 78.3263 8.99873 78.7824 9.46308C79.2362 9.92758 79.4627 10.5118 79.4635 11.2405C79.4627 11.9692 79.2362 12.5535 78.7824 13.018C78.3263 13.4824 77.7791 13.7101 77.1179 13.7114C76.4562 13.7101 75.9102 13.4824 75.453 13.018L75.3771 13.0936ZM79.4673 13.634L79.391 13.5593C78.7786 14.1914 78.0298 14.5037 77.1179 14.5049C76.2056 14.5036 75.4568 14.1914 74.8456 13.5593L74.8427 13.5559L74.8456 13.5593C74.2345 12.925 73.933 12.1601 73.9321 11.2405C73.933 10.3209 74.2345 9.55602 74.8456 8.9218C75.4568 8.28965 76.2055 7.97699 77.1179 7.97573C78.0239 7.97699 78.771 8.29096 79.3868 8.92639C80 9.56356 80.3033 10.3272 80.3046 11.2405C80.3033 12.1601 80.0009 12.925 79.391 13.5593L79.4673 13.634L79.5441 13.7088C80.1915 13.0389 80.5189 12.208 80.5182 11.2405C80.5189 10.2785 80.1902 9.4493 79.5398 8.77644C78.8891 8.10092 78.074 7.75934 77.1179 7.7605C76.1568 7.75934 75.3392 8.09933 74.6925 8.77223V8.77175C74.0439 9.4421 73.7176 10.273 73.7185 11.2405C73.7176 12.208 74.0439 13.0389 74.6925 13.7092L74.6954 13.7123L74.6925 13.7088C75.3392 14.3817 76.1568 14.721 77.1179 14.7201C78.0786 14.721 78.8962 14.3817 79.5441 13.7088L79.4673 13.634ZM81.5668 14.4684V8.01267H82.5689L85.6829 13.0347H85.7184L85.6829 11.7906V8.01267H86.5068V14.4683H85.6474L82.3895 9.20288H82.354L82.3895 10.4474V14.4683H81.5669" fill="white"/>
<path d="M81.5717 14.4683H81.6785V8.12021H82.5145L85.6285 13.1422H85.8329L85.7946 11.789V8.12026H86.4049V14.3606H85.7116L82.4536 9.09524H82.2492L82.2876 10.4491V14.3606H81.5718V14.4682H81.6785H81.5718V14.5758H82.5011V10.4457L82.4657 9.19993L82.3589 9.20283V9.31042H82.3944V9.20283L82.3038 9.26004L85.5931 14.5758H86.6185V7.90503H85.581V11.7918L85.6165 13.0375L85.7233 13.0346V12.927H85.6878V13.0346L85.7784 12.9775L82.6329 7.90503H81.465V14.5758H81.5718V14.4682L81.5717 14.4683ZM115.062 32.7591H117.055V19.3087H115.062L115.062 32.7591ZM133.011 24.1538L130.726 29.9853H130.658L128.287 24.1538H126.141L129.696 32.3043L127.669 36.838H129.748L135.227 24.1538L133.011 24.1538ZM121.71 31.2314C121.056 31.2314 120.147 30.9027 120.147 30.0891C120.147 29.0509 121.281 28.6529 122.259 28.6529C123.136 28.6529 123.547 28.8433 124.08 29.1031C123.925 30.3488 122.86 31.2314 121.71 31.2314ZM121.95 23.8596C120.507 23.8596 119.013 24.5 118.395 25.919L120.164 26.6629C120.542 25.919 121.245 25.6764 121.984 25.6764C123.015 25.6764 124.063 26.2997 124.08 27.4072V27.5455C123.719 27.3378 122.947 27.0264 122.002 27.0264C120.095 27.0264 118.154 28.0817 118.154 30.0546C118.154 31.8543 119.717 33.0138 121.469 33.0138C122.809 33.0138 123.547 32.4082 124.011 31.6988H124.08V32.7369H126.003V27.5799C126.003 25.1923 124.235 23.8596 121.95 23.8596ZM109.635 25.7911H106.801V21.1807H109.635C111.125 21.1807 111.971 22.4234 111.971 23.4859C111.971 24.5282 111.125 25.7911 109.635 25.7911ZM109.584 19.3087H104.809V32.7591H106.801V27.6632H109.584C111.792 27.6632 113.963 26.0522 113.963 23.4859C113.963 20.9197 111.792 19.3087 109.584 19.3087ZM83.5469 31.2339C82.1703 31.2339 81.0177 30.0727 81.0177 28.4777C81.0177 26.8659 82.1703 25.687 83.5469 25.687C84.9061 25.687 85.9727 26.8659 85.9727 28.4777C85.9727 30.0727 84.9061 31.2339 83.547 31.2339H83.5469ZM85.835 24.907H85.7662C85.319 24.3697 84.4584 23.8844 83.3747 23.8844C81.1037 23.8844 79.0221 25.895 79.0221 28.4777C79.0221 31.0431 81.1036 33.0365 83.3747 33.0365C84.4584 33.0365 85.319 32.551 85.7662 31.9967H85.835V32.6553C85.835 34.4063 84.9061 35.3422 83.4093 35.3422C82.1878 35.3422 81.4308 34.4579 81.1207 33.7127L79.3834 34.4407C79.8823 35.654 81.2071 37.1449 83.4093 37.1449C85.7491 37.1449 87.7277 35.7579 87.7277 32.3779V24.1618H85.835V24.907ZM89.1039 32.7591H91.0996V19.3082H89.1039V32.7591ZM94.0417 28.3218C93.99 26.5536 95.4008 25.6525 96.4158 25.6525C97.2077 25.6525 97.8784 26.0509 98.1016 26.6234L94.0417 28.3218ZM100.235 26.7965C99.8572 25.7735 98.7039 23.8844 96.3469 23.8844C94.0071 23.8844 92.0632 25.7391 92.0632 28.4604C92.0632 31.0259 93.99 33.0365 96.5705 33.0365C98.6526 33.0365 99.8572 31.7538 100.356 31.0086L98.8075 29.9684C98.2916 30.7312 97.5858 31.2339 96.5705 31.2339C95.5556 31.2339 94.8331 30.7657 94.3683 29.8473L100.441 27.3164L100.235 26.7965ZM51.8499 25.2885V27.2298H56.4607C56.323 28.3218 55.9617 29.119 55.4111 29.6738C54.7403 30.35 53.6908 31.0952 51.8499 31.0952C49.0111 31.0952 46.7919 28.7899 46.7919 25.9298C46.7919 23.0698 49.0111 20.7642 51.8499 20.7642C53.3812 20.7642 54.4992 21.371 55.3251 22.151L56.6843 20.7818C55.5317 19.6722 54.0003 18.8229 51.8499 18.8229C47.9616 18.8229 44.6927 22.0124 44.6927 25.9298C44.6927 29.8473 47.9616 33.0365 51.8499 33.0365C53.949 33.0365 55.5317 32.3435 56.7702 31.0431C58.0434 29.7604 58.4393 27.9578 58.4393 26.5019C58.4393 26.0509 58.405 25.6353 58.3358 25.2885H51.8499ZM63.6813 31.2339C62.3046 31.2339 61.1174 30.0898 61.1174 28.4604C61.1174 26.8137 62.3046 25.687 63.6813 25.687C65.0574 25.687 66.2446 26.8137 66.2446 28.4604C66.2446 30.0899 65.0574 31.2339 63.6813 31.2339ZM63.6813 23.8844C61.1691 23.8844 59.1217 25.8084 59.1217 28.4604C59.1217 31.0952 61.1691 33.0365 63.6813 33.0365C66.1929 33.0365 68.2403 31.0952 68.2403 28.4604C68.2403 25.8084 66.1929 23.8844 63.6813 23.8844ZM73.6269 31.2339C72.2509 31.2339 71.0635 30.0898 71.0635 28.4604C71.0635 26.8137 72.2509 25.687 73.627 25.687C75.0032 25.687 76.1904 26.8137 76.1904 28.4604C76.1904 30.0899 75.0032 31.2339 73.627 31.2339H73.6269ZM73.6269 23.8844C71.1149 23.8844 69.068 25.8084 69.068 28.4604C69.068 31.0952 71.1149 33.0365 73.627 33.0365C76.1387 33.0365 78.1862 31.0952 78.1862 28.4604C78.1862 25.8084 76.1387 23.8844 73.627 23.8844H73.6269Z" fill="white"/>
<path d="M14.3025 11.7493C14.0264 11.9993 13.8616 12.4164 13.8616 12.97V12.8449V31.1137V30.9934C13.8616 31.5047 14.003 31.8995 14.2424 32.1538L14.3035 32.2125V32.2128C14.4973 32.3883 14.7458 32.4815 15.0306 32.4812C15.3089 32.4812 15.622 32.3922 15.9525 32.2041L27.8964 25.3931L31.9991 23.0532C32.5202 22.7561 32.8127 22.3729 32.8616 21.9825V21.9809C32.8127 21.5896 32.5202 21.2067 31.9991 20.9096L27.8961 18.57L15.9525 11.7589C15.6214 11.5706 15.308 11.4812 15.029 11.4812C14.7445 11.4812 14.4963 11.5741 14.3026 11.7493H14.3025Z" fill="#00C1FF"/>
<path d="M14.2771 32.4812L14.2196 32.4209C13.9945 32.16 13.8616 31.7548 13.8616 31.2301V31.3536V12.6102V12.734C13.8616 12.1658 14.0165 11.7378 14.2762 11.4812L23.8616 21.9815L14.2771 32.4812Z" fill="url(#paint0_linear_8_485)"/>
<path d="M27.5189 25.4812L23.8616 21.9809L27.5185 18.4812L31.9336 20.8814C32.4942 21.1862 32.809 21.5791 32.8616 21.9806V21.9822C32.809 22.3827 32.4942 22.7759 31.9336 23.0807L27.5189 25.4812" fill="url(#paint1_linear_8_485)"/>
<path d="M14.6104 32.4812C14.3171 32.4814 14.0611 32.3927 13.8616 32.2255V32.2253L24.361 22.4812L27.8616 25.7305L15.5598 32.2173C15.2195 32.3964 14.897 32.4812 14.6104 32.4812Z" fill="url(#paint2_linear_8_485)"/>
<path d="M24.3615 22.4812L13.8616 11.7621C14.0612 11.5785 14.3168 11.4812 14.6097 11.4812C14.8971 11.4812 15.2198 11.5748 15.5608 11.7722L27.8616 18.9076L24.3614 22.4812" fill="url(#paint3_linear_8_485)"/>
<path d="M14.6655 32.4812C14.3752 32.4812 14.1215 32.3907 13.9239 32.2203L13.9235 32.2206C13.9227 32.2198 13.9218 32.2191 13.9209 32.2184L13.8669 32.1679C13.8652 32.1664 13.8636 32.1645 13.8616 32.1627L13.9239 32.1031C14.1215 32.2735 14.3748 32.364 14.6653 32.3637C14.949 32.3637 15.2682 32.2773 15.6052 32.0947L27.7835 25.4812L27.8616 25.5558L27.7826 25.5987L15.6051 32.2118C15.2981 32.3782 15.006 32.4649 14.7422 32.4794C14.7167 32.4806 14.6911 32.4812 14.6655 32.4812" fill="url(#paint4_linear_8_485)"/>
<path d="M27.9386 25.4812L27.8616 25.4151L31.9931 23.4023C32.5178 23.1468 32.8123 22.817 32.8616 22.4812C32.8616 22.6044 32.8295 22.7277 32.7658 22.8476C32.6372 23.0893 32.3796 23.3177 31.9931 23.5061L27.9386 25.4812" fill="url(#paint5_linear_8_485)"/>
<path d="M32.8616 22.4812C32.8123 22.0324 32.5178 21.5932 31.9931 21.2524L27.8616 18.5693L27.9386 18.4812H27.939L31.9931 21.1144C32.5716 21.4904 32.8612 21.9857 32.8616 22.4812Z" fill="url(#paint6_linear_8_485)"/>
<path d="M27.7832 18.4812L15.6052 11.868C15.2676 11.6851 14.9481 11.5984 14.6636 11.5984C14.3735 11.5984 14.1205 11.6886 13.9229 11.8587L13.8616 11.7998C13.8807 11.7804 13.9006 11.7617 13.9212 11.7437C13.9219 11.7431 13.9229 11.7424 13.9235 11.7418C14.1196 11.573 14.3699 11.4828 14.6574 11.4812H14.6636C14.9481 11.4812 15.2676 11.568 15.6052 11.7509L27.8616 18.4064L27.8612 18.4066L27.7832 18.4812Z" fill="url(#paint7_linear_8_485)"/>
<defs>
<linearGradient id="paint0_linear_8_485" x1="19.9872" y1="12.4121" x2="10.9875" y2="20.6539" gradientUnits="userSpaceOnUse">
<stop stop-color="#00A0FF"/>
<stop offset="0.00657" stop-color="#00A1FF"/>
<stop offset="0.2601" stop-color="#00BEFF"/>
<stop offset="0.5122" stop-color="#00D2FF"/>
<stop offset="0.7604" stop-color="#00DFFF"/>
<stop offset="1" stop-color="#00E3FF"/>
</linearGradient>
<linearGradient id="paint1_linear_8_485" x1="33.5447" y1="21.9204" x2="12.1198" y2="21.9204" gradientUnits="userSpaceOnUse">
<stop stop-color="#FFE000"/>
<stop offset="0.4087" stop-color="#FFBD00"/>
<stop offset="0.7754" stop-color="#FFA500"/>
<stop offset="1" stop-color="#FF9C00"/>
</linearGradient>
<linearGradient id="paint2_linear_8_485" x1="26.0031" y1="25.5705" x2="11.8301" y2="40.7796" gradientUnits="userSpaceOnUse">
<stop stop-color="#FF3A44"/>
<stop offset="1" stop-color="#C31162"/>
</linearGradient>
<linearGradient id="paint3_linear_8_485" x1="11.1555" y1="10.1729" x2="18.119" y2="16.9763" gradientUnits="userSpaceOnUse">
<stop stop-color="#32A071"/>
<stop offset="0.0685" stop-color="#2DA771"/>
<stop offset="0.4762" stop-color="#15CF74"/>
<stop offset="0.8009" stop-color="#06E775"/>
<stop offset="1" stop-color="#00F076"/>
</linearGradient>
<linearGradient id="paint4_linear_8_485" x1="25.9361" y1="27.616" x2="14.3489" y2="39.7787" gradientUnits="userSpaceOnUse">
<stop stop-color="#CC2E36"/>
<stop offset="1" stop-color="#9C0E4E"/>
</linearGradient>
<linearGradient id="paint5_linear_8_485" x1="33.5009" y1="22.4806" x2="13.4503" y2="22.4806" gradientUnits="userSpaceOnUse">
<stop stop-color="#E0C500"/>
<stop offset="0.4087" stop-color="#E0A600"/>
<stop offset="0.7754" stop-color="#E09100"/>
<stop offset="1" stop-color="#E08900"/>
</linearGradient>
<linearGradient id="paint6_linear_8_485" x1="33.5008" y1="22.4821" x2="13.4517" y2="22.4821" gradientUnits="userSpaceOnUse">
<stop stop-color="#FFE840"/>
<stop offset="0.4087" stop-color="#FFCE40"/>
<stop offset="0.7754" stop-color="#FFBC40"/>
<stop offset="1" stop-color="#FFB540"/>
</linearGradient>
<linearGradient id="paint7_linear_8_485" x1="11.2286" y1="12.4868" x2="16.4025" y2="17.918" gradientUnits="userSpaceOnUse">
<stop stop-color="#65B895"/>
<stop offset="0.0685" stop-color="#62BD95"/>
<stop offset="0.4762" stop-color="#50DB97"/>
<stop offset="0.8009" stop-color="#44ED98"/>
<stop offset="1" stop-color="#40F498"/>
</linearGradient>
</defs>
</svg>
