<svg width="191" height="158" viewBox="0 0 191 158" fill="none" xmlns="http://www.w3.org/2000/svg">
<g filter="url(#filter0_b_8_465)">
<rect width="191" height="158" rx="20" fill="white" fill-opacity="0.2"/>
</g>
<path d="M25.3477 89L22.8837 84.648H21.8277V89H19.5877V77.832H23.7797C24.6437 77.832 25.3797 77.9867 25.9877 78.296C26.5957 78.5947 27.0491 79.0053 27.3477 79.528C27.6571 80.04 27.8117 80.616 27.8117 81.256C27.8117 81.992 27.5984 82.6587 27.1718 83.256C26.7451 83.8427 26.1104 84.248 25.2677 84.472L27.9397 89H25.3477ZM21.8277 82.968H23.6997C24.3077 82.968 24.7611 82.824 25.0597 82.536C25.3584 82.2373 25.5077 81.8267 25.5077 81.304C25.5077 80.792 25.3584 80.3973 25.0597 80.12C24.7611 79.832 24.3077 79.688 23.6997 79.688H21.8277V82.968ZM38.2378 84.376C38.2378 84.696 38.2164 84.984 38.1737 85.24H31.6937C31.7471 85.88 31.9711 86.3813 32.3657 86.744C32.7604 87.1067 33.2457 87.288 33.8217 87.288C34.6537 87.288 35.2457 86.9307 35.5977 86.216H38.0138C37.7577 87.0693 37.2671 87.7733 36.5417 88.328C35.8164 88.872 34.9257 89.144 33.8697 89.144C33.0164 89.144 32.2484 88.9573 31.5657 88.584C30.8937 88.2 30.3657 87.6613 29.9817 86.968C29.6084 86.2747 29.4217 85.4747 29.4217 84.568C29.4217 83.6507 29.6084 82.8453 29.9817 82.152C30.3551 81.4587 30.8777 80.9253 31.5497 80.552C32.2217 80.1787 32.9951 79.992 33.8697 79.992C34.7124 79.992 35.4644 80.1733 36.1257 80.536C36.7977 80.8987 37.3151 81.416 37.6777 82.088C38.0511 82.7493 38.2378 83.512 38.2378 84.376ZM35.9177 83.736C35.9071 83.16 35.6991 82.7013 35.2937 82.36C34.8884 82.008 34.3924 81.832 33.8057 81.832C33.2511 81.832 32.7817 82.0027 32.3977 82.344C32.0244 82.6747 31.7951 83.1387 31.7097 83.736H35.9177ZM44.0967 81.976H42.5447V89H40.2727V81.976H39.2647V80.136H40.2727V79.688C40.2727 78.6 40.5821 77.8 41.2007 77.288C41.8194 76.776 42.7527 76.536 44.0007 76.568V78.456C43.4567 78.4453 43.0781 78.536 42.8647 78.728C42.6514 78.92 42.5447 79.2667 42.5447 79.768V80.136H44.0967V81.976ZM53.9484 84.376C53.9484 84.696 53.927 84.984 53.8844 85.24H47.4044C47.4577 85.88 47.6817 86.3813 48.0764 86.744C48.471 87.1067 48.9564 87.288 49.5324 87.288C50.3644 87.288 50.9564 86.9307 51.3084 86.216H53.7244C53.4684 87.0693 52.9777 87.7733 52.2524 88.328C51.527 88.872 50.6364 89.144 49.5804 89.144C48.727 89.144 47.959 88.9573 47.2764 88.584C46.6044 88.2 46.0764 87.6613 45.6924 86.968C45.319 86.2747 45.1324 85.4747 45.1324 84.568C45.1324 83.6507 45.319 82.8453 45.6924 82.152C46.0657 81.4587 46.5884 80.9253 47.2604 80.552C47.9324 80.1787 48.7057 79.992 49.5804 79.992C50.423 79.992 51.175 80.1733 51.8364 80.536C52.5084 80.8987 53.0257 81.416 53.3884 82.088C53.7617 82.7493 53.9484 83.512 53.9484 84.376ZM51.6284 83.736C51.6177 83.16 51.4097 82.7013 51.0044 82.36C50.599 82.008 50.103 81.832 49.5164 81.832C48.9617 81.832 48.4924 82.0027 48.1084 82.344C47.735 82.6747 47.5057 83.1387 47.4204 83.736H51.6284ZM57.9834 81.512C58.2714 81.0427 58.6447 80.6747 59.1034 80.408C59.5727 80.1413 60.106 80.008 60.7034 80.008V82.36H60.1114C59.4074 82.36 58.874 82.5253 58.5114 82.856C58.1594 83.1867 57.9834 83.7627 57.9834 84.584V89H55.7434V80.136H57.9834V81.512ZM74.8246 80.136L69.3366 93.192H66.9526L68.8726 88.776L65.3206 80.136H67.8326L70.1206 86.328L72.4406 80.136H74.8246ZM80.1281 89.144C79.2748 89.144 78.5068 88.9573 77.8241 88.584C77.1415 88.2 76.6028 87.6613 76.2081 86.968C75.8241 86.2747 75.6321 85.4747 75.6321 84.568C75.6321 83.6613 75.8295 82.8613 76.2241 82.168C76.6295 81.4747 77.1788 80.9413 77.8721 80.568C78.5655 80.184 79.3388 79.992 80.1921 79.992C81.0455 79.992 81.8188 80.184 82.5121 80.568C83.2055 80.9413 83.7495 81.4747 84.1441 82.168C84.5495 82.8613 84.7521 83.6613 84.7521 84.568C84.7521 85.4747 84.5441 86.2747 84.1281 86.968C83.7228 87.6613 83.1681 88.2 82.4641 88.584C81.7708 88.9573 80.9921 89.144 80.1281 89.144ZM80.1281 87.192C80.5335 87.192 80.9121 87.096 81.2641 86.904C81.6268 86.7013 81.9148 86.4027 82.1281 86.008C82.3415 85.6133 82.4481 85.1333 82.4481 84.568C82.4481 83.7253 82.2241 83.08 81.7761 82.632C81.3388 82.1733 80.8001 81.944 80.1601 81.944C79.5201 81.944 78.9815 82.1733 78.5441 82.632C78.1175 83.08 77.9041 83.7253 77.9041 84.568C77.9041 85.4107 78.1121 86.0613 78.5281 86.52C78.9548 86.968 79.4881 87.192 80.1281 87.192ZM94.9232 80.136V89H92.6672V87.88C92.3792 88.264 92.0006 88.568 91.5312 88.792C91.0726 89.0053 90.5712 89.112 90.0272 89.112C89.3339 89.112 88.7206 88.968 88.1872 88.68C87.6539 88.3813 87.2326 87.9493 86.9232 87.384C86.6246 86.808 86.4752 86.1253 86.4752 85.336V80.136H88.7152V85.016C88.7152 85.72 88.8912 86.264 89.2432 86.648C89.5952 87.0213 90.0752 87.208 90.6832 87.208C91.3019 87.208 91.7872 87.0213 92.1392 86.648C92.4912 86.264 92.6672 85.72 92.6672 85.016V80.136H94.9232ZM99.5334 81.512C99.8214 81.0427 100.195 80.6747 100.653 80.408C101.123 80.1413 101.656 80.008 102.253 80.008V82.36H101.661C100.957 82.36 100.424 82.5253 100.061 82.856C99.7094 83.1867 99.5334 83.7627 99.5334 84.584V89H97.2934V80.136H99.5334V81.512ZM110.135 81.416C110.423 81.0107 110.817 80.6747 111.319 80.408C111.831 80.1307 112.412 79.992 113.063 79.992C113.82 79.992 114.503 80.1787 115.111 80.552C115.729 80.9253 116.215 81.4587 116.567 82.152C116.929 82.8347 117.111 83.6293 117.111 84.536C117.111 85.4427 116.929 86.248 116.567 86.952C116.215 87.6453 115.729 88.184 115.111 88.568C114.503 88.952 113.82 89.144 113.063 89.144C112.412 89.144 111.836 89.0107 111.335 88.744C110.844 88.4773 110.444 88.1413 110.135 87.736V93.224H107.895V80.136H110.135V81.416ZM114.823 84.536C114.823 84.0027 114.711 83.544 114.487 83.16C114.273 82.7653 113.985 82.4667 113.623 82.264C113.271 82.0613 112.887 81.96 112.471 81.96C112.065 81.96 111.681 82.0667 111.319 82.28C110.967 82.4827 110.679 82.7813 110.455 83.176C110.241 83.5707 110.135 84.0347 110.135 84.568C110.135 85.1013 110.241 85.5653 110.455 85.96C110.679 86.3547 110.967 86.6587 111.319 86.872C111.681 87.0747 112.065 87.176 112.471 87.176C112.887 87.176 113.271 87.0693 113.623 86.856C113.985 86.6427 114.273 86.3387 114.487 85.944C114.711 85.5493 114.823 85.08 114.823 84.536ZM121.138 81.512C121.426 81.0427 121.8 80.6747 122.258 80.408C122.728 80.1413 123.261 80.008 123.858 80.008V82.36H123.266C122.562 82.36 122.029 82.5253 121.666 82.856C121.314 83.1867 121.138 83.7627 121.138 84.584V89H118.898V80.136H121.138V81.512ZM129.463 89.144C128.61 89.144 127.842 88.9573 127.159 88.584C126.476 88.2 125.938 87.6613 125.543 86.968C125.159 86.2747 124.967 85.4747 124.967 84.568C124.967 83.6613 125.164 82.8613 125.559 82.168C125.964 81.4747 126.514 80.9413 127.207 80.568C127.9 80.184 128.674 79.992 129.527 79.992C130.38 79.992 131.154 80.184 131.847 80.568C132.54 80.9413 133.084 81.4747 133.479 82.168C133.884 82.8613 134.087 83.6613 134.087 84.568C134.087 85.4747 133.879 86.2747 133.463 86.968C133.058 87.6613 132.503 88.2 131.799 88.584C131.106 88.9573 130.327 89.144 129.463 89.144ZM129.463 87.192C129.868 87.192 130.247 87.096 130.599 86.904C130.962 86.7013 131.25 86.4027 131.463 86.008C131.676 85.6133 131.783 85.1333 131.783 84.568C131.783 83.7253 131.559 83.08 131.111 82.632C130.674 82.1733 130.135 81.944 129.495 81.944C128.855 81.944 128.316 82.1733 127.879 82.632C127.452 83.08 127.239 83.7253 127.239 84.568C127.239 85.4107 127.447 86.0613 127.863 86.52C128.29 86.968 128.823 87.192 129.463 87.192ZM135.314 84.536C135.314 83.64 135.49 82.8453 135.842 82.152C136.205 81.4587 136.696 80.9253 137.314 80.552C137.933 80.1787 138.621 79.992 139.378 79.992C139.954 79.992 140.504 80.12 141.026 80.376C141.549 80.6213 141.965 80.952 142.274 81.368V77.16H144.546V89H142.274V87.688C141.997 88.1253 141.608 88.4773 141.106 88.744C140.605 89.0107 140.024 89.144 139.362 89.144C138.616 89.144 137.933 88.952 137.314 88.568C136.696 88.184 136.205 87.6453 135.842 86.952C135.49 86.248 135.314 85.4427 135.314 84.536ZM142.29 84.568C142.29 84.024 142.184 83.56 141.97 83.176C141.757 82.7813 141.469 82.4827 141.106 82.28C140.744 82.0667 140.354 81.96 139.938 81.96C139.522 81.96 139.138 82.0613 138.786 82.264C138.434 82.4667 138.146 82.7653 137.922 83.16C137.709 83.544 137.602 84.0027 137.602 84.536C137.602 85.0693 137.709 85.5387 137.922 85.944C138.146 86.3387 138.434 86.6427 138.786 86.856C139.149 87.0693 139.533 87.176 139.938 87.176C140.354 87.176 140.744 87.0747 141.106 86.872C141.469 86.6587 141.757 86.36 141.97 85.976C142.184 85.5813 142.29 85.112 142.29 84.568ZM155.262 80.136V89H153.006V87.88C152.718 88.264 152.339 88.568 151.87 88.792C151.411 89.0053 150.91 89.112 150.366 89.112C149.673 89.112 149.059 88.968 148.526 88.68C147.993 88.3813 147.571 87.9493 147.262 87.384C146.963 86.808 146.814 86.1253 146.814 85.336V80.136H149.054V85.016C149.054 85.72 149.23 86.264 149.582 86.648C149.934 87.0213 150.414 87.208 151.022 87.208C151.641 87.208 152.126 87.0213 152.478 86.648C152.83 86.264 153.006 85.72 153.006 85.016V80.136H155.262ZM157.056 84.568C157.056 83.6507 157.243 82.8507 157.616 82.168C157.989 81.4747 158.507 80.9413 159.168 80.568C159.829 80.184 160.587 79.992 161.44 79.992C162.539 79.992 163.445 80.2693 164.16 80.824C164.885 81.368 165.371 82.136 165.616 83.128H163.2C163.072 82.744 162.853 82.4453 162.544 82.232C162.245 82.008 161.872 81.896 161.424 81.896C160.784 81.896 160.277 82.1307 159.904 82.6C159.531 83.0587 159.344 83.7147 159.344 84.568C159.344 85.4107 159.531 86.0667 159.904 86.536C160.277 86.9947 160.784 87.224 161.424 87.224C162.331 87.224 162.923 86.8187 163.2 86.008H165.616C165.371 86.968 164.885 87.7307 164.16 88.296C163.435 88.8613 162.528 89.144 161.44 89.144C160.587 89.144 159.829 88.9573 159.168 88.584C158.507 88.2 157.989 87.6667 157.616 86.984C157.243 86.2907 157.056 85.4853 157.056 84.568ZM170.025 81.976V86.264C170.025 86.5627 170.094 86.7813 170.233 86.92C170.382 87.048 170.628 87.112 170.969 87.112H172.009V89H170.601C168.713 89 167.769 88.0827 167.769 86.248V81.976H166.713V80.136H167.769V77.944H170.025V80.136H172.009V81.976H170.025Z" fill="white"/>
<path d="M35.5705 106.524V109.32H38.6185V110.22H35.5705V113.1H38.9785V114H34.4785V105.624H38.9785V106.524H35.5705ZM40.3428 110.688C40.3428 110.016 40.4788 109.428 40.7508 108.924C41.0228 108.412 41.3948 108.016 41.8668 107.736C42.3468 107.456 42.8788 107.316 43.4628 107.316C44.0388 107.316 44.5388 107.44 44.9628 107.688C45.3868 107.936 45.7028 108.248 45.9108 108.624V107.424H47.0148V114H45.9108V112.776C45.6948 113.16 45.3708 113.48 44.9388 113.736C44.5148 113.984 44.0188 114.108 43.4508 114.108C42.8668 114.108 42.3388 113.964 41.8668 113.676C41.3948 113.388 41.0228 112.984 40.7508 112.464C40.4788 111.944 40.3428 111.352 40.3428 110.688ZM45.9108 110.7C45.9108 110.204 45.8108 109.772 45.6108 109.404C45.4108 109.036 45.1388 108.756 44.7948 108.564C44.4588 108.364 44.0868 108.264 43.6788 108.264C43.2708 108.264 42.8988 108.36 42.5628 108.552C42.2268 108.744 41.9588 109.024 41.7588 109.392C41.5588 109.76 41.4588 110.192 41.4588 110.688C41.4588 111.192 41.5588 111.632 41.7588 112.008C41.9588 112.376 42.2268 112.66 42.5628 112.86C42.8988 113.052 43.2708 113.148 43.6788 113.148C44.0868 113.148 44.4588 113.052 44.7948 112.86C45.1388 112.66 45.4108 112.376 45.6108 112.008C45.8108 111.632 45.9108 111.196 45.9108 110.7ZM50.0722 108.492C50.2642 108.116 50.5362 107.824 50.8882 107.616C51.2482 107.408 51.6842 107.304 52.1962 107.304V108.432H51.9082C50.6842 108.432 50.0722 109.096 50.0722 110.424V114H48.9802V107.424H50.0722V108.492ZM56.7807 107.304C57.5807 107.304 58.2287 107.548 58.7247 108.036C59.2207 108.516 59.4687 109.212 59.4687 110.124V114H58.3887V110.28C58.3887 109.624 58.2247 109.124 57.8967 108.78C57.5687 108.428 57.1207 108.252 56.5527 108.252C55.9767 108.252 55.5167 108.432 55.1727 108.792C54.8367 109.152 54.6687 109.676 54.6687 110.364V114H53.5767V107.424H54.6687V108.36C54.8847 108.024 55.1767 107.764 55.5447 107.58C55.9207 107.396 56.3327 107.304 56.7807 107.304ZM65.7837 108.648C66.0077 108.256 66.3357 107.936 66.7677 107.688C67.1997 107.44 67.6917 107.316 68.2437 107.316C68.8357 107.316 69.3677 107.456 69.8397 107.736C70.3117 108.016 70.6837 108.412 70.9557 108.924C71.2277 109.428 71.3637 110.016 71.3637 110.688C71.3637 111.352 71.2277 111.944 70.9557 112.464C70.6837 112.984 70.3077 113.388 69.8277 113.676C69.3557 113.964 68.8277 114.108 68.2437 114.108C67.6757 114.108 67.1757 113.984 66.7437 113.736C66.3197 113.488 65.9997 113.172 65.7837 112.788V114H64.6917V105.12H65.7837V108.648ZM70.2477 110.688C70.2477 110.192 70.1477 109.76 69.9477 109.392C69.7477 109.024 69.4757 108.744 69.1317 108.552C68.7957 108.36 68.4237 108.264 68.0157 108.264C67.6157 108.264 67.2437 108.364 66.8997 108.564C66.5637 108.756 66.2917 109.04 66.0837 109.416C65.8837 109.784 65.7837 110.212 65.7837 110.7C65.7837 111.196 65.8837 111.632 66.0837 112.008C66.2917 112.376 66.5637 112.66 66.8997 112.86C67.2437 113.052 67.6157 113.148 68.0157 113.148C68.4237 113.148 68.7957 113.052 69.1317 112.86C69.4757 112.66 69.7477 112.376 69.9477 112.008C70.1477 111.632 70.2477 111.192 70.2477 110.688ZM78.5851 107.424L74.6251 117.096H73.4971L74.7931 113.928L72.1411 107.424H73.3531L75.4171 112.752L77.4571 107.424H78.5851ZM84.214 108.492C84.406 108.116 84.678 107.824 85.03 107.616C85.39 107.408 85.826 107.304 86.338 107.304V108.432H86.05C84.826 108.432 84.214 109.096 84.214 110.424V114H83.122V107.424H84.214V108.492ZM93.7186 110.46C93.7186 110.668 93.7066 110.888 93.6826 111.12H88.4266C88.4666 111.768 88.6866 112.276 89.0866 112.644C89.4946 113.004 89.9866 113.184 90.5626 113.184C91.0346 113.184 91.4266 113.076 91.7386 112.86C92.0586 112.636 92.2826 112.34 92.4106 111.972H93.5866C93.4106 112.604 93.0586 113.12 92.5306 113.52C92.0026 113.912 91.3466 114.108 90.5626 114.108C89.9386 114.108 89.3786 113.968 88.8826 113.688C88.3946 113.408 88.0106 113.012 87.7306 112.5C87.4506 111.98 87.3106 111.38 87.3106 110.7C87.3106 110.02 87.4466 109.424 87.7186 108.912C87.9906 108.4 88.3706 108.008 88.8586 107.736C89.3546 107.456 89.9226 107.316 90.5626 107.316C91.1866 107.316 91.7386 107.452 92.2186 107.724C92.6986 107.996 93.0666 108.372 93.3226 108.852C93.5866 109.324 93.7186 109.86 93.7186 110.46ZM92.5906 110.232C92.5906 109.816 92.4986 109.46 92.3146 109.164C92.1306 108.86 91.8786 108.632 91.5586 108.48C91.2466 108.32 90.8986 108.24 90.5146 108.24C89.9626 108.24 89.4906 108.416 89.0986 108.768C88.7146 109.12 88.4946 109.608 88.4386 110.232H92.5906ZM97.956 108.324H96.576V114H95.484V108.324H94.632V107.424H95.484V106.956C95.484 106.22 95.672 105.684 96.048 105.348C96.432 105.004 97.044 104.832 97.884 104.832V105.744C97.404 105.744 97.064 105.84 96.864 106.032C96.672 106.216 96.576 106.524 96.576 106.956V107.424H97.956V108.324ZM105.349 110.46C105.349 110.668 105.337 110.888 105.313 111.12H100.057C100.097 111.768 100.317 112.276 100.717 112.644C101.125 113.004 101.617 113.184 102.193 113.184C102.665 113.184 103.057 113.076 103.369 112.86C103.689 112.636 103.913 112.34 104.041 111.972H105.217C105.041 112.604 104.689 113.12 104.161 113.52C103.633 113.912 102.977 114.108 102.193 114.108C101.569 114.108 101.009 113.968 100.513 113.688C100.025 113.408 99.6412 113.012 99.3612 112.5C99.0812 111.98 98.9412 111.38 98.9412 110.7C98.9412 110.02 99.0772 109.424 99.3492 108.912C99.6212 108.4 100.001 108.008 100.489 107.736C100.985 107.456 101.553 107.316 102.193 107.316C102.817 107.316 103.369 107.452 103.849 107.724C104.329 107.996 104.697 108.372 104.953 108.852C105.217 109.324 105.349 109.86 105.349 110.46ZM104.221 110.232C104.221 109.816 104.129 109.46 103.945 109.164C103.761 108.86 103.509 108.632 103.189 108.48C102.877 108.32 102.529 108.24 102.145 108.24C101.593 108.24 101.121 108.416 100.729 108.768C100.345 109.12 100.125 109.608 100.069 110.232H104.221ZM108.003 108.492C108.195 108.116 108.467 107.824 108.819 107.616C109.179 107.408 109.615 107.304 110.127 107.304V108.432H109.839C108.615 108.432 108.003 109.096 108.003 110.424V114H106.911V107.424H108.003V108.492ZM112.599 108.492C112.791 108.116 113.063 107.824 113.415 107.616C113.775 107.408 114.211 107.304 114.723 107.304V108.432H114.435C113.211 108.432 112.599 109.096 112.599 110.424V114H111.507V107.424H112.599V108.492ZM116.668 106.356C116.46 106.356 116.284 106.284 116.14 106.14C115.996 105.996 115.924 105.82 115.924 105.612C115.924 105.404 115.996 105.228 116.14 105.084C116.284 104.94 116.46 104.868 116.668 104.868C116.868 104.868 117.036 104.94 117.172 105.084C117.316 105.228 117.388 105.404 117.388 105.612C117.388 105.82 117.316 105.996 117.172 106.14C117.036 106.284 116.868 106.356 116.668 106.356ZM117.196 107.424V114H116.104V107.424H117.196ZM122.381 107.304C123.181 107.304 123.829 107.548 124.325 108.036C124.821 108.516 125.069 109.212 125.069 110.124V114H123.989V110.28C123.989 109.624 123.825 109.124 123.497 108.78C123.169 108.428 122.721 108.252 122.153 108.252C121.577 108.252 121.117 108.432 120.773 108.792C120.437 109.152 120.269 109.676 120.269 110.364V114H119.177V107.424H120.269V108.36C120.485 108.024 120.777 107.764 121.145 107.58C121.521 107.396 121.933 107.304 122.381 107.304ZM129.685 107.316C130.253 107.316 130.749 107.44 131.173 107.688C131.605 107.936 131.925 108.248 132.133 108.624V107.424H133.237V114.144C133.237 114.744 133.109 115.276 132.853 115.74C132.597 116.212 132.229 116.58 131.749 116.844C131.277 117.108 130.725 117.24 130.093 117.24C129.229 117.24 128.509 117.036 127.933 116.628C127.357 116.22 127.017 115.664 126.913 114.96H127.993C128.113 115.36 128.361 115.68 128.737 115.92C129.113 116.168 129.565 116.292 130.093 116.292C130.693 116.292 131.181 116.104 131.557 115.728C131.941 115.352 132.133 114.824 132.133 114.144V112.764C131.917 113.148 131.597 113.468 131.173 113.724C130.749 113.98 130.253 114.108 129.685 114.108C129.101 114.108 128.569 113.964 128.089 113.676C127.617 113.388 127.245 112.984 126.973 112.464C126.701 111.944 126.565 111.352 126.565 110.688C126.565 110.016 126.701 109.428 126.973 108.924C127.245 108.412 127.617 108.016 128.089 107.736C128.569 107.456 129.101 107.316 129.685 107.316ZM132.133 110.7C132.133 110.204 132.033 109.772 131.833 109.404C131.633 109.036 131.361 108.756 131.017 108.564C130.681 108.364 130.309 108.264 129.901 108.264C129.493 108.264 129.121 108.36 128.785 108.552C128.449 108.744 128.181 109.024 127.981 109.392C127.781 109.76 127.681 110.192 127.681 110.688C127.681 111.192 127.781 111.632 127.981 112.008C128.181 112.376 128.449 112.66 128.785 112.86C129.121 113.052 129.493 113.148 129.901 113.148C130.309 113.148 130.681 113.052 131.017 112.86C131.361 112.66 131.633 112.376 131.833 112.008C132.033 111.632 132.133 111.196 132.133 110.7ZM139.853 108.324V112.2C139.853 112.52 139.921 112.748 140.057 112.884C140.193 113.012 140.429 113.076 140.765 113.076H141.569V114H140.585C139.977 114 139.521 113.86 139.217 113.58C138.913 113.3 138.761 112.84 138.761 112.2V108.324H137.909V107.424H138.761V105.768H139.853V107.424H141.569V108.324H139.853ZM146.276 107.304C146.772 107.304 147.22 107.412 147.62 107.628C148.02 107.836 148.332 108.152 148.556 108.576C148.788 109 148.904 109.516 148.904 110.124V114H147.824V110.28C147.824 109.624 147.66 109.124 147.332 108.78C147.004 108.428 146.556 108.252 145.988 108.252C145.412 108.252 144.952 108.432 144.608 108.792C144.272 109.152 144.104 109.676 144.104 110.364V114H143.012V105.12H144.104V108.36C144.32 108.024 144.616 107.764 144.992 107.58C145.376 107.396 145.804 107.304 146.276 107.304ZM156.808 110.46C156.808 110.668 156.796 110.888 156.772 111.12H151.516C151.556 111.768 151.776 112.276 152.176 112.644C152.584 113.004 153.076 113.184 153.652 113.184C154.124 113.184 154.516 113.076 154.828 112.86C155.148 112.636 155.372 112.34 155.5 111.972H156.676C156.5 112.604 156.148 113.12 155.62 113.52C155.092 113.912 154.436 114.108 153.652 114.108C153.028 114.108 152.468 113.968 151.972 113.688C151.484 113.408 151.1 113.012 150.82 112.5C150.54 111.98 150.4 111.38 150.4 110.7C150.4 110.02 150.536 109.424 150.808 108.912C151.08 108.4 151.46 108.008 151.948 107.736C152.444 107.456 153.012 107.316 153.652 107.316C154.276 107.316 154.828 107.452 155.308 107.724C155.788 107.996 156.156 108.372 156.412 108.852C156.676 109.324 156.808 109.86 156.808 110.46ZM155.68 110.232C155.68 109.816 155.588 109.46 155.404 109.164C155.22 108.86 154.968 108.632 154.648 108.48C154.336 108.32 153.988 108.24 153.604 108.24C153.052 108.24 152.58 108.416 152.188 108.768C151.804 109.12 151.584 109.608 151.528 110.232H155.68ZM42.2485 127.636C42.4645 127.26 42.7845 126.948 43.2085 126.7C43.6405 126.444 44.1405 126.316 44.7085 126.316C45.2925 126.316 45.8205 126.456 46.2925 126.736C46.7725 127.016 47.1485 127.412 47.4205 127.924C47.6925 128.428 47.8285 129.016 47.8285 129.688C47.8285 130.352 47.6925 130.944 47.4205 131.464C47.1485 131.984 46.7725 132.388 46.2925 132.676C45.8205 132.964 45.2925 133.108 44.7085 133.108C44.1485 133.108 43.6525 132.984 43.2205 132.736C42.7965 132.48 42.4725 132.164 42.2485 131.788V136.12H41.1565V126.424H42.2485V127.636ZM46.7125 129.688C46.7125 129.192 46.6125 128.76 46.4125 128.392C46.2125 128.024 45.9405 127.744 45.5965 127.552C45.2605 127.36 44.8885 127.264 44.4805 127.264C44.0805 127.264 43.7085 127.364 43.3645 127.564C43.0285 127.756 42.7565 128.04 42.5485 128.416C42.3485 128.784 42.2485 129.212 42.2485 129.7C42.2485 130.196 42.3485 130.632 42.5485 131.008C42.7565 131.376 43.0285 131.66 43.3645 131.86C43.7085 132.052 44.0805 132.148 44.4805 132.148C44.8885 132.148 45.2605 132.052 45.5965 131.86C45.9405 131.66 46.2125 131.376 46.4125 131.008C46.6125 130.632 46.7125 130.192 46.7125 129.688ZM50.4779 127.492C50.6699 127.116 50.9419 126.824 51.2939 126.616C51.6539 126.408 52.0899 126.304 52.6019 126.304V127.432H52.3139C51.0899 127.432 50.4779 128.096 50.4779 129.424V133H49.3859V126.424H50.4779V127.492ZM56.8504 133.108C56.2344 133.108 55.6744 132.968 55.1704 132.688C54.6744 132.408 54.2824 132.012 53.9944 131.5C53.7144 130.98 53.5744 130.38 53.5744 129.7C53.5744 129.028 53.7184 128.436 54.0064 127.924C54.3024 127.404 54.7024 127.008 55.2064 126.736C55.7104 126.456 56.2744 126.316 56.8984 126.316C57.5224 126.316 58.0864 126.456 58.5904 126.736C59.0944 127.008 59.4904 127.4 59.7784 127.912C60.0744 128.424 60.2224 129.02 60.2224 129.7C60.2224 130.38 60.0704 130.98 59.7664 131.5C59.4704 132.012 59.0664 132.408 58.5544 132.688C58.0424 132.968 57.4744 133.108 56.8504 133.108ZM56.8504 132.148C57.2424 132.148 57.6104 132.056 57.9544 131.872C58.2984 131.688 58.5744 131.412 58.7824 131.044C58.9984 130.676 59.1064 130.228 59.1064 129.7C59.1064 129.172 59.0024 128.724 58.7944 128.356C58.5864 127.988 58.3144 127.716 57.9784 127.54C57.6424 127.356 57.2784 127.264 56.8864 127.264C56.4864 127.264 56.1184 127.356 55.7824 127.54C55.4544 127.716 55.1904 127.988 54.9904 128.356C54.7904 128.724 54.6904 129.172 54.6904 129.7C54.6904 130.236 54.7864 130.688 54.9784 131.056C55.1784 131.424 55.4424 131.7 55.7704 131.884C56.0984 132.06 56.4584 132.148 56.8504 132.148ZM61.3702 129.688C61.3702 129.016 61.5062 128.428 61.7782 127.924C62.0502 127.412 62.4222 127.016 62.8942 126.736C63.3742 126.456 63.9102 126.316 64.5022 126.316C65.0142 126.316 65.4902 126.436 65.9302 126.676C66.3702 126.908 66.7062 127.216 66.9382 127.6V124.12H68.0422V133H66.9382V131.764C66.7222 132.156 66.4022 132.48 65.9782 132.736C65.5542 132.984 65.0582 133.108 64.4902 133.108C63.9062 133.108 63.3742 132.964 62.8942 132.676C62.4222 132.388 62.0502 131.984 61.7782 131.464C61.5062 130.944 61.3702 130.352 61.3702 129.688ZM66.9382 129.7C66.9382 129.204 66.8382 128.772 66.6382 128.404C66.4382 128.036 66.1662 127.756 65.8222 127.564C65.4862 127.364 65.1142 127.264 64.7062 127.264C64.2982 127.264 63.9262 127.36 63.5902 127.552C63.2542 127.744 62.9862 128.024 62.7862 128.392C62.5862 128.76 62.4862 129.192 62.4862 129.688C62.4862 130.192 62.5862 130.632 62.7862 131.008C62.9862 131.376 63.2542 131.66 63.5902 131.86C63.9262 132.052 64.2982 132.148 64.7062 132.148C65.1142 132.148 65.4862 132.052 65.8222 131.86C66.1662 131.66 66.4382 131.376 66.6382 131.008C66.8382 130.632 66.9382 130.196 66.9382 129.7ZM75.8396 126.424V133H74.7476V132.028C74.5396 132.364 74.2476 132.628 73.8716 132.82C73.5036 133.004 73.0956 133.096 72.6476 133.096C72.1356 133.096 71.6756 132.992 71.2676 132.784C70.8596 132.568 70.5356 132.248 70.2956 131.824C70.0636 131.4 69.9476 130.884 69.9476 130.276V126.424H71.0276V130.132C71.0276 130.78 71.1916 131.28 71.5196 131.632C71.8476 131.976 72.2956 132.148 72.8636 132.148C73.4476 132.148 73.9076 131.968 74.2436 131.608C74.5796 131.248 74.7476 130.724 74.7476 130.036V126.424H75.8396ZM77.3954 129.7C77.3954 129.02 77.5314 128.428 77.8034 127.924C78.0754 127.412 78.4514 127.016 78.9314 126.736C79.4194 126.456 79.9754 126.316 80.5994 126.316C81.4074 126.316 82.0714 126.512 82.5914 126.904C83.1194 127.296 83.4674 127.84 83.6354 128.536H82.4594C82.3474 128.136 82.1274 127.82 81.7994 127.588C81.4794 127.356 81.0794 127.24 80.5994 127.24C79.9754 127.24 79.4714 127.456 79.0874 127.888C78.7034 128.312 78.5114 128.916 78.5114 129.7C78.5114 130.492 78.7034 131.104 79.0874 131.536C79.4714 131.968 79.9754 132.184 80.5994 132.184C81.0794 132.184 81.4794 132.072 81.7994 131.848C82.1194 131.624 82.3394 131.304 82.4594 130.888H83.6354C83.4594 131.56 83.1074 132.1 82.5794 132.508C82.0514 132.908 81.3914 133.108 80.5994 133.108C79.9754 133.108 79.4194 132.968 78.9314 132.688C78.4514 132.408 78.0754 132.012 77.8034 131.5C77.5314 130.988 77.3954 130.388 77.3954 129.7ZM86.5444 127.324V131.2C86.5444 131.52 86.6124 131.748 86.7484 131.884C86.8844 132.012 87.1204 132.076 87.4564 132.076H88.2604V133H87.2764C86.6684 133 86.2124 132.86 85.9084 132.58C85.6044 132.3 85.4524 131.84 85.4524 131.2V127.324H84.6004V126.424H85.4524V124.768H86.5444V126.424H88.2604V127.324H86.5444ZM94.3547 127.324V131.2C94.3547 131.52 94.4227 131.748 94.5587 131.884C94.6947 132.012 94.9307 132.076 95.2667 132.076H96.0707V133H95.0867C94.4787 133 94.0227 132.86 93.7187 132.58C93.4147 132.3 93.2627 131.84 93.2627 131.2V127.324H92.4107V126.424H93.2627V124.768H94.3547V126.424H96.0707V127.324H94.3547ZM100.382 133.108C99.7658 133.108 99.2058 132.968 98.7018 132.688C98.2058 132.408 97.8138 132.012 97.5258 131.5C97.2458 130.98 97.1058 130.38 97.1058 129.7C97.1058 129.028 97.2498 128.436 97.5378 127.924C97.8338 127.404 98.2338 127.008 98.7378 126.736C99.2418 126.456 99.8058 126.316 100.43 126.316C101.054 126.316 101.618 126.456 102.122 126.736C102.626 127.008 103.022 127.4 103.31 127.912C103.606 128.424 103.754 129.02 103.754 129.7C103.754 130.38 103.602 130.98 103.298 131.5C103.002 132.012 102.598 132.408 102.086 132.688C101.574 132.968 101.006 133.108 100.382 133.108ZM100.382 132.148C100.774 132.148 101.142 132.056 101.486 131.872C101.83 131.688 102.106 131.412 102.314 131.044C102.53 130.676 102.638 130.228 102.638 129.7C102.638 129.172 102.534 128.724 102.326 128.356C102.118 127.988 101.846 127.716 101.51 127.54C101.174 127.356 100.81 127.264 100.418 127.264C100.018 127.264 99.6498 127.356 99.3138 127.54C98.9858 127.716 98.7218 127.988 98.5218 128.356C98.3218 128.724 98.2218 129.172 98.2218 129.7C98.2218 130.236 98.3178 130.688 98.5098 131.056C98.7098 131.424 98.9738 131.7 99.3018 131.884C99.6298 132.06 99.9898 132.148 100.382 132.148ZM109.721 127.492C109.913 127.116 110.185 126.824 110.537 126.616C110.897 126.408 111.333 126.304 111.845 126.304V127.432H111.557C110.333 127.432 109.721 128.096 109.721 129.424V133H108.629V126.424H109.721V127.492ZM119.225 129.46C119.225 129.668 119.213 129.888 119.189 130.12H113.933C113.973 130.768 114.193 131.276 114.593 131.644C115.001 132.004 115.493 132.184 116.069 132.184C116.541 132.184 116.933 132.076 117.245 131.86C117.565 131.636 117.789 131.34 117.917 130.972H119.093C118.917 131.604 118.565 132.12 118.037 132.52C117.509 132.912 116.853 133.108 116.069 133.108C115.445 133.108 114.885 132.968 114.389 132.688C113.901 132.408 113.517 132.012 113.237 131.5C112.957 130.98 112.817 130.38 112.817 129.7C112.817 129.02 112.953 128.424 113.225 127.912C113.497 127.4 113.877 127.008 114.365 126.736C114.861 126.456 115.429 126.316 116.069 126.316C116.693 126.316 117.245 126.452 117.725 126.724C118.205 126.996 118.573 127.372 118.829 127.852C119.093 128.324 119.225 128.86 119.225 129.46ZM118.097 129.232C118.097 128.816 118.005 128.46 117.821 128.164C117.637 127.86 117.385 127.632 117.065 127.48C116.753 127.32 116.405 127.24 116.021 127.24C115.469 127.24 114.997 127.416 114.605 127.768C114.221 128.12 114.001 128.608 113.945 129.232H118.097ZM122.119 127.324V131.2C122.119 131.52 122.187 131.748 122.323 131.884C122.459 132.012 122.695 132.076 123.031 132.076H123.835V133H122.851C122.243 133 121.787 132.86 121.483 132.58C121.179 132.3 121.027 131.84 121.027 131.2V127.324H120.175V126.424H121.027V124.768H122.119V126.424H123.835V127.324H122.119ZM124.87 129.688C124.87 129.016 125.006 128.428 125.278 127.924C125.55 127.412 125.922 127.016 126.394 126.736C126.874 126.456 127.406 126.316 127.99 126.316C128.566 126.316 129.066 126.44 129.49 126.688C129.914 126.936 130.23 127.248 130.438 127.624V126.424H131.542V133H130.438V131.776C130.222 132.16 129.898 132.48 129.466 132.736C129.042 132.984 128.546 133.108 127.978 133.108C127.394 133.108 126.866 132.964 126.394 132.676C125.922 132.388 125.55 131.984 125.278 131.464C125.006 130.944 124.87 130.352 124.87 129.688ZM130.438 129.7C130.438 129.204 130.338 128.772 130.138 128.404C129.938 128.036 129.666 127.756 129.322 127.564C128.986 127.364 128.614 127.264 128.206 127.264C127.798 127.264 127.426 127.36 127.09 127.552C126.754 127.744 126.486 128.024 126.286 128.392C126.086 128.76 125.986 129.192 125.986 129.688C125.986 130.192 126.086 130.632 126.286 131.008C126.486 131.376 126.754 131.66 127.09 131.86C127.426 132.052 127.798 132.148 128.206 132.148C128.614 132.148 128.986 132.052 129.322 131.86C129.666 131.66 129.938 131.376 130.138 131.008C130.338 130.632 130.438 130.196 130.438 129.7ZM134.071 125.356C133.863 125.356 133.687 125.284 133.543 125.14C133.399 124.996 133.327 124.82 133.327 124.612C133.327 124.404 133.399 124.228 133.543 124.084C133.687 123.94 133.863 123.868 134.071 123.868C134.271 123.868 134.439 123.94 134.575 124.084C134.719 124.228 134.791 124.404 134.791 124.612C134.791 124.82 134.719 124.996 134.575 125.14C134.439 125.284 134.271 125.356 134.071 125.356ZM134.599 126.424V133H133.507V126.424H134.599ZM137.672 124.12V133H136.58V124.12H137.672ZM145.654 129.46C145.654 129.668 145.642 129.888 145.618 130.12H140.362C140.402 130.768 140.622 131.276 141.022 131.644C141.43 132.004 141.922 132.184 142.498 132.184C142.97 132.184 143.362 132.076 143.674 131.86C143.994 131.636 144.218 131.34 144.346 130.972H145.522C145.346 131.604 144.994 132.12 144.466 132.52C143.938 132.912 143.282 133.108 142.498 133.108C141.874 133.108 141.314 132.968 140.818 132.688C140.33 132.408 139.946 132.012 139.666 131.5C139.386 130.98 139.246 130.38 139.246 129.7C139.246 129.02 139.382 128.424 139.654 127.912C139.926 127.4 140.306 127.008 140.794 126.736C141.29 126.456 141.858 126.316 142.498 126.316C143.122 126.316 143.674 126.452 144.154 126.724C144.634 126.996 145.002 127.372 145.258 127.852C145.522 128.324 145.654 128.86 145.654 129.46ZM144.526 129.232C144.526 128.816 144.434 128.46 144.25 128.164C144.066 127.86 143.814 127.632 143.494 127.48C143.182 127.32 142.834 127.24 142.45 127.24C141.898 127.24 141.426 127.416 141.034 127.768C140.65 128.12 140.43 128.608 140.374 129.232H144.526ZM148.307 127.492C148.499 127.116 148.771 126.824 149.123 126.616C149.483 126.408 149.919 126.304 150.431 126.304V127.432H150.143C148.919 127.432 148.307 128.096 148.307 129.424V133H147.215V126.424H148.307V127.492Z" fill="white" fill-opacity="0.7"/>
<rect x="78" y="20" width="34" height="34" rx="10" fill="#00030C"/>
<path d="M101.667 37C101.667 40.68 98.68 43.6667 95 43.6667C91.32 43.6667 89.0734 39.96 89.0734 39.96M89.0734 39.96H92.0867M89.0734 39.96V43.2933M88.3334 37C88.3334 33.32 91.2934 30.3333 95 30.3333C99.4467 30.3333 101.667 34.04 101.667 34.04M101.667 34.04V30.7067M101.667 34.04H98.7067" stroke="white" stroke-width="1.5" stroke-linecap="round" stroke-linejoin="round"/>
<defs>
<filter id="filter0_b_8_465" x="-10" y="-10" width="211" height="178" filterUnits="userSpaceOnUse" color-interpolation-filters="sRGB">
<feFlood flood-opacity="0" result="BackgroundImageFix"/>
<feGaussianBlur in="BackgroundImageFix" stdDeviation="5"/>
<feComposite in2="SourceAlpha" operator="in" result="effect1_backgroundBlur_8_465"/>
<feBlend mode="normal" in="SourceGraphic" in2="effect1_backgroundBlur_8_465" result="shape"/>
</filter>
</defs>
</svg>
