<svg width="30" height="25" viewBox="0 0 30 25" fill="none" xmlns="http://www.w3.org/2000/svg">
<path fill-rule="evenodd" clip-rule="evenodd" d="M19.0286 0.458031C19.7065 0.341921 20.4655 0.303153 21.1799 0.42401C22.4557 0.639853 23.6342 1.23282 24.5657 2.12184C25.1746 2.13561 25.7731 2.01565 26.3026 1.84463C26.7507 1.69989 27.1293 1.52513 27.3945 1.38695C27.5264 1.31824 27.6283 1.25963 27.6946 1.21995C27.7276 1.20014 27.7517 1.18515 27.766 1.17609L27.7786 1.16801C28.1744 0.904375 28.7013 0.955687 29.0385 1.29103C29.3758 1.62645 29.4301 2.15301 29.1684 2.55021C28.8914 2.9706 28.507 3.72003 28.0762 4.55971C28.0085 4.69174 27.9396 4.82599 27.8699 4.96155C27.6228 5.4415 27.3695 5.92659 27.1334 6.34277C26.9851 6.60408 26.8265 6.86938 26.6667 7.09864V7.46367C26.6768 8.80451 26.523 10.1384 26.2109 11.436C26.0146 12.2524 25.7555 13.0546 25.4352 13.8351C24.6053 15.8573 23.3808 17.6939 21.8331 19.2375C20.2855 20.7812 18.4458 22.001 16.4214 22.8257C14.3989 23.6497 12.2326 24.0628 10.0488 24.0409C6.88302 24.0436 3.78387 23.1315 1.12424 21.4143C0.732504 21.1614 0.567572 20.6713 0.726687 20.233C0.885802 19.7947 1.32673 19.5245 1.78949 19.5818C2.18997 19.6313 2.59318 19.6555 2.99672 19.6542C4.44665 19.6501 5.86897 19.3298 7.16745 18.7262C6.75472 18.5384 6.36068 18.3067 5.99247 18.0337C4.91018 17.2311 4.10497 16.1112 3.68888 14.8297C3.58075 14.4967 3.65467 14.1314 3.88375 13.8666C3.88786 13.8618 3.892 13.8571 3.89618 13.8525C3.65148 13.6343 3.42251 13.3967 3.21171 13.1412C2.26329 11.9916 1.74105 10.5497 1.73335 9.05937L1.73332 9.0542L1.73333 8.98753C1.73333 8.63304 1.921 8.30505 2.22661 8.12542C2.30407 8.07989 2.38619 8.04561 2.47065 8.02262C2.01954 7.12252 1.78495 6.12859 1.78666 5.12025C1.78613 3.97789 2.08453 2.85527 2.65221 1.86393C2.81609 1.57775 3.11053 1.39076 3.43923 1.36413C3.76794 1.3375 4.08864 1.47463 4.29646 1.7307C5.57987 3.31205 7.18158 4.60572 8.99756 5.52768C9.93108 6.00162 10.9105 6.37188 11.9182 6.63379C12.4832 6.78063 13.0571 6.89341 13.6368 6.97132C13.6112 6.00697 13.8017 5.04315 14.2013 4.15257C14.7875 2.84614 15.7908 1.77124 17.0538 1.09645C17.5887 0.810674 18.2987 0.583059 19.0286 0.458031ZM3.99103 10.5214C4.16389 11.0079 4.42105 11.4643 4.75446 11.8684C5.40956 12.6625 6.31882 13.2059 7.32844 13.4067C7.77815 13.4962 8.10941 13.8801 8.13211 14.338C8.15481 14.796 7.86314 15.2107 7.42447 15.3442C7.06115 15.4548 6.68891 15.5318 6.31244 15.5746C6.56121 15.8953 6.85385 16.1825 7.18373 16.4272C7.93198 16.982 8.83457 17.2898 9.76591 17.3077C10.1885 17.3158 10.5603 17.5888 10.6947 17.9894C10.8292 18.3901 10.6972 18.8321 10.365 19.0934C8.96615 20.1941 7.34855 20.9617 5.63448 21.3535C7.05513 21.8085 8.54505 22.0427 10.0521 22.0409L10.0637 22.0408C11.9838 22.0608 13.8886 21.698 15.6669 20.9735C17.4451 20.2491 19.0612 19.1775 20.4207 17.8215C21.7803 16.4655 22.8559 14.8521 23.585 13.0757C23.8663 12.3901 24.0939 11.6855 24.2664 10.9683C24.5408 9.82726 24.6759 8.65437 24.6667 7.47535L24.6667 7.46753V6.76086C24.6667 6.51839 24.7548 6.28418 24.9146 6.10182C25.0069 5.99643 25.1685 5.75302 25.3939 5.35582C25.608 4.97832 25.8451 4.52511 26.0916 4.0462C26.1065 4.01723 26.1215 3.98812 26.1365 3.95887C25.4971 4.09773 24.7723 4.17052 24.0126 4.08841C23.7719 4.0624 23.5489 3.95002 23.3848 3.7721C22.7144 3.04498 21.8215 2.56098 20.8463 2.39599C20.4136 2.32278 19.8904 2.33954 19.3663 2.42932C18.7968 2.52687 18.3012 2.69755 17.9963 2.86045C17.1239 3.32654 16.4309 4.069 16.026 4.97139C15.6211 5.87377 15.5271 6.88503 15.7588 7.84657C15.8327 8.15312 15.7577 8.47656 15.5564 8.71927C15.3551 8.96197 15.0511 9.09552 14.7362 9.07959C13.6116 9.02271 12.499 8.85117 11.4151 8.56948C10.2686 8.2715 9.15428 7.85023 8.09218 7.31101C6.52847 6.51713 5.1044 5.48101 3.87128 4.24409C3.81503 4.53157 3.78647 4.82494 3.78667 5.1202L3.78666 5.12276C3.78527 5.85705 3.96547 6.58029 4.31122 7.22809C4.65696 7.87589 5.15753 8.42815 5.76834 8.83569C6.13904 9.08302 6.30134 9.54579 6.16634 9.97048C6.03133 10.3952 5.6316 10.6793 5.18613 10.6672C4.78267 10.6562 4.38259 10.6071 3.99103 10.5214Z" fill="white"/>
</svg>
